SplineFontDB: 3.0
FontName: aghtex_mathbm_light
FullName: aghtex_mathbm_light
FamilyName: aghtex_mathbm
Weight: Light
Copyright: Copyright (c) 1997, 2009 American Mathematical Society (<http://www.ams.org>), with Reserved Font Name CMMIB10.
Version: 3.2.0.1
ItalicAngle: -14.04
UnderlinePosition: 0
UnderlineWidth: 0
Ascent: 819
Descent: 205
InvalidEm: 0
LayerCount: 2
Layer: 0 1 "+gMyXYgAA" 1
Layer: 1 1 "+Uk2XYgAA" 0
UniqueID: 5087392
FSType: 8
OS2Version: 1
OS2_WeightWidthSlopeOnly: 0
OS2_UseTypoMetrics: 0
CreationTime: 1344259758
ModificationTime: 1527700689
PfmFamily: 17
TTFWeight: 300
TTFWidth: 5
LineGap: 92
VLineGap: 0
OS2TypoAscent: 0
OS2TypoAOffset: 1
OS2TypoDescent: 0
OS2TypoDOffset: 1
OS2TypoLinegap: 92
OS2WinAscent: 0
OS2WinAOffset: 1
OS2WinDescent: 0
OS2WinDOffset: 1
HheadAscent: 0
HheadAOffset: 1
HheadDescent: 0
HheadDOffset: 1
OS2Vendor: 'PfEd'
MarkAttachClasses: 1
DEI: 91125
ShortTable: maxp 16
  0
  0
  0
  0
  0
  0
  0
  2
  1
  2
  22
  0
  256
  0
  0
  0
EndShort
TtTable: prep
PUSHW_1
 511
SCANCTRL
PUSHB_1
 1
SCANTYPE
SVTCA[y-axis]
MPPEM
PUSHB_1
 8
LT
IF
PUSHB_2
 1
 1
INSTCTRL
EIF
PUSHB_2
 70
 6
CALL
IF
POP
PUSHB_1
 16
EIF
MPPEM
PUSHB_1
 20
GT
IF
POP
PUSHB_1
 128
EIF
SCVTCI
PUSHB_1
 6
CALL
NOT
IF
SVTCA[y-axis]
PUSHB_1
 4
DUP
RCVT
PUSHB_1
 3
CALL
WCVTP
PUSHB_1
 5
DUP
RCVT
PUSHB_3
 4
 141
 2
CALL
PUSHB_1
 3
CALL
WCVTP
SVTCA[x-axis]
PUSHB_1
 6
DUP
RCVT
PUSHB_1
 3
CALL
WCVTP
EIF
PUSHB_1
 20
CALL
EndTTInstrs
TtTable: fpgm
PUSHB_1
 0
FDEF
PUSHB_1
 0
SZP0
MPPEM
PUSHB_1
 50
LT
IF
PUSHB_1
 74
SROUND
EIF
PUSHB_1
 0
SWAP
MIAP[rnd]
RTG
PUSHB_1
 6
CALL
IF
RTDG
EIF
MPPEM
PUSHB_1
 50
LT
IF
RDTG
EIF
DUP
MDRP[rp0,rnd,grey]
PUSHB_1
 1
SZP0
MDAP[no-rnd]
RTG
ENDF
PUSHB_1
 1
FDEF
DUP
MDRP[rp0,min,white]
PUSHB_1
 12
CALL
ENDF
PUSHB_1
 2
FDEF
MPPEM
GT
IF
RCVT
SWAP
EIF
POP
ENDF
PUSHB_1
 3
FDEF
ROUND[Black]
RTG
DUP
PUSHB_1
 64
LT
IF
POP
PUSHB_1
 64
EIF
ENDF
PUSHB_1
 4
FDEF
PUSHB_1
 6
CALL
IF
POP
SWAP
POP
ROFF
IF
MDRP[rp0,min,rnd,black]
ELSE
MDRP[min,rnd,black]
EIF
ELSE

StartChar: A
Encoding: 65 65 0
Width: 869
VWidth: 1000
Flags: W
HStem: 1.5 45.5<45.4351 162.203 213.691 296.763 502.188 598 743.58 828.328> 198 47<336 568>
LayerCount: 2
Fore
SplineSet
645 682 m 2,0,-1
 739 67 l 2,1,2
 741 54 741 54 743.5 51.5 c 128,-1,3
 746 49 746 49 755 48 c 0,4,5
 769 47 769 47 794 47 c 0,6,7
 810 47 810 47 816.5 46.5 c 128,-1,8
 823 46 823 46 828.5 42 c 128,-1,9
 834 38 834 38 834 29 c 0,10,11
 834 16 834 16 828 9 c 128,-1,12
 822 2 822 2 817.5 1 c 128,-1,13
 813 0 813 0 806 0 c 0,14,15
 794 0 794 0 771 1 c 128,-1,16
 748 2 748 2 736 2 c 128,-1,17
 724 2 724 2 701 2.5 c 128,-1,18
 678 3 678 3 667 3 c 0,19,20
 650 3 650 3 592 1.5 c 128,-1,21
 534 0 534 0 518 0 c 0,22,23
 496 0 496 0 496 18 c 0,24,25
 496 32 496 32 502 38.5 c 128,-1,26
 508 45 508 45 514 46 c 128,-1,27
 520 47 520 47 533 47 c 0,28,29
 574 47 574 47 598 52 c 1,30,-1
 575 198 l 1,31,-1
 305 198 l 1,32,-1
 213 58 l 1,33,34
 235 47 235 47 271 47 c 0,35,36
 297 47 297 47 297 29 c 0,37,38
 297 0 297 0 270 0 c 0,39,40
 252 0 252 0 215 1.5 c 128,-1,41
 178 3 178 3 159 3 c 0,42,43
 143 3 143 3 111 1.5 c 128,-1,44
 79 0 79 0 64 0 c 0,45,46
 56 0 56 0 50.5 5.5 c 128,-1,47
 45 11 45 11 45 18 c 0,48,49
 45 31 45 31 51 38 c 128,-1,50
 57 45 57 45 62 46 c 128,-1,51
 67 47 67 47 77 47 c 0,52,53
 111 47 111 47 132 53.5 c 128,-1,54
 153 60 153 60 159.5 66.5 c 128,-1,55
 166 73 166 73 174 85 c 2,56,-1
 567 686 l 2,57,58
 577 702 577 702 585.5 706.5 c 128,-1,59
 594 711 594 711 611 711 c 0,60,61
 630 711 630 711 636 706 c 128,-1,62
 642 701 642 701 645 682 c 2,0,-1
524 533 m 1,63,-1
 336 245 l 1,64,-1
 568 245 l 1,65,-1
 524 533 l 1,63,-1
EndSplineSet
EndChar

StartChar: B
Encoding: 66 66 1
Width: 866
VWidth: 1000
Flags: W
HStem: 0 47<43.4067 156.388 288 568.748> 339 36<369 613.008> 639 47<209.188 306 430.031 692.332>
VStem: 665 139<146.262 292.771> 719 135<472.852 614.472>
LayerCount: 2
Fore
SplineSet
163 67 m 2,0,-1
 306 637 l 1,1,2
 264 639 264 639 245 639 c 0,3,4
 227 639 227 639 220 639.5 c 128,-1,5
 213 640 213 640 208 644 c 128,-1,6
 203 648 203 648 203 657 c 0,7,8
 203 671 203 671 209 677.5 c 128,-1,9
 215 684 215 684 221 685 c 128,-1,10
 227 686 227 686 240 686 c 2,11,-1
 641 686 l 2,12,13
 744 686 744 686 799 648 c 128,-1,14
 854 610 854 610 854 547 c 0,15,16
 854 488 854 488 800.5 433 c 128,-1,17
 747 378 747 378 637 358 c 1,18,19
 711 352 711 352 757.5 317 c 128,-1,20
 804 282 804 282 804 221 c 0,21,22
 804 186 804 186 785.5 148.5 c 128,-1,23
 767 111 767 111 731.5 77 c 128,-1,24
 696 43 696 43 635.5 21.5 c 128,-1,25
 575 0 575 0 501 0 c 2,26,-1
 77 0 l 2,27,28
 43 0 43 0 43 18 c 0,29,30
 43 38 43 38 55 45 c 0,31,32
 59 47 59 47 87 47 c 0,33,34
 123 47 123 47 140 48 c 0,35,36
 153 49 153 49 156.5 52 c 128,-1,37
 160 55 160 55 163 67 c 2,0,-1
431 621 m 2,38,-1
 369 375 l 1,39,-1
 527 375 l 2,40,41
 575 375 575 375 614 392.5 c 128,-1,42
 653 410 653 410 674.5 437.5 c 128,-1,43
 696 465 696 465 707.5 494.5 c 128,-1,44
 719 524 719 524 719 552 c 0,45,46
 719 639 719 639 618 639 c 2,47,-1
 469 639 l 2,48,49
 451 639 451 639 442 638 c 0,50,51
 435 637 435 637 431 621 c 2,38,-1
312 47 m 2,52,-1
 472 47 l 2,53,54
 522 47 522 47 561.5 65.5 c 128,-1,55
 601 84 601 84 622.5 113.5 c 128,-1,56
 644 143 644 143 654.5 174.5 c 128,-1,57
 665 206 665 206 665 237 c 0,58,59
 665 339 665 339 555 339 c 2,60,-1
 360 339 l 1,61,-1
 288 48 l 1,62,63
 295 47 295 47 312 47 c 2,52,-1
EndSplineSet
EndChar

StartChar: C
Encoding: 67 67 2
Width: 816
VWidth: 1000
Flags: W
HStem: -17 47<293.138 514.08> 656 47<442.261 661.838>
VStem: 55 139<138.576 350.954>
LayerCount: 2
Fore
SplineSet
852 673 m 2,0,-1
 795 448 l 2,1,2
 791 432 791 432 787 429 c 128,-1,3
 783 426 783 426 767 426 c 0,4,5
 740 426 740 426 740 441 c 0,6,7
 740 446 740 446 741.5 458 c 128,-1,8
 743 470 743 470 743 476 c 0,9,10
 743 550 743 550 699 603 c 128,-1,11
 655 656 655 656 570 656 c 0,12,13
 490 656 490 656 420.5 625 c 128,-1,14
 351 594 351 594 309 544 c 0,15,16
 264 492 264 492 236 412.5 c 128,-1,17
 208 333 208 333 201 285.5 c 128,-1,18
 194 238 194 238 194 212 c 0,19,20
 194 120 194 120 252 76 c 0,21,22
 311 30 311 30 408 30 c 0,23,24
 498 30 498 30 581 84 c 128,-1,25
 664 138 664 138 693 229 c 0,26,27
 697 242 697 242 700.5 245 c 128,-1,28
 704 248 704 248 718 248 c 0,29,30
 741 248 741 248 741 234 c 0,31,32
 741 226 741 226 734 204 c 128,-1,33
 727 182 727 182 698 139.5 c 128,-1,34
 669 97 669 97 626 65 c 0,35,36
 515 -17 515 -17 381 -17 c 0,37,38
 240 -17 240 -17 147.5 51 c 128,-1,39
 55 119 55 119 55 253 c 0,40,41
 55 315 55 315 75.5 378.5 c 128,-1,42
 96 442 96 442 138.5 500 c 128,-1,43
 181 558 181 558 239 603.5 c 128,-1,44
 297 649 297 649 379 676 c 128,-1,45
 461 703 461 703 554 703 c 0,46,47
 672 703 672 703 737 631 c 1,48,-1
 830 703 l 1,49,50
 855 703 855 703 855 689 c 0,51,52
 855 688 855 688 852 673 c 2,0,-1
EndSplineSet
EndChar

StartChar: D
Encoding: 68 68 3
Width: 938
VWidth: 1000
Flags: W
HStem: 0 47<43.4067 156.388 293 567.023> 639 47<209.188 306 436.001 699.787>
VStem: 782 133<337.07 552.098>
LayerCount: 2
Fore
SplineSet
163 67 m 2,0,-1
 306 637 l 1,1,2
 264 639 264 639 245 639 c 0,3,4
 227 639 227 639 220 639.5 c 128,-1,5
 213 640 213 640 208 644 c 128,-1,6
 203 648 203 648 203 657 c 0,7,8
 203 671 203 671 209 677.5 c 128,-1,9
 215 684 215 684 221 685 c 128,-1,10
 227 686 227 686 240 686 c 2,11,-1
 639 686 l 2,12,13
 759 686 759 686 837 624 c 128,-1,14
 915 562 915 562 915 439 c 0,15,16
 915 361 915 361 885 284.5 c 128,-1,17
 855 208 855 208 800 144 c 128,-1,18
 745 80 745 80 658 40 c 128,-1,19
 571 0 571 0 468 0 c 2,20,-1
 77 0 l 2,21,22
 43 0 43 0 43 18 c 0,23,24
 43 38 43 38 55 45 c 0,25,26
 59 47 59 47 87 47 c 0,27,28
 123 47 123 47 140 48 c 0,29,30
 153 49 153 49 156.5 52 c 128,-1,31
 160 55 160 55 163 67 c 2,0,-1
436 621 m 2,32,-1
 293 48 l 1,33,34
 300 47 300 47 317 47 c 2,35,-1
 441 47 l 2,36,37
 637 47 637 47 718 210 c 1,38,39
 739 255 739 255 760.5 339.5 c 128,-1,40
 782 424 782 424 782 474 c 0,41,42
 782 556 782 556 732 598 c 1,43,44
 680 639 680 639 588 639 c 2,45,-1
 474 639 l 2,46,47
 456 639 456 639 447 638 c 0,48,49
 440 637 440 637 436 621 c 2,32,-1
EndSplineSet
EndChar

StartChar: E
Encoding: 69 69 4
Width: 810
VWidth: 1000
Flags: W
HStem: 0 47<43.4067 156.388 299 589.445> 329 47<381 499.462> 633 47<207.672 304 444.408 722.994>
VStem: 508 43.5<212.018 240> 734 53<203.38 269.871> 758 45.5<439.024 513.716>
LayerCount: 2
Fore
SplineSet
781 238 m 2,0,-1
 685 21 l 2,1,2
 679 6 679 6 673 3 c 128,-1,3
 667 0 667 0 648 0 c 2,4,-1
 77 0 l 2,5,6
 43 0 43 0 43 18 c 0,7,8
 43 38 43 38 55 45 c 0,9,10
 59 47 59 47 87 47 c 0,11,12
 123 47 123 47 140 48 c 0,13,14
 153 49 153 49 156.5 52 c 128,-1,15
 160 55 160 55 163 67 c 2,16,-1
 304 631 l 1,17,18
 262 633 262 633 243 633 c 0,19,20
 226 633 226 633 219.5 633.5 c 128,-1,21
 213 634 213 634 207.5 638 c 128,-1,22
 202 642 202 642 202 651 c 0,23,24
 202 669 202 669 211 675 c 0,25,26
 217 680 217 680 238 680 c 2,27,-1
 792 680 l 2,28,29
 825 680 825 680 825 662 c 1,30,-1
 824 646 l 1,31,-1
 806 467 l 2,32,33
 805 456 805 456 803.5 451.5 c 128,-1,34
 802 447 802 447 797 443 c 128,-1,35
 792 439 792 439 782 439 c 0,36,37
 758 439 758 439 758 458 c 0,38,39
 758 466 758 466 760 485.5 c 128,-1,40
 762 505 762 505 762 514 c 0,41,42
 762 583 762 583 727.5 608 c 128,-1,43
 693 633 693 633 609 633 c 2,44,-1
 478 633 l 2,45,46
 457 633 457 633 444 631 c 1,47,-1
 381 376 l 1,48,-1
 441 376 l 2,49,50
 499 376 499 376 525 394 c 128,-1,51
 551 412 551 412 566 467 c 0,52,53
 570 483 570 483 574.5 488 c 128,-1,54
 579 493 579 493 592 493 c 0,55,56
 616 493 616 493 616 475 c 0,57,58
 616 472 616 472 612 459 c 2,59,-1
 556 236 l 2,60,61
 553 225 553 225 551.5 221.5 c 128,-1,62
 550 218 550 218 545 215 c 128,-1,63
 540 212 540 212 531 212 c 0,64,65
 508 212 508 212 508 230 c 1,66,-1
 509 240 l 1,67,68
 517 264 517 264 517 286 c 0,69,70
 517 311 517 311 500 320 c 128,-1,71
 483 329 483 329 438 329 c 2,72,-1
 369 329 l 1,73,-1
 299 48 l 1,74,75
 306 47 306 47 323 47 c 2,76,-1
 453 47 l 2,77,78
 572 47 572 47 628.5 91.5 c 128,-1,79
 685 136 685 136 734 245 c 0,80,81
 743 266 743 266 747 270 c 128,-1,82
 751 274 751 274 763 274 c 0,83,84
 787 274 787 274 787 256 c 0,85,86
 787 251 787 251 781 238 c 2,0,-1
EndSplineSet
EndChar

StartChar: F
Encoding: 70 70 5
Width: 688
VWidth: 1000
Flags: W
HStem: 2 45<43.4351 156.388 299 427.736> 317 47<378 491.493> 633 47<207.672 304 444.408 709.793>
VStem: 742 45.5<439.024 515.656>
LayerCount: 2
Fore
SplineSet
366 317 m 1,0,-1
 299 51 l 1,1,2
 319 47 319 47 362 47 c 2,3,-1
 395 47 l 2,4,5
 428 47 428 47 428 29 c 0,6,7
 428 0 428 0 398 0 c 0,8,9
 384 0 384 0 355.5 1 c 128,-1,10
 327 2 327 2 312 2 c 128,-1,11
 297 2 297 2 267 2.5 c 128,-1,12
 237 3 237 3 222 3 c 0,13,14
 208 3 208 3 181 2.5 c 128,-1,15
 154 2 154 2 141 2 c 128,-1,16
 128 2 128 2 103 1 c 128,-1,17
 78 0 78 0 65 0 c 0,18,19
 43 0 43 0 43 18 c 0,20,21
 43 38 43 38 55 45 c 0,22,23
 59 47 59 47 87 47 c 0,24,25
 123 47 123 47 140 48 c 0,26,27
 153 49 153 49 156.5 52 c 128,-1,28
 160 55 160 55 163 67 c 2,29,-1
 304 631 l 1,30,31
 262 633 262 633 243 633 c 0,32,33
 226 633 226 633 219.5 633.5 c 128,-1,34
 213 634 213 634 207.5 638 c 128,-1,35
 202 642 202 642 202 651 c 0,36,37
 202 669 202 669 211 675 c 0,38,39
 217 680 217 680 238 680 c 2,40,-1
 776 680 l 2,41,42
 809 680 809 680 809 662 c 1,43,-1
 808 646 l 1,44,-1
 790 467 l 2,45,46
 789 456 789 456 787.5 451.5 c 128,-1,47
 786 447 786 447 781 443 c 128,-1,48
 776 439 776 439 766 439 c 0,49,50
 742 439 742 439 742 458 c 0,51,52
 742 459 742 459 743 468.5 c 128,-1,53
 744 478 744 478 745 491.5 c 128,-1,54
 746 505 746 505 746 516 c 0,55,56
 746 582 746 582 714 607.5 c 128,-1,57
 682 633 682 633 597 633 c 2,58,-1
 478 633 l 2,59,60
 457 633 457 633 444 631 c 1,61,-1
 378 364 l 1,62,-1
 434 364 l 2,63,64
 490 364 490 364 516.5 382 c 128,-1,65
 543 400 543 400 557 455 c 0,66,67
 561 471 561 471 565.5 476 c 128,-1,68
 570 481 570 481 583 481 c 0,69,70
 607 481 607 481 607 463 c 0,71,72
 607 460 607 460 603 447 c 2,73,-1
 547 224 l 2,74,75
 544 213 544 213 542.5 209.5 c 128,-1,76
 541 206 541 206 536 203 c 128,-1,77
 531 200 531 200 522 200 c 0,78,79
 499 200 499 200 499 218 c 0,80,81
 499 222 499 222 502 232 c 0,82,83
 508 256 508 256 508 274 c 0,84,85
 508 299 508 299 492 308 c 128,-1,86
 476 317 476 317 431 317 c 2,87,-1
 366 317 l 1,0,-1
EndSplineSet
EndChar

StartChar: G
Encoding: 71 71 6
Width: 886
VWidth: 1000
Flags: W
HStem: -17 47<295.82 511.437> 0 21G<668.5 677> 229 47<461.531 597.984 747.378 825.672> 656 47<443.026 662.577>
VStem: 55 140<138.888 355.755>
LayerCount: 2
Fore
SplineSet
735 210 m 2,0,-1
 688 23 l 2,1,2
 682 0 682 0 672 0 c 0,3,4
 665 0 665 0 635.5 17.5 c 128,-1,5
 606 35 606 35 589 52 c 1,6,7
 562 23 562 23 508.5 3 c 128,-1,8
 455 -17 455 -17 382 -17 c 0,9,10
 236 -17 236 -17 145.5 52 c 128,-1,11
 55 121 55 121 55 253 c 0,12,13
 55 315 55 315 75.5 378.5 c 128,-1,14
 96 442 96 442 138.5 500 c 128,-1,15
 181 558 181 558 239 603.5 c 128,-1,16
 297 649 297 649 378.5 676 c 128,-1,17
 460 703 460 703 553 703 c 0,18,19
 664 703 664 703 736 631 c 1,20,-1
 829 703 l 1,21,22
 854 703 854 703 854 689 c 0,23,24
 854 688 854 688 851 673 c 2,25,-1
 794 448 l 2,26,27
 790 432 790 432 786 429 c 128,-1,28
 782 426 782 426 766 426 c 0,29,30
 739 426 739 426 739 441 c 0,31,32
 739 446 739 446 740.5 458.5 c 128,-1,33
 742 471 742 471 742 477 c 0,34,35
 742 548 742 548 699 602 c 128,-1,36
 656 656 656 656 569 656 c 0,37,38
 493 656 493 656 425 627 c 128,-1,39
 357 598 357 598 313 549 c 0,40,41
 250 478 250 478 222.5 376.5 c 128,-1,42
 195 275 195 275 195 215 c 0,43,44
 195 124 195 124 248 80 c 0,45,46
 310 30 310 30 413 30 c 0,47,48
 467 30 467 30 514 53.5 c 128,-1,49
 561 77 561 77 573 124 c 0,50,51
 574 125 574 125 582 158 c 128,-1,52
 590 191 590 191 591 196 c 0,53,54
 598 220 598 220 598 223 c 0,55,56
 598 229 598 229 532 229 c 2,57,-1
 495 229 l 2,58,59
 461 229 461 229 461 247 c 0,60,61
 461 276 461 276 492 276 c 0,62,63
 512 276 512 276 581 274.5 c 128,-1,64
 650 273 650 273 670 273 c 0,65,66
 681 273 681 273 703.5 273.5 c 128,-1,67
 726 274 726 274 737 274 c 0,68,69
 749 274 749 274 771.5 275 c 128,-1,70
 794 276 794 276 805 276 c 0,71,72
 826 276 826 276 826 258 c 0,73,74
 826 238 826 238 817 233.5 c 128,-1,75
 808 229 808 229 785 229 c 0,76,77
 759 229 759 229 747 227 c 0,78,79
 739 226 739 226 735 210 c 2,0,-1
EndSplineSet
EndChar

StartChar: H
Encoding: 72 72 7
Width: 982
VWidth: 1000
Flags: W
HStem: 2 45<43.4351 156.388 299 394.841 509.435 622.388 765 860.841> 333 47<382 696> 639.5 45.5<208.157 306 445 560.613 674.157 772 911 1026.61>
LayerCount: 2
Fore
SplineSet
911 635 m 1,0,-1
 765 49 l 1,1,2
 807 47 807 47 826 47 c 0,3,4
 843 47 843 47 849.5 46.5 c 128,-1,5
 856 46 856 46 861.5 42 c 128,-1,6
 867 38 867 38 867 29 c 0,7,8
 867 16 867 16 861 7 c 0,9,10
 856 0 856 0 838 0 c 0,11,12
 826 0 826 0 799.5 1 c 128,-1,13
 773 2 773 2 760 2 c 0,14,15
 748 2 748 2 722 2.5 c 128,-1,16
 696 3 696 3 683 3 c 128,-1,17
 670 3 670 3 645 2.5 c 128,-1,18
 620 2 620 2 607 2 c 128,-1,19
 594 2 594 2 569 1 c 128,-1,20
 544 0 544 0 531 0 c 0,21,22
 509 0 509 0 509 18 c 0,23,24
 509 38 509 38 521 45 c 0,25,26
 525 47 525 47 553 47 c 0,27,28
 589 47 589 47 606 48 c 0,29,30
 619 49 619 49 622.5 52 c 128,-1,31
 626 55 626 55 629 67 c 2,32,-1
 696 333 l 1,33,-1
 370 333 l 1,34,-1
 299 49 l 1,35,36
 341 47 341 47 360 47 c 0,37,38
 377 47 377 47 383.5 46.5 c 128,-1,39
 390 46 390 46 395.5 42 c 128,-1,40
 401 38 401 38 401 29 c 0,41,42
 401 16 401 16 395 7 c 0,43,44
 390 0 390 0 372 0 c 0,45,46
 360 0 360 0 333.5 1 c 128,-1,47
 307 2 307 2 294 2 c 0,48,49
 282 2 282 2 256 2.5 c 128,-1,50
 230 3 230 3 217 3 c 128,-1,51
 204 3 204 3 179 2.5 c 128,-1,52
 154 2 154 2 141 2 c 128,-1,53
 128 2 128 2 103 1 c 128,-1,54
 78 0 78 0 65 0 c 0,55,56
 43 0 43 0 43 18 c 0,57,58
 43 38 43 38 55 45 c 0,59,60
 59 47 59 47 87 47 c 0,61,62
 123 47 123 47 140 48 c 0,63,64
 153 49 153 49 156.5 52 c 128,-1,65
 160 55 160 55 163 67 c 2,66,-1
 306 637 l 1,67,68
 264 639 264 639 245 639 c 0,69,70
 227 639 227 639 220 639.5 c 128,-1,71
 213 640 213 640 208 644 c 128,-1,72
 203 648 203 648 203 657 c 0,73,74
 203 670 203 670 209 677 c 128,-1,75
 215 684 215 684 220 685 c 128,-1,76
 225 686 225 686 232 686 c 0,77,78
 245 686 245 686 271.5 685 c 128,-1,79
 298 684 298 684 311 684 c 0,80,81
 323 684 323 684 349 683.5 c 128,-1,82
 375 683 375 683 388 683 c 0,83,84
 400 683 400 683 425 683.5 c 128,-1,85
 450 684 450 684 463 684 c 128,-1,86
 476 684 476 684 501 685 c 128,-1,87
 526 686 526 686 539 686 c 0,88,89
 561 686 561 686 561 668 c 128,-1,90
 561 650 561 650 550 642 c 0,91,92
 546 639 546 639 513 639 c 0,93,94
 467 639 467 639 445 635 c 1,95,-1
 382 380 l 1,96,-1
 708 380 l 1,97,-1
 772 637 l 1,98,99
 730 639 730 639 711 639 c 0,100,101
 693 639 693 639 686 639.5 c 128,-1,102
 679 640 679 640 674 644 c 128,-1,103
 669 648 669 648 669 657 c 0,104,105
 669 670 669 670 675 677 c 128,-1,106
 681 684 681 684 686 685 c 128,-1,107
 691 686 691 686 698 686 c 0,108,109
 711 686 711 686 737.5 685 c 128,-1,110
 764 684 764 684 777 684 c 0,111,112
 789 684 789 684 815 683.5 c 128,-1,113
 841 683 841 683 854 683 c 0,114,115
 866 683 866 683 891 683.5 c 128,-1,116
 916 684 916 684 929 684 c 128,-1,117
 942 684 942 684 967 685 c 128,-1,118
 992 686 992 686 1005 686 c 0,119,120
 1027 686 1027 686 1027 668 c 128,-1,121
 1027 650 1027 650 1016 642 c 0,122,123
 1012 639 1012 639 979 639 c 0,124,125
 933 639 933 639 911 635 c 1,0,-1
EndSplineSet
EndChar

StartChar: I
Encoding: 73 73 8
Width: 511
VWidth: 1000
Flags: W
HStem: 2 45<44.1875 156.388 299 406.736> 639 46<198.302 306 447.612 556.809>
LayerCount: 2
Fore
SplineSet
441 618 m 2,0,-1
 299 49 l 1,1,2
 325 47 325 47 352 47 c 2,3,-1
 373 47 l 2,4,5
 407 47 407 47 407 29 c 0,6,7
 407 0 407 0 377 0 c 0,8,9
 365 0 365 0 339 1 c 128,-1,10
 313 2 313 2 300 2 c 0,11,12
 286 2 286 2 258.5 2.5 c 128,-1,13
 231 3 231 3 217 3 c 0,14,15
 204 3 204 3 177 2.5 c 128,-1,16
 150 2 150 2 136 2 c 0,17,18
 124 2 124 2 98 1 c 128,-1,19
 72 0 72 0 60 0 c 0,20,21
 38 0 38 0 38 18 c 0,22,23
 38 32 38 32 44 38.5 c 128,-1,24
 50 45 50 45 56 46 c 128,-1,25
 62 47 62 47 75 47 c 2,26,-1
 96 47 l 2,27,28
 127 47 127 47 139 49 c 1,29,30
 153 50 153 50 156.5 52.5 c 128,-1,31
 160 55 160 55 163 67 c 2,32,-1
 306 637 l 1,33,34
 266 639 266 639 253 639 c 2,35,-1
 232 639 l 2,36,37
 220 639 220 639 214.5 639.5 c 128,-1,38
 209 640 209 640 203.5 644.5 c 128,-1,39
 198 649 198 649 198 657 c 0,40,41
 198 670 198 670 203.5 677 c 128,-1,42
 209 684 209 684 214 685 c 128,-1,43
 219 686 219 686 227 686 c 0,44,45
 239 686 239 686 265.5 685 c 128,-1,46
 292 684 292 684 305 684 c 128,-1,47
 318 684 318 684 346 683.5 c 128,-1,48
 374 683 374 683 388 683 c 128,-1,49
 402 683 402 683 428.5 683.5 c 128,-1,50
 455 684 455 684 468 684 c 0,51,52
 480 684 480 684 506 685 c 128,-1,53
 532 686 532 686 544 686 c 0,54,55
 566 686 566 686 566 668 c 128,-1,56
 566 650 566 650 557 644 c 0,57,58
 551 639 551 639 530 639 c 2,59,-1
 509 639 l 2,60,61
 481 639 481 639 466 638 c 128,-1,62
 451 637 451 637 447.5 634 c 128,-1,63
 444 631 444 631 441 618 c 2,0,-1
EndSplineSet
EndChar

StartChar: J
Encoding: 74 74 9
Width: 631
VWidth: 1000
Flags: W
HStem: -17 36<143.143 275.2> 639 47<337.469 471 614.378 684.715>
VStem: 56 150<73.6484 155.701>
LayerCount: 2
Fore
SplineSet
602 620 m 2,0,-1
 483 146 l 2,1,2
 463 64 463 64 388.5 23.5 c 128,-1,3
 314 -17 314 -17 221 -17 c 0,4,5
 147 -17 147 -17 101.5 12 c 128,-1,6
 56 41 56 41 56 92 c 0,7,8
 56 136 56 136 83.5 161.5 c 128,-1,9
 111 187 111 187 145 187 c 0,10,11
 171 187 171 187 188.5 171 c 128,-1,12
 206 155 206 155 206 130 c 128,-1,13
 206 105 206 105 188 78.5 c 128,-1,14
 170 52 170 52 134 43 c 1,15,16
 165 19 165 19 216 19 c 0,17,18
 257 19 257 19 295 50 c 128,-1,19
 333 81 333 81 350 151 c 2,20,-1
 471 636 l 1,21,22
 447 639 447 639 406 639 c 2,23,-1
 371 639 l 2,24,25
 359 639 359 639 353.5 639.5 c 128,-1,26
 348 640 348 640 342.5 644.5 c 128,-1,27
 337 649 337 649 337 657 c 0,28,29
 337 686 337 686 367 686 c 0,30,31
 386 686 386 686 454 684.5 c 128,-1,32
 522 683 522 683 541 683 c 0,33,34
 553 683 553 683 576 683.5 c 128,-1,35
 599 684 599 684 610 684 c 128,-1,36
 621 684 621 684 642 685 c 128,-1,37
 663 686 663 686 673 686 c 0,38,39
 694 686 694 686 694 668 c 0,40,41
 694 648 694 648 685 643.5 c 128,-1,42
 676 639 676 639 652 639 c 0,43,44
 626 639 626 639 614 637 c 0,45,46
 606 636 606 636 602 620 c 2,0,-1
EndSplineSet
EndChar

StartChar: K
Encoding: 75 75 10
Width: 971
VWidth: 1000
Flags: W
HStem: 2 45<43.4351 156.388 299 394.81 545.191 623.372 786.256 858.763> 639.5 46.5<208.157 306 445 560.613 752.475 821.374 880.918 1002.66>
LayerCount: 2
Fore
SplineSet
589 420 m 1,0,-1
 771 67 l 2,1,2
 778 54 778 54 786 50.5 c 128,-1,3
 794 47 794 47 827 47 c 0,4,5
 859 47 859 47 859 29 c 0,6,7
 859 0 859 0 832 0 c 0,8,9
 823 0 823 0 802.5 1 c 128,-1,10
 782 2 782 2 772 2 c 128,-1,11
 762 2 762 2 740 2.5 c 128,-1,12
 718 3 718 3 708 3 c 0,13,14
 692 3 692 3 634 1.5 c 128,-1,15
 576 0 576 0 560 0 c 0,16,17
 539 0 539 0 539 18 c 0,18,19
 539 32 539 32 545 40 c 0,20,21
 551 47 551 47 570 47 c 0,22,23
 604 47 604 47 624 53 c 1,24,-1
 475 342 l 1,25,-1
 351 257 l 1,26,-1
 299 49 l 1,27,28
 341 47 341 47 360 47 c 0,29,30
 377 47 377 47 383.5 46.5 c 128,-1,31
 390 46 390 46 395.5 42 c 128,-1,32
 401 38 401 38 401 29 c 0,33,34
 401 16 401 16 395 7 c 1,35,36
 389 0 389 0 372 0 c 0,37,38
 360 0 360 0 333.5 1 c 128,-1,39
 307 2 307 2 294 2 c 0,40,41
 282 2 282 2 256 2.5 c 128,-1,42
 230 3 230 3 217 3 c 128,-1,43
 204 3 204 3 179 2.5 c 128,-1,44
 154 2 154 2 141 2 c 128,-1,45
 128 2 128 2 103 1 c 128,-1,46
 78 0 78 0 65 0 c 0,47,48
 43 0 43 0 43 18 c 0,49,50
 43 38 43 38 55 45 c 0,51,52
 59 47 59 47 87 47 c 0,53,54
 123 47 123 47 140 48 c 0,55,56
 153 49 153 49 156.5 52 c 128,-1,57
 160 55 160 55 163 67 c 2,58,-1
 306 637 l 1,59,60
 264 639 264 639 245 639 c 0,61,62
 227 639 227 639 220 639.5 c 128,-1,63
 213 640 213 640 208 644 c 128,-1,64
 203 648 203 648 203 657 c 0,65,66
 203 670 203 670 209 677 c 128,-1,67
 215 684 215 684 220 685 c 128,-1,68
 225 686 225 686 232 686 c 0,69,70
 245 686 245 686 271.5 685 c 128,-1,71
 298 684 298 684 311 684 c 0,72,73
 323 684 323 684 349 683.5 c 128,-1,74
 375 683 375 683 388 683 c 0,75,76
 400 683 400 683 425 683.5 c 128,-1,77
 450 684 450 684 463 684 c 128,-1,78
 476 684 476 684 501 685 c 128,-1,79
 526 686 526 686 539 686 c 0,80,81
 561 686 561 686 561 668 c 128,-1,82
 561 650 561 650 550 642 c 0,83,84
 546 639 546 639 513 639 c 0,85,86
 467 639 467 639 445 635 c 1,87,-1
 366 317 l 1,88,-1
 822 632 l 1,89,90
 802 639 802 639 776 639 c 0,91,92
 752 639 752 639 752 657 c 0,93,94
 752 686 752 686 780 686 c 0,95,96
 800 686 800 686 842 684.5 c 128,-1,97
 884 683 884 683 905 683 c 0,98,99
 918 683 918 683 945.5 684.5 c 128,-1,100
 973 686 973 686 985 686 c 0,101,102
 992 686 992 686 997.5 680.5 c 128,-1,103
 1003 675 1003 675 1003 668 c 0,104,105
 1003 655 1003 655 997.5 648.5 c 128,-1,106
 992 642 992 642 986.5 641 c 128,-1,107
 981 640 981 640 969 639 c 0,108,109
 918 637 918 637 874 614 c 0,110,111
 842 598 842 598 589 420 c 1,0,-1
EndSplineSet
EndChar

StartChar: L
Encoding: 76 76 11
Width: 755
VWidth: 1000
Flags: W
HStem: 0 47<43.4067 156.388 299 512.616> 639 46<208.157 306 441.001 579.232>
VStem: 656 51<199.604 269.872>
LayerCount: 2
Fore
SplineSet
441 618 m 2,0,-1
 299 48 l 1,1,2
 306 47 306 47 323 47 c 2,3,-1
 403 47 l 2,4,5
 444 47 444 47 478.5 56.5 c 128,-1,6
 513 66 513 66 538.5 84.5 c 128,-1,7
 564 103 564 103 582.5 121 c 128,-1,8
 601 139 601 139 616 166 c 128,-1,9
 631 193 631 193 638.5 209 c 128,-1,10
 646 225 646 225 656 249 c 1,11,12
 662 266 662 266 666.5 270 c 128,-1,13
 671 274 671 274 683 274 c 0,14,15
 707 274 707 274 707 256 c 0,16,17
 707 246 707 246 619 22 c 0,18,19
 613 6 613 6 608.5 3 c 128,-1,20
 604 0 604 0 583 0 c 2,21,-1
 77 0 l 2,22,23
 43 0 43 0 43 18 c 0,24,25
 43 38 43 38 55 45 c 0,26,27
 59 47 59 47 87 47 c 0,28,29
 123 47 123 47 140 48 c 0,30,31
 153 49 153 49 156.5 52 c 128,-1,32
 160 55 160 55 163 67 c 2,33,-1
 306 637 l 1,34,35
 264 639 264 639 245 639 c 0,36,37
 227 639 227 639 220 639.5 c 128,-1,38
 213 640 213 640 208 644 c 128,-1,39
 203 648 203 648 203 657 c 0,40,41
 203 670 203 670 209 677 c 128,-1,42
 215 684 215 684 220 685 c 128,-1,43
 225 686 225 686 232 686 c 0,44,45
 244 686 244 686 270 685 c 128,-1,46
 296 684 296 684 309 684 c 128,-1,47
 322 684 322 684 350 683.5 c 128,-1,48
 378 683 378 683 392 683 c 128,-1,49
 406 683 406 683 434 683.5 c 128,-1,50
 462 684 462 684 476 684 c 0,51,52
 491 684 491 684 521 685 c 128,-1,53
 551 686 551 686 565 686 c 0,54,55
 588 686 588 686 588 668 c 0,56,57
 588 648 588 648 579.5 643.5 c 128,-1,58
 571 639 571 639 552 639 c 2,59,-1
 519 639 l 2,60,61
 458 639 458 639 448 634 c 0,62,63
 445 633 445 633 441 618 c 2,0,-1
EndSplineSet
EndChar

StartChar: M
Encoding: 77 77 12
Width: 1142
VWidth: 1000
Flags: W
HStem: 0 47<52.1875 160.872 218.755 317.531 715.435 828.388 954 1048.84> 639.5 46.5<212.188 309 1100 1206.71>
LayerCount: 2
Fore
SplineSet
1100 635 m 1,0,-1
 954 49 l 1,1,2
 996 47 996 47 1015 47 c 0,3,4
 1032 47 1032 47 1039 46.5 c 128,-1,5
 1046 46 1046 46 1051 42 c 128,-1,6
 1056 38 1056 38 1056 29 c 0,7,8
 1056 14 1056 14 1049 7 c 1,9,10
 1044 0 1044 0 1028 0 c 0,11,12
 1017 0 1017 0 993 1 c 128,-1,13
 969 2 969 2 957 2 c 0,14,15
 944 2 944 2 918.5 2.5 c 128,-1,16
 893 3 893 3 880 3 c 0,17,18
 868 3 868 3 845 2.5 c 128,-1,19
 822 2 822 2 810 2 c 128,-1,20
 798 2 798 2 773.5 1 c 128,-1,21
 749 0 749 0 737 0 c 0,22,23
 715 0 715 0 715 18 c 0,24,25
 715 38 715 38 727 45 c 0,26,27
 731 47 731 47 759 47 c 0,28,29
 795 47 795 47 812 48 c 0,30,31
 825 49 825 49 828.5 52 c 128,-1,32
 832 55 832 55 835 67 c 2,33,-1
 977 637 l 1,34,-1
 976 638 l 1,35,-1
 544 23 l 2,36,37
 527 0 527 0 508 0 c 0,38,39
 498 0 498 0 492 5 c 128,-1,40
 486 10 486 10 484.5 15 c 128,-1,41
 483 20 483 20 481 30 c 2,42,-1
 360 624 l 1,43,-1
 359 624 l 1,44,-1
 218 57 l 1,45,46
 242 47 242 47 288 47 c 0,47,48
 318 47 318 47 318 29 c 0,49,50
 318 0 318 0 291 0 c 0,51,52
 278 0 278 0 234 1.5 c 128,-1,53
 190 3 190 3 177 3 c 0,54,55
 158 3 158 3 121 1.5 c 128,-1,56
 84 0 84 0 66 0 c 0,57,58
 56 0 56 0 51 6 c 128,-1,59
 46 12 46 12 46 18 c 0,60,61
 46 32 46 32 52 38.5 c 128,-1,62
 58 45 58 45 64 46 c 128,-1,63
 70 47 70 47 82 47 c 0,64,65
 115 47 115 47 139 53 c 0,66,67
 157 57 157 57 161 60.5 c 128,-1,68
 165 64 165 64 169 79 c 2,69,-1
 309 637 l 1,70,71
 267 639 267 639 248 639 c 0,72,73
 230 639 230 639 223 639.5 c 128,-1,74
 216 640 216 640 211 644 c 128,-1,75
 206 648 206 648 206 657 c 0,76,77
 206 671 206 671 212 677.5 c 128,-1,78
 218 684 218 684 224 685 c 128,-1,79
 230 686 230 686 243 686 c 2,80,-1
 431 686 l 2,81,82
 452 686 452 686 459.5 682 c 128,-1,83
 467 678 467 678 471 658 c 2,84,-1
 578 129 l 1,85,-1
 953 661 l 2,86,87
 964 678 964 678 972.5 682 c 128,-1,88
 981 686 981 686 1004 686 c 2,89,-1
 1182 686 l 2,90,91
 1194 686 1194 686 1199.5 685.5 c 128,-1,92
 1205 685 1205 685 1210.5 680.5 c 128,-1,93
 1216 676 1216 676 1216 668 c 0,94,95
 1216 648 1216 648 1207 643.5 c 128,-1,96
 1198 639 1198 639 1168 639 c 0,97,98
 1122 639 1122 639 1100 635 c 1,0,-1
EndSplineSet
EndChar

StartChar: N
Encoding: 78 78 13
Width: 950
VWidth: 1000
Flags: W
HStem: 0 47<49.1875 157.872 215.755 314.516> 639 47<209.188 304.989 755.484 855.245 912.613 1021.33>
LayerCount: 2
Fore
SplineSet
905 608 m 2,0,-1
 758 24 l 2,1,2
 754 8 754 8 750 4 c 128,-1,3
 746 0 746 0 730 0 c 0,4,5
 718 0 718 0 713 2.5 c 128,-1,6
 708 5 708 5 700 18 c 2,7,-1
 351 602 l 1,8,-1
 215 57 l 1,9,10
 239 47 239 47 284 47 c 0,11,12
 315 47 315 47 315 29 c 0,13,14
 315 0 315 0 288 0 c 0,15,16
 276 0 276 0 231 1.5 c 128,-1,17
 186 3 186 3 174 3 c 0,18,19
 155 3 155 3 118 1.5 c 128,-1,20
 81 0 81 0 63 0 c 0,21,22
 55 0 55 0 50 4 c 128,-1,23
 45 8 45 8 44 11.5 c 128,-1,24
 43 15 43 15 43 18 c 0,25,26
 43 32 43 32 49 38.5 c 128,-1,27
 55 45 55 45 61 46 c 128,-1,28
 67 47 67 47 79 47 c 0,29,30
 112 47 112 47 136 53 c 0,31,32
 154 57 154 57 158 60.5 c 128,-1,33
 162 64 162 64 166 79 c 2,34,-1
 302 620 l 2,35,36
 305 632 305 632 305 634 c 0,37,38
 305 639 305 639 261 639 c 2,39,-1
 237 639 l 2,40,41
 225 639 225 639 219.5 639.5 c 128,-1,42
 214 640 214 640 208.5 644.5 c 128,-1,43
 203 649 203 649 203 657 c 0,44,45
 203 671 203 671 209 677.5 c 128,-1,46
 215 684 215 684 221 685 c 128,-1,47
 227 686 227 686 240 686 c 2,48,-1
 429 686 l 2,49,50
 448 686 448 686 453.5 683.5 c 128,-1,51
 459 681 459 681 466 669 c 2,52,-1
 748 198 l 1,53,-1
 856 629 l 1,54,55
 832 639 832 639 786 639 c 0,56,57
 755 639 755 639 755 657 c 0,58,59
 755 686 755 686 782 686 c 0,60,61
 794 686 794 686 839 684.5 c 128,-1,62
 884 683 884 683 896 683 c 0,63,64
 915 683 915 683 952 684.5 c 128,-1,65
 989 686 989 686 1007 686 c 0,66,67
 1027 686 1027 686 1027 668 c 0,68,69
 1027 654 1027 654 1021.5 647.5 c 128,-1,70
 1016 641 1016 641 1010 640 c 128,-1,71
 1004 639 1004 639 992 639 c 0,72,73
 962 639 962 639 934 634 c 0,74,75
 916 630 916 630 912.5 626.5 c 128,-1,76
 909 623 909 623 905 608 c 2,0,-1
EndSplineSet
EndChar

StartChar: O
Encoding: 79 79 14
Width: 836
VWidth: 1000
Flags: W
HStem: -17 42<270.823 452.998> 663 40<415.976 598.912>
VStem: 53 141<123.385 353.111> 679 136<351.404 561.304>
LayerCount: 2
Fore
SplineSet
815 445 m 0,0,1
 815 366 815 366 784 285.5 c 128,-1,2
 753 205 753 205 696 137 c 128,-1,3
 639 69 639 69 547 26 c 128,-1,4
 455 -17 455 -17 345 -17 c 0,5,6
 213 -17 213 -17 133 47.5 c 128,-1,7
 53 112 53 112 53 238 c 0,8,9
 53 299 53 299 72 363 c 128,-1,10
 91 427 91 427 130.5 488 c 128,-1,11
 170 549 170 549 224.5 597 c 128,-1,12
 279 645 279 645 357 674 c 128,-1,13
 435 703 435 703 524 703 c 0,14,15
 657 703 657 703 736 636.5 c 128,-1,16
 815 570 815 570 815 445 c 0,0,1
355 25 m 0,17,18
 488 25 488 25 578 157 c 0,19,20
 622 221 622 221 650.5 326.5 c 128,-1,21
 679 432 679 432 679 491 c 0,22,23
 679 579 679 579 631.5 621 c 128,-1,24
 584 663 584 663 514 663 c 0,25,26
 392 663 392 663 306 558 c 1,27,28
 252 490 252 490 223 380 c 128,-1,29
 194 270 194 270 194 205 c 0,30,31
 194 115 194 115 238 71 c 0,32,33
 283 25 283 25 355 25 c 0,17,18
EndSplineSet
EndChar

StartChar: P
Encoding: 80 80 15
Width: 723
VWidth: 1000
Flags: W
HStem: 2 45<43.457 156.388 299 395.843> 302 41<366 614.508> 639 47<209.188 306 434.906 679.132>
VStem: 709 140<452.658 609.106>
LayerCount: 2
Fore
SplineSet
362 302 m 1,0,-1
 299 49 l 1,1,2
 341 47 341 47 360 47 c 0,3,4
 377 47 377 47 384 46.5 c 128,-1,5
 391 46 391 46 396 41.5 c 128,-1,6
 401 37 401 37 401 28 c 0,7,8
 401 0 401 0 372 0 c 0,9,10
 360 0 360 0 333.5 1 c 128,-1,11
 307 2 307 2 294 2 c 0,12,13
 282 2 282 2 256 2.5 c 128,-1,14
 230 3 230 3 217 3 c 128,-1,15
 204 3 204 3 179 2.5 c 128,-1,16
 154 2 154 2 141 2 c 128,-1,17
 128 2 128 2 103 1 c 128,-1,18
 78 0 78 0 65 0 c 0,19,20
 43 0 43 0 43 18 c 0,21,22
 43 38 43 38 56 44 c 1,23,24
 59 47 59 47 87 47 c 0,25,26
 123 47 123 47 140 48 c 0,27,28
 153 49 153 49 156.5 52 c 128,-1,29
 160 55 160 55 163 67 c 2,30,-1
 306 637 l 1,31,32
 264 639 264 639 245 639 c 0,33,34
 228 639 228 639 221 639.5 c 128,-1,35
 214 640 214 640 208.5 644 c 128,-1,36
 203 648 203 648 203 657 c 0,37,38
 203 671 203 671 209 677.5 c 128,-1,39
 215 684 215 684 221 685 c 128,-1,40
 227 686 227 686 240 686 c 2,41,-1
 625 686 l 2,42,43
 727 686 727 686 788 646.5 c 128,-1,44
 849 607 849 607 849 532 c 0,45,46
 849 440 849 440 761 371 c 128,-1,47
 673 302 673 302 539 302 c 2,48,-1
 362 302 l 1,0,-1
436 621 m 2,49,-1
 366 343 l 1,50,-1
 503 343 l 2,51,52
 616 343 616 343 659 398 c 0,53,54
 683 429 683 429 696 484 c 128,-1,55
 709 539 709 539 709 560 c 0,56,57
 709 639 709 639 578 639 c 2,58,-1
 474 639 l 2,59,60
 456 639 456 639 447 638 c 0,61,62
 440 637 440 637 436 621 c 2,49,-1
EndSplineSet
EndChar

StartChar: Q
Encoding: 81 81 16
Width: 868
VWidth: 1000
Flags: W
HStem: -194 147<531.897 614.226> -17 40<307.38 442.139> 119 36<329.795 426.225> 663 40<418.804 599.063>
VStem: 53 133<123.941 345.691> 267 36<43.1339 93.0999> 682 133<337.098 561.083> 686 36<-22.2808 12.843>
LayerCount: 2
Fore
SplineSet
444 -57 m 2,0,-1
 444 -7 l 1,1,2
 394 -17 394 -17 345 -17 c 0,3,4
 213 -17 213 -17 133 47.5 c 128,-1,5
 53 112 53 112 53 238 c 0,6,7
 53 299 53 299 72 363 c 128,-1,8
 91 427 91 427 130.5 488 c 128,-1,9
 170 549 170 549 224.5 597 c 128,-1,10
 279 645 279 645 357 674 c 128,-1,11
 435 703 435 703 524 703 c 0,12,13
 657 703 657 703 736 636.5 c 128,-1,14
 815 570 815 570 815 445 c 0,15,16
 815 397 815 397 800.5 340.5 c 128,-1,17
 786 284 786 284 754 220 c 128,-1,18
 722 156 722 156 658.5 99 c 128,-1,19
 595 42 595 42 510 11 c 1,20,21
 522 -16 522 -16 536 -29.5 c 128,-1,22
 550 -43 550 -43 559 -45 c 128,-1,23
 568 -47 568 -47 583 -47 c 0,24,25
 667 -47 667 -47 686 3 c 0,26,27
 692 18 692 18 704 18 c 0,28,29
 712 18 712 18 717 13 c 128,-1,30
 722 8 722 8 722 0 c 0,31,32
 722 -11 722 -11 710.5 -40 c 128,-1,33
 699 -69 699 -69 678.5 -104.5 c 128,-1,34
 658 -140 658 -140 621 -167 c 128,-1,35
 584 -194 584 -194 541 -194 c 0,36,37
 444 -194 444 -194 444 -57 c 2,0,-1
268 43 m 1,38,39
 267 47 267 47 267 56 c 0,40,41
 267 97 267 97 303 126 c 128,-1,42
 339 155 339 155 382 155 c 0,43,44
 424 155 424 155 448 131 c 128,-1,45
 472 107 472 107 490 63 c 1,46,47
 540 93 540 93 578.5 147.5 c 128,-1,48
 617 202 617 202 635.5 254.5 c 128,-1,49
 654 307 654 307 665.5 363.5 c 128,-1,50
 677 420 677 420 679.5 446.5 c 128,-1,51
 682 473 682 473 682 483 c 0,52,53
 682 575 682 575 634 619 c 128,-1,54
 586 663 586 663 514 663 c 0,55,56
 459 663 459 663 402 636 c 128,-1,57
 345 609 345 609 300 552 c 0,58,59
 243 478 243 478 214.5 370.5 c 128,-1,60
 186 263 186 263 186 201 c 0,61,62
 186 83 186 83 268 43 c 1,38,39
443 39 m 1,63,64
 442 88 442 88 425.5 103.5 c 128,-1,65
 409 119 409 119 383 119 c 0,66,67
 352 119 352 119 327.5 99.5 c 128,-1,68
 303 80 303 80 303 56 c 0,69,70
 303 23 303 23 355 23 c 0,71,72
 406 23 406 23 443 39 c 1,63,64
EndSplineSet
EndChar

StartChar: R
Encoding: 82 82 17
Width: 872
VWidth: 1000
Flags: W
HStem: -17 36<710.072 791.477> 0 47<43.4351 156.388 293 387.841> 325 36<371 551.512> 639.5 46.5<209.188 306 436.001 667.602>
VStem: 552 148<33.8411 199.852> 582 137<140.481 296.612> 702 142<459.769 604.712> 833 48<56.312 112.873>
LayerCount: 2
Fore
SplineSet
436 621 m 2,0,-1
 371 361 l 1,1,-1
 487 361 l 2,2,3
 601 361 601 361 646 406 c 0,4,5
 669 429 669 429 683 468.5 c 128,-1,6
 697 508 697 508 699.5 528 c 128,-1,7
 702 548 702 548 702 556 c 0,8,9
 702 576 702 576 695.5 591 c 128,-1,10
 689 606 689 606 673.5 614.5 c 128,-1,11
 658 623 658 623 644.5 628.5 c 128,-1,12
 631 634 631 634 605 636 c 128,-1,13
 579 638 579 638 563 638.5 c 128,-1,14
 547 639 547 639 517 639 c 0,15,16
 448 639 448 639 442 637 c 1,17,18
 440 635 440 635 436 621 c 2,0,-1
633 339 m 1,19,20
 719 307 719 307 719 231 c 0,21,22
 719 221 719 221 714 191 c 0,23,24
 700 105 700 105 700 80 c 0,25,26
 700 45 700 45 711.5 32 c 128,-1,27
 723 19 723 19 746 19 c 0,28,29
 773 19 773 19 798 42.5 c 128,-1,30
 823 66 823 66 833 97 c 0,31,32
 836 109 836 109 840.5 113 c 128,-1,33
 845 117 845 117 857 117 c 0,34,35
 881 117 881 117 881 99 c 0,36,37
 881 91 881 91 873 74 c 128,-1,38
 865 57 865 57 849.5 35.5 c 128,-1,39
 834 14 834 14 804.5 -1.5 c 128,-1,40
 775 -17 775 -17 738 -17 c 0,41,42
 718 -17 718 -17 698.5 -15.5 c 128,-1,43
 679 -14 679 -14 650.5 -7.5 c 128,-1,44
 622 -1 622 -1 602 10.5 c 128,-1,45
 582 22 582 22 567 43.5 c 128,-1,46
 552 65 552 65 552 95 c 0,47,48
 552 109 552 109 566 168 c 1,49,50
 582 225 582 225 582 243 c 0,51,52
 582 269 582 269 571 287 c 128,-1,53
 560 305 560 305 542.5 312.5 c 128,-1,54
 525 320 525 320 511.5 322.5 c 128,-1,55
 498 325 498 325 483 325 c 2,56,-1
 362 325 l 1,57,-1
 293 49 l 1,58,59
 335 47 335 47 354 47 c 0,60,61
 371 47 371 47 377.5 46.5 c 128,-1,62
 384 46 384 46 389.5 42 c 128,-1,63
 395 38 395 38 395 29 c 0,64,65
 395 14 395 14 388 7 c 1,66,67
 383 0 383 0 367 0 c 0,68,69
 350 0 350 0 290.5 1.5 c 128,-1,70
 231 3 231 3 214 3 c 0,71,72
 202 3 202 3 177.5 2.5 c 128,-1,73
 153 2 153 2 141 2 c 0,74,75
 128 2 128 2 103 1 c 128,-1,76
 78 0 78 0 65 0 c 0,77,78
 43 0 43 0 43 18 c 0,79,80
 43 38 43 38 55 45 c 0,81,82
 59 47 59 47 87 47 c 0,83,84
 123 47 123 47 140 48 c 0,85,86
 153 49 153 49 156.5 52 c 128,-1,87
 160 55 160 55 163 67 c 2,88,-1
 306 637 l 1,89,90
 264 639 264 639 245 639 c 0,91,92
 227 639 227 639 220 639.5 c 128,-1,93
 213 640 213 640 208 644 c 128,-1,94
 203 648 203 648 203 657 c 0,95,96
 203 671 203 671 209 677.5 c 128,-1,97
 215 684 215 684 221 685 c 128,-1,98
 227 686 227 686 240 686 c 2,99,-1
 587 686 l 2,100,101
 703 686 703 686 773.5 646 c 128,-1,102
 844 606 844 606 844 533 c 0,103,104
 844 511 844 511 835.5 487.5 c 128,-1,105
 827 464 827 464 806 435.5 c 128,-1,106
 785 407 785 407 740.5 381.5 c 128,-1,107
 696 356 696 356 633 339 c 1,19,20
EndSplineSet
EndChar

StartChar: S
Encoding: 83 83 18
Width: 692
VWidth: 1000
Flags: W
HStem: -17 47<230.959 442.533> 660 43<365.72 550.781>
VStem: 115 49<175.766 223.872> 184 108<424 550.04> 522 108<152.174 284> 613 49<461.612 508.075>
LayerCount: 2
Fore
SplineSet
710 668 m 2,0,-1
 662 480 l 2,1,2
 658 465 658 465 654.5 461.5 c 128,-1,3
 651 458 651 458 637 458 c 0,4,5
 613 458 613 458 613 473 c 0,6,7
 613 474 613 474 613.5 480 c 128,-1,8
 614 486 614 486 615 495 c 128,-1,9
 616 504 616 504 616 512 c 0,10,11
 616 591 616 591 571.5 625.5 c 128,-1,12
 527 660 527 660 457 660 c 0,13,14
 376 660 376 660 334 614.5 c 128,-1,15
 292 569 292 569 292 523 c 0,16,17
 292 494 292 494 311 472 c 128,-1,18
 330 450 330 450 363 443 c 2,19,-1
 441 425 l 2,20,21
 511 409 511 409 535.5 399.5 c 128,-1,22
 560 390 560 390 585 365 c 0,23,24
 630 320 630 320 630 248 c 0,25,26
 630 208 630 208 612.5 163.5 c 128,-1,27
 595 119 595 119 562.5 77.5 c 128,-1,28
 530 36 530 36 473.5 9.5 c 128,-1,29
 417 -17 417 -17 347 -17 c 0,30,31
 223 -17 223 -17 158 41 c 1,32,33
 151 36 151 36 137.5 24 c 128,-1,34
 124 12 124 12 113 3 c 128,-1,35
 102 -6 102 -6 101 -7 c 0,36,37
 89 -17 89 -17 81 -17 c 0,38,39
 64 -17 64 -17 64 -3 c 1,40,-1
 115 205 l 2,41,42
 119 220 119 220 123 224 c 128,-1,43
 127 228 127 228 141 228 c 0,44,45
 164 228 164 228 164 214 c 0,46,47
 164 213 164 213 163.5 209.5 c 128,-1,48
 163 206 163 206 163 204 c 0,49,50
 158 185 158 185 158 163 c 0,51,52
 158 95 158 95 215 60 c 1,53,54
 266 30 266 30 351 30 c 0,55,56
 397 30 397 30 432 47 c 128,-1,57
 467 64 467 64 485.5 89 c 128,-1,58
 504 114 504 114 513 138.5 c 128,-1,59
 522 163 522 163 522 183 c 0,60,61
 522 254 522 254 443 273 c 0,62,63
 393 284 393 284 365 291 c 0,64,65
 303 305 303 305 279.5 313.5 c 128,-1,66
 256 322 256 322 232 344 c 0,67,68
 184 390 184 390 184 458 c 0,69,70
 184 498 184 498 201.5 539.5 c 128,-1,71
 219 581 219 581 252 618.5 c 128,-1,72
 285 656 285 656 339.5 679.5 c 128,-1,73
 394 703 394 703 460 703 c 0,74,75
 562 703 562 703 619 645 c 1,76,-1
 674 691 l 2,77,78
 687 703 687 703 696 703 c 0,79,80
 714 703 714 703 714 688 c 0,81,82
 714 680 714 680 710 668 c 2,0,-1
EndSplineSet
EndChar

StartChar: T
Encoding: 84 84 19
Width: 636
VWidth: 1000
Flags: W
HStem: 2 45<53.375 214 353 499.728> 628 47<169.467 357 499.612 682.398>
VStem: 25 51<438.643 513.359>
LayerCount: 2
Fore
SplineSet
493 610 m 2,0,-1
 353 50 l 1,1,2
 377 47 377 47 425 47 c 2,3,-1
 466 47 l 2,4,5
 500 47 500 47 500 29 c 0,6,7
 500 0 500 0 469 0 c 0,8,9
 453 0 453 0 421 1 c 128,-1,10
 389 2 389 2 373 2 c 0,11,12
 356 2 356 2 322 2.5 c 128,-1,13
 288 3 288 3 271 3 c 128,-1,14
 254 3 254 3 221 2.5 c 128,-1,15
 188 2 188 2 172 2 c 128,-1,16
 156 2 156 2 124 1 c 128,-1,17
 92 0 92 0 77 0 c 0,18,19
 53 0 53 0 53 19 c 0,20,21
 53 32 53 32 59 38.5 c 128,-1,22
 65 45 65 45 71 46 c 128,-1,23
 77 47 77 47 89 47 c 2,24,-1
 131 47 l 2,25,26
 184 47 184 47 214 52 c 1,27,-1
 357 627 l 1,28,29
 337 628 337 628 305 628 c 0,30,31
 198 628 198 628 156.5 598 c 128,-1,32
 115 568 115 568 76 459 c 0,33,34
 70 443 70 443 65.5 438.5 c 128,-1,35
 61 434 61 434 49 434 c 0,36,37
 25 434 25 434 25 452 c 0,38,39
 25 453 25 453 28 461.5 c 2,40,-1
 31 470 l 1,41,-1
 95 655 l 2,42,43
 100 669 100 669 106 672 c 128,-1,44
 112 675 112 675 131 675 c 2,45,-1
 738 675 l 2,46,47
 751 675 751 675 756.5 674.5 c 128,-1,48
 762 674 762 674 767 669 c 128,-1,49
 772 664 772 664 772 655 c 1,50,-1
 744 462 l 2,51,52
 742 446 742 446 737 440 c 128,-1,53
 732 434 732 434 719 434 c 0,54,55
 695 434 695 434 695 453 c 0,56,57
 695 454 695 454 696 461 c 128,-1,58
 697 468 697 468 697 471 c 0,59,60
 704 513 704 513 704 539 c 0,61,62
 704 597 704 597 672.5 612.5 c 128,-1,63
 641 628 641 628 559 628 c 2,64,-1
 517 628 l 1,65,66
 503 627 503 627 499.5 624.5 c 128,-1,67
 496 622 496 622 493 610 c 2,0,-1
EndSplineSet
EndChar

StartChar: U
Encoding: 85 85 20
Width: 800
VWidth: 1000
Flags: W
HStem: -17 47<238.149 451.662> 635 48.5<310 376.568> 639 47<68.4307 169.986 310.693 425.656 605.484 705.245 762.613 871.328>
VStem: 63 132<87.4474 262.992>
LayerCount: 2
Fore
SplineSet
755 608 m 2,0,-1
 659 226 l 2,1,2
 632 119 632 119 544 51 c 128,-1,3
 456 -17 456 -17 326 -17 c 0,4,5
 208 -17 208 -17 135.5 33 c 128,-1,6
 63 83 63 83 63 178 c 0,7,8
 63 205 63 205 72 241 c 2,9,-1
 133 488 l 1,10,-1
 155 576 l 2,11,12
 170 633 170 633 170 634 c 0,13,14
 170 639 170 639 114 639 c 0,15,16
 86 639 86 639 77 641.5 c 128,-1,17
 68 644 68 644 68 657 c 128,-1,18
 68 670 68 670 74 677 c 128,-1,19
 80 684 80 684 84.5 685 c 128,-1,20
 89 686 89 686 97 686 c 0,21,22
 110 686 110 686 136.5 685 c 128,-1,23
 163 684 163 684 176 684 c 0,24,25
 188 684 188 684 214 683.5 c 128,-1,26
 240 683 240 683 253 683 c 128,-1,27
 266 683 266 683 291 683.5 c 128,-1,28
 316 684 316 684 328 684 c 128,-1,29
 340 684 340 684 366 685 c 128,-1,30
 392 686 392 686 404 686 c 0,31,32
 426 686 426 686 426 668 c 0,33,34
 426 648 426 648 417 643.5 c 128,-1,35
 408 639 408 639 378 639 c 0,36,37
 332 639 332 639 310 635 c 1,38,-1
 205 216 l 2,39,40
 195 174 195 174 195 141 c 0,41,42
 195 30 195 30 333 30 c 0,43,44
 430 30 430 30 505.5 81 c 128,-1,45
 581 132 581 132 607 235 c 2,46,-1
 706 629 l 1,47,48
 682 639 682 639 636 639 c 0,49,50
 605 639 605 639 605 657 c 0,51,52
 605 686 605 686 632 686 c 0,53,54
 644 686 644 686 689 684.5 c 128,-1,55
 734 683 734 683 746 683 c 0,56,57
 765 683 765 683 802 684.5 c 128,-1,58
 839 686 839 686 857 686 c 0,59,60
 877 686 877 686 877 668 c 0,61,62
 877 654 877 654 871.5 647.5 c 128,-1,63
 866 641 866 641 860 640 c 128,-1,64
 854 639 854 639 842 639 c 0,65,66
 812 639 812 639 784 634 c 0,67,68
 766 630 766 630 762.5 626.5 c 128,-1,69
 759 623 759 623 755 608 c 2,0,-1
EndSplineSet
EndChar

StartChar: V
Encoding: 86 86 21
Width: 677
VWidth: 1000
Flags: W
HStem: -17 21G<300 316> 639.5 46.5<71.6721 152.421 301.015 399.734 639.422 720.31 773.505 880.358>
LayerCount: 2
Fore
SplineSet
759 599 m 2,0,-1
 352 9 l 2,1,2
 341 -7 341 -7 333.5 -12 c 128,-1,3
 326 -17 326 -17 306 -17 c 0,4,5
 294 -17 294 -17 289 -16 c 128,-1,6
 284 -15 284 -15 278.5 -8.5 c 128,-1,7
 273 -2 273 -2 271 11 c 2,8,-1
 157 619 l 2,9,10
 155 632 155 632 152.5 634.5 c 128,-1,11
 150 637 150 637 142 638 c 0,12,13
 128 639 128 639 103 639 c 0,14,15
 90 639 90 639 83.5 639.5 c 128,-1,16
 77 640 77 640 71.5 644.5 c 128,-1,17
 66 649 66 649 66 657 c 0,18,19
 66 670 66 670 72 677 c 128,-1,20
 78 684 78 684 82.5 685 c 128,-1,21
 87 686 87 686 94 686 c 0,22,23
 104 686 104 686 126.5 685 c 128,-1,24
 149 684 149 684 160 684 c 0,25,26
 172 684 172 684 195 683.5 c 128,-1,27
 218 683 218 683 229 683 c 0,28,29
 241 683 241 683 265.5 683.5 c 128,-1,30
 290 684 290 684 302 684 c 128,-1,31
 314 684 314 684 340 685 c 128,-1,32
 366 686 366 686 378 686 c 0,33,34
 400 686 400 686 400 668 c 0,35,36
 400 648 400 648 391 643.5 c 128,-1,37
 382 639 382 639 362 639 c 0,38,39
 301 639 301 639 301 631 c 128,-1,40
 301 623 301 623 303 617 c 2,41,-1
 391 149 l 1,42,-1
 721 629 l 1,43,44
 699 639 699 639 665 639 c 0,45,46
 639 639 639 639 639 657 c 0,47,48
 639 686 639 686 666 686 c 0,49,50
 683 686 683 686 720.5 684.5 c 128,-1,51
 758 683 758 683 776 683 c 0,52,53
 791 683 791 683 822 684.5 c 128,-1,54
 853 686 853 686 867 686 c 0,55,56
 876 686 876 686 880.5 680 c 128,-1,57
 885 674 885 674 885 668 c 0,58,59
 885 639 885 639 855 639 c 0,60,61
 822 639 822 639 802.5 632.5 c 128,-1,62
 783 626 783 626 776 619.5 c 128,-1,63
 769 613 769 613 759 599 c 2,0,-1
EndSplineSet
EndChar

StartChar: W
Encoding: 87 87 22
Width: 1093
VWidth: 1000
Flags: W
HStem: -17 21G<247.5 269 667.5 684> 639 45.5<65.2373 146 289 382.808 484.29 565 708 801.232 962.237 1056.18 1101.48 1206.53>
LayerCount: 2
Fore
SplineSet
1090 601 m 2,0,-1
 717 9 l 2,1,2
 708 -6 708 -6 700 -11.5 c 128,-1,3
 692 -17 692 -17 676 -17 c 0,4,5
 659 -17 659 -17 653.5 -11 c 128,-1,6
 648 -5 648 -5 646 13 c 2,7,-1
 587 468 l 1,8,-1
 298 9 l 2,9,10
 282 -17 282 -17 256 -17 c 0,11,12
 239 -17 239 -17 234.5 -10.5 c 128,-1,13
 230 -4 230 -4 227 13 c 2,14,-1
 146 637 l 1,15,16
 120 639 120 639 98 639 c 0,17,18
 87 639 87 639 81.5 639.5 c 128,-1,19
 76 640 76 640 70.5 644.5 c 128,-1,20
 65 649 65 649 65 657 c 0,21,22
 65 686 65 686 92 686 c 2,23,-1
 96.5 686 l 2,24,25
 101 686 101 686 108 685.5 c 128,-1,26
 115 685 115 685 123.5 684.5 c 128,-1,27
 132 684 132 684 141 684 c 128,-1,28
 150 684 150 684 158 684 c 0,29,30
 168 684 168 684 190 683.5 c 128,-1,31
 212 683 212 683 222 683 c 0,32,33
 238 683 238 683 296 684.5 c 128,-1,34
 354 686 354 686 370 686 c 0,35,36
 391 686 391 686 391 668 c 0,37,38
 391 652 391 652 383 645 c 0,39,40
 377 639 377 639 354 639 c 0,41,42
 313 639 313 639 289 634 c 1,43,-1
 349 171 l 1,44,-1
 570 521 l 2,45,46
 578 532 578 532 578 537 c 2,47,-1
 565 637 l 1,48,49
 539 639 539 639 517 639 c 0,50,51
 484 639 484 639 484 657 c 0,52,53
 484 686 484 686 511 686 c 1,54,-1
 522 685.5 l 2,55,56
 533 685 533 685 549 684.5 c 128,-1,57
 565 684 565 684 578 684 c 0,58,59
 588 684 588 684 610 683.5 c 128,-1,60
 632 683 632 683 642 683 c 0,61,62
 658 683 658 683 715 684.5 c 128,-1,63
 772 686 772 686 789 686 c 0,64,65
 810 686 810 686 810 668 c 0,66,67
 810 648 810 648 801.5 643.5 c 128,-1,68
 793 639 793 639 773 639 c 0,69,70
 732 639 732 639 708 634 c 1,71,-1
 768 171 l 1,72,-1
 1057 628 l 1,73,74
 1031 639 1031 639 987 639 c 0,75,76
 962 639 962 639 962 657 c 0,77,78
 962 686 962 686 989 686 c 0,79,80
 1007 686 1007 686 1046 684.5 c 128,-1,81
 1085 683 1085 683 1104 683 c 0,82,83
 1118 683 1118 683 1147 684.5 c 128,-1,84
 1176 686 1176 686 1189 686 c 0,85,86
 1196 686 1196 686 1201.5 680.5 c 128,-1,87
 1207 675 1207 675 1207 668 c 0,88,89
 1207 639 1207 639 1177 639 c 0,90,91
 1148 639 1148 639 1129 632.5 c 128,-1,92
 1110 626 1110 626 1104 619.5 c 128,-1,93
 1098 613 1098 613 1090 601 c 2,0,-1
EndSplineSet
EndChar

StartChar: X
Encoding: 88 88 23
Width: 947
VWidth: 1000
Flags: W
HStem: 0 47<44.672 182.017 241.845 325.562 500.435 586.938 748.611 835.812> 639.5 46.5<219.157 306.905 468 554.737 666.335 749.847 811.482 952.512>
LayerCount: 2
Fore
SplineSet
582 395 m 1,0,-1
 740 64 l 2,1,2
 745 54 745 54 748.5 51.5 c 128,-1,3
 752 49 752 49 763 48 c 0,4,5
 778 47 778 47 802 47 c 0,6,7
 817 47 817 47 823.5 46.5 c 128,-1,8
 830 46 830 46 836 42 c 128,-1,9
 842 38 842 38 842 29 c 0,10,11
 842 0 842 0 814 0 c 0,12,13
 802 0 802 0 779 1 c 128,-1,14
 756 2 756 2 744 2 c 128,-1,15
 732 2 732 2 709 2.5 c 128,-1,16
 686 3 686 3 675 3 c 0,17,18
 658 3 658 3 598.5 1.5 c 128,-1,19
 539 0 539 0 522 0 c 0,20,21
 500 0 500 0 500 18 c 0,22,23
 500 31 500 31 506 38 c 128,-1,24
 512 45 512 45 516.5 46 c 128,-1,25
 521 47 521 47 529 47 c 0,26,27
 536 47 536 47 544 47.5 c 128,-1,28
 552 48 552 48 559.5 49 c 128,-1,29
 567 50 567 50 573 51 c 128,-1,30
 579 52 579 52 583 52.5 c 2,31,-1
 587 53 l 1,32,-1
 474 289 l 1,33,-1
 241 57 l 1,34,35
 268 47 268 47 300 47 c 0,36,37
 326 47 326 47 326 29 c 0,38,39
 326 0 326 0 298 0 c 0,40,41
 284 0 284 0 233 1.5 c 128,-1,42
 182 3 182 3 168 3 c 0,43,44
 156 3 156 3 113.5 1.5 c 128,-1,45
 71 0 71 0 59 0 c 0,46,47
 49 0 49 0 44 5.5 c 128,-1,48
 39 11 39 11 39 18 c 0,49,50
 39 32 39 32 44.5 38.5 c 128,-1,51
 50 45 50 45 56 46 c 128,-1,52
 62 47 62 47 74 47 c 0,53,54
 115 47 115 47 143 54.5 c 128,-1,55
 171 62 171 62 180 68 c 128,-1,56
 189 74 189 74 202 86 c 2,57,-1
 453 334 l 1,58,-1
 315 623 l 2,59,60
 310 632 310 632 307 634.5 c 128,-1,61
 304 637 304 637 294 638 c 0,62,63
 280 639 280 639 255 639 c 0,64,65
 238 639 238 639 231 639.5 c 128,-1,66
 224 640 224 640 219 644.5 c 128,-1,67
 214 649 214 649 214 658 c 0,68,69
 214 671 214 671 220 677.5 c 128,-1,70
 226 684 226 684 230.5 685 c 128,-1,71
 235 686 235 686 242 686 c 0,72,73
 254 686 254 686 277 685 c 128,-1,74
 300 684 300 684 312 684 c 128,-1,75
 324 684 324 684 347 683.5 c 128,-1,76
 370 683 370 683 381 683 c 0,77,78
 398 683 398 683 457 684.5 c 128,-1,79
 516 686 516 686 533 686 c 0,80,81
 555 686 555 686 555 667 c 0,82,83
 555 639 555 639 526 639 c 0,84,85
 498 639 498 639 468 633 c 1,86,-1
 560 440 l 1,87,-1
 751 629 l 1,88,89
 714 638 714 638 691 639 c 1,90,91
 666 639 666 639 666 658 c 0,92,93
 666 686 666 686 694 686 c 0,94,95
 708 686 708 686 759 684.5 c 128,-1,96
 810 683 810 683 824 683 c 0,97,98
 842 683 842 683 879 684.5 c 128,-1,99
 916 686 916 686 933 686 c 0,100,101
 953 686 953 686 953 668 c 0,102,103
 953 664 953 664 952 658.5 c 128,-1,104
 951 653 951 653 946 646 c 128,-1,105
 941 639 941 639 932 639 c 0,106,107
 859 638 859 638 834 629 c 128,-1,108
 809 620 809 620 776 588 c 1,109,-1
 714 525 l 1,110,-1
 582 395 l 1,0,-1
EndSplineSet
EndChar

StartChar: Y
Encoding: 89 89 24
Width: 674
VWidth: 1000
Flags: W
HStem: 0 47<123.435 237.388 373 470.328> 639 47<49.6721 136.905 300 381.232 627.422 698.343 753.462 870.358>
LayerCount: 2
Fore
SplineSet
734 600 m 2,0,-1
 429 274 l 1,1,-1
 373 49 l 1,2,3
 415 47 415 47 434 47 c 0,4,5
 451 47 451 47 458 46.5 c 128,-1,6
 465 46 465 46 470.5 42 c 128,-1,7
 476 38 476 38 476 29 c 0,8,9
 476 16 476 16 470 9 c 128,-1,10
 464 2 464 2 459 1 c 128,-1,11
 454 0 454 0 447 0 c 0,12,13
 430 0 430 0 370.5 1.5 c 128,-1,14
 311 3 311 3 294 3 c 0,15,16
 282 3 282 3 257.5 2.5 c 128,-1,17
 233 2 233 2 221 2 c 0,18,19
 208 2 208 2 183 1 c 128,-1,20
 158 0 158 0 145 0 c 0,21,22
 123 0 123 0 123 18 c 0,23,24
 123 35 123 35 133 43 c 0,25,26
 137 47 137 47 169 47 c 0,27,28
 204 47 204 47 221 49 c 0,29,30
 234 50 234 50 237.5 52.5 c 128,-1,31
 241 55 241 55 244 68 c 2,32,-1
 296 274 l 1,33,-1
 144 623 l 2,34,35
 140 632 140 632 137 634 c 128,-1,36
 134 636 134 636 124 638 c 1,37,38
 110 639 110 639 85 639 c 0,39,40
 68 639 68 639 61.5 639.5 c 128,-1,41
 55 640 55 640 49.5 644 c 128,-1,42
 44 648 44 648 44 657 c 0,43,44
 44 670 44 670 49.5 677 c 128,-1,45
 55 684 55 684 59.5 685 c 128,-1,46
 64 686 64 686 72 686 c 0,47,48
 83 686 83 686 107.5 685 c 128,-1,49
 132 684 132 684 144 684 c 0,50,51
 155 684 155 684 178 683.5 c 128,-1,52
 201 683 201 683 213 683 c 0,53,54
 230 683 230 683 290.5 684.5 c 128,-1,55
 351 686 351 686 368 686 c 0,56,57
 390 686 390 686 390 668 c 0,58,59
 390 649 390 649 381.5 644 c 128,-1,60
 373 639 373 639 356 639 c 0,61,62
 328 639 328 639 300 635 c 1,63,-1
 428 342 l 1,64,-1
 699 632 l 1,65,66
 678 639 678 639 654 639 c 0,67,68
 627 639 627 639 627 657 c 0,69,70
 627 686 627 686 654 686 c 0,71,72
 672 686 672 686 709 684.5 c 128,-1,73
 746 683 746 683 765 683 c 0,74,75
 780 683 780 683 811.5 684.5 c 128,-1,76
 843 686 843 686 857 686 c 0,77,78
 866 686 866 686 870.5 680 c 128,-1,79
 875 674 875 674 875 668 c 0,80,81
 875 655 875 655 869.5 648 c 128,-1,82
 864 641 864 641 859 640 c 128,-1,83
 854 639 854 639 846 639 c 0,84,85
 800 638 800 638 776.5 629 c 128,-1,86
 753 620 753 620 734 600 c 2,0,-1
EndSplineSet
EndChar

StartChar: Z
Encoding: 90 90 25
Width: 772
VWidth: 1000
Flags: W
HStem: 0 51<241 516.69> 445 21G<207.5 224.5> 639 47<371.979 635>
VStem: 665 46<230.682 283.996>
LayerCount: 2
Fore
SplineSet
790 638 m 2,0,-1
 241 51 l 1,1,-1
 385 51 l 2,2,3
 441 51 441 51 483.5 62.5 c 128,-1,4
 526 74 526 74 553.5 91.5 c 128,-1,5
 581 109 581 109 603 139.5 c 128,-1,6
 625 170 625 170 637.5 198.5 c 128,-1,7
 650 227 650 227 665 271 c 0,8,9
 670 284 670 284 688 284 c 0,10,11
 711 284 711 284 711 266 c 0,12,13
 711 263 711 263 708 252 c 2,14,-1
 634 23 l 2,15,16
 629 6 629 6 623.5 3 c 128,-1,17
 618 0 618 0 598 0 c 2,18,-1
 98 0 l 2,19,20
 80 0 80 0 74 2 c 128,-1,21
 68 4 68 4 68 14 c 0,22,23
 68 34 68 34 86 52 c 2,24,-1
 635 639 l 1,25,-1
 501 639 l 2,26,27
 397 639 397 639 337 598 c 128,-1,28
 277 557 277 557 243 462 c 0,29,30
 239 451 239 451 234.5 448 c 128,-1,31
 230 445 230 445 219 445 c 0,32,33
 196 445 196 445 196 463 c 0,34,35
 196 468 196 468 201 483 c 2,36,-1
 256 662 l 2,37,38
 261 679 261 679 266.5 682.5 c 128,-1,39
 272 686 272 686 293 686 c 2,40,-1
 776 686 l 2,41,42
 792 686 792 686 798.5 684 c 128,-1,43
 805 682 805 682 805 672 c 0,44,45
 805 655 805 655 790 638 c 2,0,-1
EndSplineSet
EndChar

StartChar: a
Encoding: 97 97 26
Width: 632
VWidth: 1000
Flags: W
HStem: -8 36<176.408 290.926 459.076 511.812> 416 36<268.574 383.918>
VStem: 45 113<65.1953 228.602> 412 119<344 393.658> 547 52<79.6602 156.962>
LayerCount: 2
Fore
SplineSet
515 317 m 1,0,-1
 492 228 l 2,1,2
 487 206 487 206 470 138 c 0,3,4
 456 82 456 82 456 65 c 0,5,6
 456 28 456 28 479 28 c 0,7,8
 522 28 522 28 547 128 c 0,9,10
 554 156 554 156 555 157 c 0,11,12
 560 162 560 162 575 162 c 0,13,14
 599 162 599 162 599 148 c 0,15,16
 599 144 599 144 595 129.5 c 128,-1,17
 591 115 591 115 581.5 91 c 128,-1,18
 572 67 572 67 561 49 c 0,19,20
 528 -8 528 -8 474 -8 c 0,21,22
 397 -8 397 -8 359 46 c 1,23,24
 301 -8 301 -8 220 -8 c 0,25,26
 148 -8 148 -8 96.5 32 c 128,-1,27
 45 72 45 72 45 157 c 0,28,29
 45 268 45 268 124.5 360 c 128,-1,30
 204 452 204 452 327 452 c 0,31,32
 394 452 394 452 433 410 c 1,33,34
 453 435 453 435 484 435 c 0,35,36
 502 435 502 435 516.5 424 c 128,-1,37
 531 413 531 413 531 391 c 0,38,39
 531 384 531 384 515 317 c 1,0,-1
349 93 m 1,40,-1
 410 344 l 1,41,-1
 412 358 l 2,42,43
 412 365 412 365 404 378 c 128,-1,44
 396 391 396 391 376 403.5 c 128,-1,45
 356 416 356 416 329 416 c 0,46,47
 250 416 250 416 208 318 c 0,48,49
 194 284 194 284 176 212 c 128,-1,50
 158 140 158 140 158 104 c 0,51,52
 158 28 158 28 225 28 c 0,53,54
 259 28 259 28 292 46.5 c 128,-1,55
 325 65 325 65 349 93 c 1,40,-1
EndSplineSet
EndChar

StartChar: b
Encoding: 98 98 27
Width: 520
VWidth: 1000
Flags: W
HStem: -8 36<173.462 279.091> 416 36<259.914 374.592> 637 56<127 163> 639 46<95.3296 162.59>
VStem: 52 100<61.9891 230.405> 393 113<214.472 378.805>
LayerCount: 2
Fore
SplineSet
281 659 m 2,0,-1
 222 420 l 1,1,2
 274 452 274 452 331 452 c 0,3,4
 403 452 403 452 454.5 412 c 128,-1,5
 506 372 506 372 506 287 c 0,6,7
 506 237 506 237 486.5 185.5 c 128,-1,8
 467 134 467 134 432.5 90.5 c 128,-1,9
 398 47 398 47 342.5 19.5 c 128,-1,10
 287 -8 287 -8 222 -8 c 0,11,12
 154 -8 154 -8 103 30 c 128,-1,13
 52 68 52 68 52 155 c 0,14,15
 52 190 52 190 66 246 c 2,16,-1
 135 522 l 2,17,18
 144 556 144 556 163 637 c 1,19,20
 150 639 150 639 121 639 c 0,21,22
 95 639 95 639 95 657 c 0,23,24
 95 670 95 670 101 677 c 128,-1,25
 107 684 107 684 112 685 c 128,-1,26
 117 686 117 686 127 687 c 2,27,-1
 256 693 l 2,28,29
 258 694 258 694 263 694 c 0,30,31
 285 694 285 694 285 676 c 0,32,33
 285 673 285 673 281 659 c 2,0,-1
224 28 m 0,34,35
 253 28 253 28 286.5 50 c 128,-1,36
 320 72 320 72 343 126 c 0,37,38
 357 160 357 160 375 232 c 128,-1,39
 393 304 393 304 393 340 c 0,40,41
 393 416 393 416 326 416 c 0,42,43
 285 416 285 416 246.5 390.5 c 128,-1,44
 208 365 208 365 203 348 c 1,45,46
 187 279 187 279 169 211 c 1,47,48
 152 136 152 136 152 111 c 0,49,50
 152 28 152 28 224 28 c 0,34,35
EndSplineSet
EndChar

StartChar: c
Encoding: 99 99 28
Width: 513
VWidth: 1000
Flags: W
HStem: -8 36<192.492 374.683> 416 36<286.509 427.783>
VStem: 46 115<77.9576 241.256> 377 122<305.721 377.395>
LayerCount: 2
Fore
SplineSet
431 396 m 1,0,1
 404 416 404 416 360 416 c 0,2,3
 268 416 268 416 217 330 c 0,4,5
 196 294 196 294 178.5 223 c 128,-1,6
 161 152 161 152 161 121 c 0,7,8
 161 28 161 28 260 28 c 0,9,10
 396 28 396 28 471 107 c 0,11,12
 481 118 481 118 486 118 c 0,13,14
 493 118 493 118 502 108 c 128,-1,15
 511 98 511 98 511 92 c 0,16,17
 511 81 511 81 482 56.5 c 128,-1,18
 453 32 453 32 413 16 c 0,19,20
 350 -8 350 -8 258 -8 c 0,21,22
 149 -8 149 -8 97.5 41 c 128,-1,23
 46 90 46 90 46 165 c 0,24,25
 46 273 46 273 132 362.5 c 128,-1,26
 218 452 218 452 359 452 c 0,27,28
 424 452 424 452 461.5 426 c 128,-1,29
 499 400 499 400 499 359 c 0,30,31
 499 328 499 328 478.5 305 c 128,-1,32
 458 282 458 282 427 282 c 0,33,34
 400 282 400 282 388.5 297 c 128,-1,35
 377 312 377 312 377 328 c 0,36,37
 377 334 377 334 378.5 343.5 c 128,-1,38
 380 353 380 353 393.5 371 c 128,-1,39
 407 389 407 389 431 396 c 1,0,1
EndSplineSet
EndChar

StartChar: d
Encoding: 100 100 29
Width: 609
VWidth: 1000
Flags: W
HStem: -8 36<176.408 290.926 459.076 511.812> 416 36<268.574 383.713> 637 56<446 482> 639 46<414.33 481.59>
VStem: 45 113<65.1953 228.602> 547 52<79.6602 156.962>
LayerCount: 2
Fore
SplineSet
600 659 m 2,0,-1
 462 108 l 2,1,2
 456 87 456 87 456 65 c 0,3,4
 456 28 456 28 479 28 c 0,5,6
 522 28 522 28 547 128 c 0,7,8
 554 156 554 156 555 157 c 0,9,10
 560 162 560 162 575 162 c 0,11,12
 599 162 599 162 599 148 c 0,13,14
 599 144 599 144 595 129.5 c 128,-1,15
 591 115 591 115 581.5 91 c 128,-1,16
 572 67 572 67 561 49 c 0,17,18
 528 -8 528 -8 474 -8 c 0,19,20
 397 -8 397 -8 359 46 c 1,21,22
 301 -8 301 -8 220 -8 c 0,23,24
 148 -8 148 -8 96.5 32 c 128,-1,25
 45 72 45 72 45 157 c 0,26,27
 45 268 45 268 124.5 360 c 128,-1,28
 204 452 204 452 327 452 c 0,29,30
 389 452 389 452 428 416 c 1,31,-1
 482 637 l 1,32,33
 469 639 469 639 440 639 c 0,34,35
 414 639 414 639 414 657 c 0,36,37
 414 670 414 670 420 677 c 128,-1,38
 426 684 426 684 431 685 c 128,-1,39
 436 686 436 686 446 687 c 2,40,-1
 575 693 l 2,41,42
 577 694 577 694 582 694 c 0,43,44
 604 694 604 694 604 676 c 0,45,46
 604 673 604 673 600 659 c 2,0,-1
349 93 m 1,47,-1
 410 344 l 1,48,-1
 412 358 l 2,49,50
 412 365 412 365 404 378 c 128,-1,51
 396 391 396 391 376 403.5 c 128,-1,52
 356 416 356 416 329 416 c 0,53,54
 250 416 250 416 208 318 c 0,55,56
 194 284 194 284 176 212 c 128,-1,57
 158 140 158 140 158 104 c 0,58,59
 158 28 158 28 225 28 c 0,60,61
 259 28 259 28 292 46.5 c 128,-1,62
 325 65 325 65 349 93 c 1,47,-1
EndSplineSet
EndChar

StartChar: e
Encoding: 101 101 30
Width: 553
VWidth: 1000
Flags: W
HStem: -8 36<195.446 374.824> 218 36<187 364.855> 416 36<284.808 413.352>
VStem: 49 114<78.9224 215.602> 435 60<299.825 400.366>
LayerCount: 2
Fore
SplineSet
222 218 m 2,0,-1
 178 218 l 1,1,2
 163 162 163 162 163 125 c 0,3,4
 163 28 163 28 261 28 c 0,5,6
 396 28 396 28 471 107 c 0,7,8
 481 118 481 118 486 118 c 0,9,10
 493 118 493 118 502 108 c 128,-1,11
 511 98 511 98 511 92 c 0,12,13
 511 81 511 81 482 56.5 c 128,-1,14
 453 32 453 32 413 16 c 0,15,16
 350 -8 350 -8 258 -8 c 0,17,18
 159 -8 159 -8 104 39 c 128,-1,19
 49 86 49 86 49 172 c 0,20,21
 49 290 49 290 136.5 371 c 128,-1,22
 224 452 224 452 358 452 c 0,23,24
 420 452 420 452 457.5 425.5 c 128,-1,25
 495 399 495 399 495 356 c 0,26,27
 495 272 495 272 396 238 c 0,28,29
 336 218 336 218 222 218 c 2,0,-1
187 254 m 1,30,31
 216 254 216 254 232 254 c 128,-1,32
 248 254 248 254 278 256 c 128,-1,33
 308 258 308 258 326 261.5 c 128,-1,34
 344 265 344 265 367 272.5 c 128,-1,35
 390 280 390 280 403 290.5 c 128,-1,36
 416 301 416 301 425.5 317.5 c 128,-1,37
 435 334 435 334 435 355 c 0,38,39
 435 386 435 386 412 401 c 128,-1,40
 389 416 389 416 358 416 c 0,41,42
 292 416 292 416 246 370 c 1,43,44
 206 333 206 333 187 254 c 1,30,31
EndSplineSet
EndChar

StartChar: f
Encoding: 102 102 31
Width: 568
VWidth: 1000
Flags: W
HStem: -202 36<139.798 204.862> 397 47<198.188 317 437 576.812> 666 36<481.414 546.18>
VStem: 62 121<-144.09 -69.1426> 505 121<569.143 644.612>
LayerCount: 2
Fore
SplineSet
429 397 m 1,0,-1
 375 95 l 2,1,2
 350 -48 350 -48 306 -115 c 0,3,4
 298 -128 298 -128 284 -144.5 c 128,-1,5
 270 -161 270 -161 237.5 -181.5 c 128,-1,6
 205 -202 205 -202 171 -202 c 0,7,8
 128 -202 128 -202 95 -181 c 128,-1,9
 62 -160 62 -160 62 -122 c 0,10,11
 62 -93 62 -93 83 -70.5 c 128,-1,12
 104 -48 104 -48 134 -48 c 0,13,14
 154 -48 154 -48 168.5 -60.5 c 128,-1,15
 183 -73 183 -73 183 -94 c 128,-1,16
 183 -115 183 -115 170.5 -133 c 128,-1,17
 158 -151 158 -151 139 -160 c 1,18,19
 153 -166 153 -166 173 -166 c 0,20,21
 203 -166 203 -166 223 -115 c 0,22,23
 225 -109 225 -109 229 -90 c 128,-1,24
 233 -71 233 -71 237 -51 c 128,-1,25
 241 -31 241 -31 241 -29 c 2,26,-1
 317 397 l 1,27,-1
 225 397 l 2,28,29
 192 397 192 397 192 415 c 0,30,31
 192 429 192 429 198 435.5 c 128,-1,32
 204 442 204 442 210 443 c 128,-1,33
 216 444 216 444 228 444 c 2,34,-1
 326 444 l 1,35,36
 338 513 338 513 342.5 535 c 128,-1,37
 347 557 347 557 355 583 c 128,-1,38
 363 609 363 609 374 627 c 0,39,40
 421 702 421 702 512 702 c 0,41,42
 560 702 560 702 593 680.5 c 128,-1,43
 626 659 626 659 626 622 c 0,44,45
 626 593 626 593 605 570.5 c 128,-1,46
 584 548 584 548 554 548 c 0,47,48
 534 548 534 548 519.5 560.5 c 128,-1,49
 505 573 505 573 505 594 c 0,50,51
 505 614 505 614 517 632 c 128,-1,52
 529 650 529 650 547 659 c 1,53,54
 530 666 530 666 512 666 c 0,55,56
 496 666 496 666 483 654 c 0,57,58
 473 645 473 645 470 625 c 2,59,-1
 437 444 l 1,60,-1
 549 444 l 2,61,62
 583 444 583 444 583 426 c 0,63,64
 583 412 583 412 577 405.5 c 128,-1,65
 571 399 571 399 565 398 c 128,-1,66
 559 397 559 397 546 397 c 2,67,-1
 429 397 l 1,0,-1
EndSplineSet
EndChar

StartChar: g
Encoding: 103 103 32
Width: 544
VWidth: 1000
Flags: W
HStem: -202 36<96.5343 239.476> -192 134<28.6887 95.7856> 0 36<182.069 296.723> 416 36<271.363 387.444>
VStem: 6 121<-154.783 -79.1437> 49 113<72.9985 232.326> 416 118<293.016 393.746>
LayerCount: 2
Fore
SplineSet
530 365 m 2,0,-1
 423 -61 l 2,1,2
 412 -104 412 -104 383.5 -133.5 c 128,-1,3
 355 -163 355 -163 315.5 -177 c 128,-1,4
 276 -191 276 -191 240 -196.5 c 128,-1,5
 204 -202 204 -202 165 -202 c 0,6,7
 132 -202 132 -202 109 -200 c 128,-1,8
 86 -198 86 -198 59.5 -192 c 128,-1,9
 33 -186 33 -186 19.5 -170.5 c 128,-1,10
 6 -155 6 -155 6 -132 c 0,11,12
 6 -99 6 -99 28 -78.5 c 128,-1,13
 50 -58 50 -58 77 -58 c 0,14,15
 100 -58 100 -58 113.5 -72 c 128,-1,16
 127 -86 127 -86 127 -104 c 0,17,18
 127 -140 127 -140 96 -162 c 1,19,20
 122 -166 122 -166 164 -166 c 0,21,22
 224 -166 224 -166 266 -131 c 0,23,24
 301 -103 301 -103 315 -44 c 1,25,26
 322 -19 322 -19 334 31 c 1,27,28
 283 0 283 0 224 0 c 0,29,30
 152 0 152 0 100.5 40.5 c 128,-1,31
 49 81 49 81 49 163 c 0,32,33
 49 231 49 231 81.5 296 c 128,-1,34
 114 361 114 361 180 406.5 c 128,-1,35
 246 452 246 452 330 452 c 0,36,37
 398 452 398 452 436 411 c 1,38,39
 457 435 457 435 487 435 c 0,40,41
 505 435 505 435 519.5 424 c 128,-1,42
 534 413 534 413 534 391 c 0,43,44
 534 381 534 381 530 365 c 2,0,-1
355 113 m 1,45,-1
 413 345 l 2,46,47
 416 356 416 356 416 360 c 0,48,49
 416 366 416 366 408.5 378 c 128,-1,50
 401 390 401 390 380.5 403 c 128,-1,51
 360 416 360 416 332 416 c 0,52,53
 251 416 251 416 210 316 c 0,54,55
 197 283 197 283 179.5 213.5 c 128,-1,56
 162 144 162 144 162 111 c 0,57,58
 162 73 162 73 180.5 54.5 c 128,-1,59
 199 36 199 36 230 36 c 0,60,61
 286 36 286 36 339 84 c 0,62,63
 349 94 349 94 355 113 c 1,45,-1
EndSplineSet
EndChar

StartChar: h
Encoding: 104 104 33
Width: 667
VWidth: 1000
Flags: W
HStem: -8 36<472.191 527.659> 416 36<321.443 431.195> 637 56<162 198> 639 46<130.33 197.59>
VStem: 365 102<28.2625 126.09> 442 107<249.062 408.043> 587 47<91.3701 161.971>
LayerCount: 2
Fore
SplineSet
316 659 m 2,0,-1
 249 390 l 1,1,2
 317 452 317 452 400 452 c 0,3,4
 464 452 464 452 506.5 425.5 c 128,-1,5
 549 399 549 399 549 336 c 0,6,7
 549 282 549 282 484 114 c 0,8,9
 467 69 467 69 467 49 c 0,10,11
 467 39 467 39 470 34 c 128,-1,12
 473 29 473 29 476 28.5 c 128,-1,13
 479 28 479 28 484 28 c 0,14,15
 493 28 493 28 503 32 c 128,-1,16
 513 36 513 36 529 46.5 c 128,-1,17
 545 57 545 57 560.5 83.5 c 128,-1,18
 576 110 576 110 587 149 c 0,19,20
 591 162 591 162 610 162 c 0,21,22
 634 162 634 162 634 148 c 0,23,24
 634 138 634 138 624 114.5 c 128,-1,25
 614 91 614 91 596 62.5 c 128,-1,26
 578 34 578 34 546.5 13 c 128,-1,27
 515 -8 515 -8 478 -8 c 0,28,29
 433 -8 433 -8 399 16.5 c 128,-1,30
 365 41 365 41 365 82 c 0,31,32
 365 99 365 99 379 133 c 0,33,34
 442 295 442 295 442 357 c 0,35,36
 442 416 442 416 392 416 c 0,37,38
 308 416 308 416 243 326 c 0,39,40
 229 307 229 307 223 285 c 2,41,-1
 163 48 l 2,42,43
 149 -8 149 -8 98 -8 c 0,44,45
 77 -8 77 -8 63.5 5 c 128,-1,46
 50 18 50 18 50 37 c 0,47,48
 50 44 50 44 54 60 c 2,49,-1
 198 637 l 1,50,51
 185 639 185 639 156 639 c 0,52,53
 130 639 130 639 130 657 c 0,54,55
 130 670 130 670 136 677 c 128,-1,56
 142 684 142 684 147 685 c 128,-1,57
 152 686 152 686 162 687 c 2,58,-1
 291 693 l 2,59,60
 293 694 293 694 298 694 c 0,61,62
 320 694 320 694 320 676 c 0,63,64
 320 673 320 673 316 659 c 2,0,-1
EndSplineSet
EndChar

StartChar: i
Encoding: 105 105 34
Width: 404
VWidth: 1000
Flags: W
HStem: -8 36<193.536 252.725> 416 36<138.275 197.464> 577 117<234.947 312.562>
VStem: 32 47<282.029 350.816> 90 103<28.2109 126.416> 198 103<317.584 415.789> 214 120<598.504 673.108> 312 47<93.1836 161.971>
LayerCount: 2
Fore
SplineSet
334 646 m 0,0,1
 334 620 334 620 312 598.5 c 128,-1,2
 290 577 290 577 263 577 c 0,3,4
 242 577 242 577 228 590.5 c 128,-1,5
 214 604 214 604 214 625 c 0,6,7
 214 651 214 651 235.5 672.5 c 128,-1,8
 257 694 257 694 285 694 c 0,9,10
 306 694 306 694 320 680 c 128,-1,11
 334 666 334 666 334 646 c 0,0,1
359 148 m 0,12,13
 359 132 359 132 343 97.5 c 128,-1,14
 327 63 327 63 289 27.5 c 128,-1,15
 251 -8 251 -8 204 -8 c 128,-1,16
 157 -8 157 -8 123.5 17.5 c 128,-1,17
 90 43 90 43 90 82 c 0,18,19
 90 95 90 95 98 116 c 2,20,-1
 165 289 l 2,21,22
 198 372 198 372 198 394 c 128,-1,23
 198 416 198 416 182 416 c 0,24,25
 168 416 168 416 152.5 408.5 c 128,-1,26
 137 401 137 401 115 372 c 128,-1,27
 93 343 93 343 79 295 c 0,28,29
 75 282 75 282 56 282 c 0,30,31
 32 282 32 282 32 296 c 0,32,33
 32 312 32 312 48 346.5 c 128,-1,34
 64 381 64 381 102 416.5 c 128,-1,35
 140 452 140 452 187 452 c 128,-1,36
 234 452 234 452 267.5 426.5 c 128,-1,37
 301 401 301 401 301 362 c 0,38,39
 301 349 301 349 293 328 c 2,40,-1
 226 155 l 2,41,42
 193 72 193 72 193 50 c 128,-1,43
 193 28 193 28 209 28 c 0,44,45
 223 28 223 28 238.5 35.5 c 128,-1,46
 254 43 254 43 276 72 c 128,-1,47
 298 101 298 101 312 149 c 0,48,49
 316 162 316 162 335 162 c 0,50,51
 359 162 359 162 359 148 c 0,12,13
EndSplineSet
EndChar

StartChar: j
Encoding: 106 106 35
Width: 470
VWidth: 1000
Flags: W
HStem: -202 36<72.4539 139.647> 416 36<228.332 302.994> 577 117<351.438 429.053>
VStem: -14 121<-154.372 -79.0042> 100 49<284.58 340.145> 306 107<272.297 412.039> 330 120<597.892 672.496>
LayerCount: 2
Fore
SplineSet
450 646 m 0,0,1
 450 620 450 620 428.5 598.5 c 128,-1,2
 407 577 407 577 379 577 c 0,3,4
 358 577 358 577 344 591 c 128,-1,5
 330 605 330 605 330 625 c 0,6,7
 330 651 330 651 352 672.5 c 128,-1,8
 374 694 374 694 401 694 c 0,9,10
 422 694 422 694 436 680 c 128,-1,11
 450 666 450 666 450 646 c 0,0,1
204 -46 m 2,12,-1
 300 336 l 2,13,14
 306 362 306 362 306 379 c 0,15,16
 306 416 306 416 282 416 c 0,17,18
 249 416 249 416 212 387 c 128,-1,19
 175 358 175 358 149 298 c 0,20,21
 144 287 144 287 140.5 284.5 c 128,-1,22
 137 282 137 282 124 282 c 0,23,24
 100 282 100 282 100 296 c 0,25,26
 100 304 100 304 113 328 c 128,-1,27
 126 352 126 352 148.5 380.5 c 128,-1,28
 171 409 171 409 208.5 430.5 c 128,-1,29
 246 452 246 452 287 452 c 0,30,31
 337 452 337 452 375 425.5 c 128,-1,32
 413 399 413 399 413 354 c 0,33,34
 413 338 413 338 408 320 c 2,35,-1
 316 -46 l 2,36,37
 305 -90 305 -90 277 -122.5 c 128,-1,38
 249 -155 249 -155 213.5 -171 c 128,-1,39
 178 -187 178 -187 146.5 -194.5 c 128,-1,40
 115 -202 115 -202 88 -202 c 0,41,42
 42 -202 42 -202 14 -182 c 128,-1,43
 -14 -162 -14 -162 -14 -131 c 128,-1,44
 -14 -100 -14 -100 8 -79 c 128,-1,45
 30 -58 30 -58 57 -58 c 0,46,47
 80 -58 80 -58 93.5 -72 c 128,-1,48
 107 -86 107 -86 107 -104 c 0,49,50
 107 -142 107 -142 72 -164 c 1,51,52
 78 -166 78 -166 88 -166 c 0,53,54
 127 -166 127 -166 159.5 -131 c 128,-1,55
 192 -96 192 -96 204 -46 c 2,12,-1
EndSplineSet
EndChar

StartChar: k
Encoding: 107 107 36
Width: 603
VWidth: 1000
Flags: W
HStem: -8 36<415.169 475.446> 416 36<429.256 513.616> 637 56<162 198> 639 46<130.33 197.59>
VStem: 305 107<34.0598 141.625> 311 112<95.3442 185.687> 521 49<84.3987 158.904 400.722 408>
LayerCount: 2
Fore
SplineSet
316 659 m 2,0,-1
 220 273 l 1,1,2
 270 301 270 301 316 351 c 1,3,4
 367 400 367 400 408 426 c 128,-1,5
 449 452 449 452 491 452 c 0,6,7
 524 452 524 452 545.5 430 c 128,-1,8
 567 408 567 408 567 370 c 0,9,10
 567 324 567 324 542.5 305 c 128,-1,11
 518 286 518 286 495 286 c 128,-1,12
 472 286 472 286 458.5 300 c 128,-1,13
 445 314 445 314 445 332 c 0,14,15
 445 355 445 355 462.5 377 c 128,-1,16
 480 399 480 399 514 404 c 0,17,18
 514 405 514 405 511.5 407.5 c 128,-1,19
 509 410 509 410 503 413 c 128,-1,20
 497 416 497 416 488 416 c 0,21,22
 428 416 428 416 339 328 c 1,23,24
 287 278 287 278 250 252 c 1,25,26
 284 249 284 249 308.5 244 c 128,-1,27
 333 239 333 239 362 228 c 128,-1,28
 391 217 391 217 407 195.5 c 128,-1,29
 423 174 423 174 423 144 c 0,30,31
 423 130 423 130 420 119 c 0,32,33
 412 88 412 88 412 67 c 0,34,35
 412 28 412 28 438 28 c 0,36,37
 490 28 490 28 521 142 c 0,38,39
 525 156 525 156 529 159 c 128,-1,40
 533 162 533 162 546 162 c 0,41,42
 570 162 570 162 570 148 c 0,43,44
 570 142 570 142 562 119.5 c 128,-1,45
 554 97 554 97 539.5 67.5 c 128,-1,46
 525 38 525 38 496 15 c 128,-1,47
 467 -8 467 -8 433 -8 c 0,48,49
 381 -8 381 -8 343 20 c 128,-1,50
 305 48 305 48 305 95 c 0,51,52
 305 106 305 106 308 119 c 0,53,54
 311 130 311 130 311 140 c 0,55,56
 311 161 311 161 298 176.5 c 128,-1,57
 285 192 285 192 264.5 200 c 128,-1,58
 244 208 244 208 230.5 211 c 128,-1,59
 217 214 217 214 205 215 c 1,60,61
 160 35 160 35 159 32 c 0,62,63
 141 -8 141 -8 98 -8 c 0,64,65
 77 -8 77 -8 63.5 5 c 128,-1,66
 50 18 50 18 50 37 c 0,67,68
 50 44 50 44 54 60 c 2,69,-1
 198 637 l 1,70,71
 185 639 185 639 156 639 c 0,72,73
 130 639 130 639 130 657 c 0,74,75
 130 670 130 670 136 677 c 128,-1,76
 142 684 142 684 147 685 c 128,-1,77
 152 686 152 686 162 687 c 2,78,-1
 291 693 l 2,79,80
 293 694 293 694 298 694 c 0,81,82
 320 694 320 694 320 676 c 0,83,84
 320 673 320 673 316 659 c 2,0,-1
EndSplineSet
EndChar

StartChar: l
Encoding: 108 108 37
Width: 348
VWidth: 1000
Flags: W
HStem: -8 36<142.492 196.054> 637 56<130 166> 639 46<98.3296 165.59>
VStem: 33 107<31.2295 170.18>
LayerCount: 2
Fore
SplineSet
284 659 m 2,0,-1
 146 108 l 2,1,2
 140 80 140 80 140 64 c 0,3,4
 140 28 140 28 163 28 c 0,5,6
 206 28 206 28 231 128 c 0,7,8
 238 156 238 156 239 157 c 0,9,10
 244 162 244 162 259 162 c 0,11,12
 283 162 283 162 283 148 c 0,13,14
 283 144 283 144 279 129 c 128,-1,15
 275 114 275 114 265.5 90.5 c 128,-1,16
 256 67 256 67 245 49 c 0,17,18
 210 -8 210 -8 158 -8 c 0,19,20
 109 -8 109 -8 71 18 c 128,-1,21
 33 44 33 44 33 90 c 0,22,23
 33 106 33 106 38 124 c 2,24,-1
 166 637 l 1,25,26
 153 639 153 639 124 639 c 0,27,28
 98 639 98 639 98 657 c 0,29,30
 98 670 98 670 104 677 c 128,-1,31
 110 684 110 684 115 685 c 128,-1,32
 120 686 120 686 130 687 c 2,33,-1
 259 693 l 2,34,35
 261 694 261 694 266 694 c 0,36,37
 288 694 288 694 288 676 c 0,38,39
 288 673 288 673 284 659 c 2,0,-1
EndSplineSet
EndChar

StartChar: m
Encoding: 109 109 38
Width: 1032
VWidth: 1000
Flags: W
HStem: -8 36<836.191 891.424> 416 36<119.9 172.799 367.144 476.188 687.257 795.195>
VStem: 414 110<5.92273 120.816> 729 102<28.2625 127.367> 806 107<250.841 408.043> 951 47<92.9805 161.971>
LayerCount: 2
Fore
SplineSet
431 110 m 2,0,-1
 476 290 l 2,1,2
 487 331 487 331 487 357 c 0,3,4
 487 416 487 416 437 416 c 0,5,6
 384 416 384 416 334 377 c 0,7,8
 312 359 312 359 292.5 332.5 c 128,-1,9
 273 306 273 306 272 299 c 0,10,11
 271 298 271 298 264 271 c 128,-1,12
 257 244 257 244 250 214.5 c 128,-1,13
 243 185 243 185 241 180 c 0,14,15
 227 120 227 120 213 68 c 0,16,17
 209 53 209 53 205.5 43 c 128,-1,18
 202 33 202 33 194.5 19.5 c 128,-1,19
 187 6 187 6 173.5 -1 c 128,-1,20
 160 -8 160 -8 142 -8 c 0,21,22
 120 -8 120 -8 107.5 5.5 c 128,-1,23
 95 19 95 19 95 36 c 0,24,25
 95 39 95 39 103 76 c 1,26,-1
 139 216 l 2,27,28
 144 238 144 238 161 306 c 0,29,30
 175 362 175 362 175 379 c 0,31,32
 175 416 175 416 152 416 c 0,33,34
 110 416 110 416 84 316 c 0,35,36
 77 288 77 288 76 287 c 0,37,38
 71 282 71 282 56 282 c 0,39,40
 32 282 32 282 32 296 c 0,41,42
 32 300 32 300 36 314.5 c 128,-1,43
 40 329 40 329 49.5 353 c 128,-1,44
 59 377 59 377 70 395 c 0,45,46
 105 452 105 452 157 452 c 0,47,48
 200 452 200 452 235 432 c 128,-1,49
 270 412 270 412 280 376 c 1,50,51
 351 452 351 452 445 452 c 0,52,53
 506 452 506 452 542 431 c 0,54,55
 580 410 580 410 590 366 c 1,56,57
 665 452 665 452 764 452 c 0,58,59
 828 452 828 452 870.5 425.5 c 128,-1,60
 913 399 913 399 913 336 c 0,61,62
 913 281 913 281 851 122 c 0,63,64
 831 72 831 72 831 49 c 0,65,66
 831 39 831 39 834 34 c 128,-1,67
 837 29 837 29 840 28.5 c 128,-1,68
 843 28 843 28 848 28 c 0,69,70
 857 28 857 28 867 32 c 128,-1,71
 877 36 877 36 892.5 46.5 c 128,-1,72
 908 57 908 57 923.5 83.5 c 128,-1,73
 939 110 939 110 951 149 c 0,74,75
 955 162 955 162 974 162 c 0,76,77
 998 162 998 162 998 148 c 0,78,79
 998 138 998 138 988 114.5 c 128,-1,80
 978 91 978 91 960 62.5 c 128,-1,81
 942 34 942 34 910.5 13 c 128,-1,82
 879 -8 879 -8 842 -8 c 0,83,84
 797 -8 797 -8 763 16.5 c 128,-1,85
 729 41 729 41 729 82 c 0,86,87
 729 99 729 99 743 133 c 1,88,89
 806 299 806 299 806 357 c 0,90,91
 806 416 806 416 756 416 c 0,92,93
 676 416 676 416 613 334 c 0,94,95
 591 304 591 304 587 286 c 0,96,97
 529 48 529 48 524 35 c 0,98,99
 505 -8 505 -8 461 -8 c 0,100,101
 439 -8 439 -8 426.5 5.5 c 128,-1,102
 414 19 414 19 414 36 c 0,103,104
 414 39 414 39 431 110 c 2,0,-1
EndSplineSet
EndChar

StartChar: n
Encoding: 110 110 39
Width: 712
VWidth: 1000
Flags: W
HStem: -8 36<517.191 572.424> 416 36<119.9 172.799 367.144 476.195>
VStem: 410 102<28.2625 127.367> 487 107<250.841 408.043> 632 47<92.9805 161.971>
LayerCount: 2
Fore
SplineSet
280 376 m 1,0,1
 351 452 351 452 445 452 c 0,2,3
 509 452 509 452 551.5 425.5 c 128,-1,4
 594 399 594 399 594 336 c 0,5,6
 594 281 594 281 532 122 c 0,7,8
 512 72 512 72 512 49 c 0,9,10
 512 39 512 39 515 34 c 128,-1,11
 518 29 518 29 521 28.5 c 128,-1,12
 524 28 524 28 529 28 c 0,13,14
 538 28 538 28 548 32 c 128,-1,15
 558 36 558 36 573.5 46.5 c 128,-1,16
 589 57 589 57 604.5 83.5 c 128,-1,17
 620 110 620 110 632 149 c 0,18,19
 636 162 636 162 655 162 c 0,20,21
 679 162 679 162 679 148 c 0,22,23
 679 138 679 138 669 114.5 c 128,-1,24
 659 91 659 91 641 62.5 c 128,-1,25
 623 34 623 34 591.5 13 c 128,-1,26
 560 -8 560 -8 523 -8 c 0,27,28
 478 -8 478 -8 444 16.5 c 128,-1,29
 410 41 410 41 410 82 c 0,30,31
 410 99 410 99 424 133 c 1,32,33
 487 299 487 299 487 357 c 0,34,35
 487 416 487 416 437 416 c 0,36,37
 384 416 384 416 334 377 c 0,38,39
 312 359 312 359 292.5 332.5 c 128,-1,40
 273 306 273 306 272 299 c 0,41,42
 271 298 271 298 264 271 c 128,-1,43
 257 244 257 244 250 214.5 c 128,-1,44
 243 185 243 185 241 180 c 0,45,46
 227 120 227 120 213 68 c 0,47,48
 209 53 209 53 205.5 43 c 128,-1,49
 202 33 202 33 194.5 19.5 c 128,-1,50
 187 6 187 6 173.5 -1 c 128,-1,51
 160 -8 160 -8 142 -8 c 0,52,53
 120 -8 120 -8 107.5 5.5 c 128,-1,54
 95 19 95 19 95 36 c 0,55,56
 95 39 95 39 103 76 c 1,57,-1
 139 216 l 2,58,59
 144 238 144 238 161 306 c 0,60,61
 175 362 175 362 175 379 c 0,62,63
 175 416 175 416 152 416 c 0,64,65
 110 416 110 416 84 316 c 0,66,67
 77 288 77 288 76 287 c 0,68,69
 71 282 71 282 56 282 c 0,70,71
 32 282 32 282 32 296 c 0,72,73
 32 300 32 300 36 314.5 c 128,-1,74
 40 329 40 329 49.5 353 c 128,-1,75
 59 377 59 377 70 395 c 0,76,77
 105 452 105 452 157 452 c 0,78,79
 200 452 200 452 235 432 c 128,-1,80
 270 412 270 412 280 376 c 1,0,1
EndSplineSet
EndChar

StartChar: o
Encoding: 111 111 40
Width: 584
VWidth: 1000
Flags: W
HStem: -8 36<193.88 327.618> 416 36<287.382 421.12>
VStem: 46 115<76.9021 240.495> 454 115<203.505 367.098>
LayerCount: 2
Fore
SplineSet
569 279 m 0,0,1
 569 230 569 230 548.5 180.5 c 128,-1,2
 528 131 528 131 490 88.5 c 128,-1,3
 452 46 452 46 390.5 19 c 128,-1,4
 329 -8 329 -8 254 -8 c 0,5,6
 156 -8 156 -8 101 38 c 128,-1,7
 46 84 46 84 46 165 c 0,8,9
 46 214 46 214 66.5 263.5 c 128,-1,10
 87 313 87 313 125 355.5 c 128,-1,11
 163 398 163 398 224.5 425 c 128,-1,12
 286 452 286 452 361 452 c 0,13,14
 459 452 459 452 514 406 c 128,-1,15
 569 360 569 360 569 279 c 0,0,1
256 28 m 128,-1,17
 295 28 295 28 333.5 49 c 128,-1,18
 372 70 372 70 398 115 c 0,19,20
 419 152 419 152 436.5 222.5 c 128,-1,21
 454 293 454 293 454 323 c 0,22,23
 454 374 454 374 426 395 c 128,-1,24
 398 416 398 416 359 416 c 128,-1,25
 320 416 320 416 281.5 395 c 128,-1,26
 243 374 243 374 217 329 c 0,27,28
 196 292 196 292 178.5 221.5 c 128,-1,29
 161 151 161 151 161 121 c 0,30,31
 161 70 161 70 189 49 c 128,-1,16
 217 28 217 28 256 28 c 128,-1,17
EndSplineSet
EndChar

StartChar: p
Encoding: 112 112 41
Width: 600
VWidth: 1000
Flags: W
HStem: -194 47<-14.6243 45.8091 160 228.594> -8 36<247.287 362.426> 416 36<119.188 171.924 340.074 454.592>
VStem: 32 52<287.038 364.34> 473 113<215.398 378.805>
LayerCount: 2
Fore
SplineSet
52 -129 m 2,0,-1
 169 336 l 2,1,2
 175 357 175 357 175 379 c 0,3,4
 175 416 175 416 152 416 c 0,5,6
 109 416 109 416 84 316 c 0,7,8
 77 288 77 288 76 287 c 0,9,10
 71 282 71 282 56 282 c 0,11,12
 32 282 32 282 32 296 c 0,13,14
 32 300 32 300 36 314.5 c 128,-1,15
 40 329 40 329 49.5 353 c 128,-1,16
 59 377 59 377 70 395 c 0,17,18
 103 452 103 452 157 452 c 0,19,20
 234 452 234 452 272 398 c 1,21,22
 330 452 330 452 411 452 c 0,23,24
 483 452 483 452 534.5 412 c 128,-1,25
 586 372 586 372 586 287 c 0,26,27
 586 176 586 176 506.5 84 c 128,-1,28
 427 -8 427 -8 304 -8 c 0,29,30
 242 -8 242 -8 203 28 c 1,31,-1
 160 -146 l 1,32,33
 173 -147 173 -147 203 -147 c 0,34,35
 229 -147 229 -147 229 -165 c 0,36,37
 229 -194 229 -194 203 -194 c 0,38,39
 186 -194 186 -194 150 -192.5 c 128,-1,40
 114 -191 114 -191 96 -191 c 0,41,42
 81 -191 81 -191 49.5 -192.5 c 128,-1,43
 18 -194 18 -194 4 -194 c 0,44,45
 -15 -194 -15 -194 -15 -175 c 0,46,47
 -15 -162 -15 -162 -9 -155.5 c 128,-1,48
 -3 -149 -3 -149 3 -148 c 128,-1,49
 9 -147 9 -147 20 -147 c 0,50,51
 40 -147 40 -147 46 -145 c 1,52,53
 48 -143 48 -143 52 -129 c 2,0,-1
282 351 m 1,54,-1
 221 100 l 1,55,-1
 219 86 l 2,56,57
 219 79 219 79 227 66 c 128,-1,58
 235 53 235 53 255 40.5 c 128,-1,59
 275 28 275 28 302 28 c 0,60,61
 381 28 381 28 423 126 c 0,62,63
 437 160 437 160 455 232 c 128,-1,64
 473 304 473 304 473 340 c 0,65,66
 473 416 473 416 406 416 c 0,67,68
 372 416 372 416 339 397.5 c 128,-1,69
 306 379 306 379 282 351 c 1,54,-1
EndSplineSet
EndChar

StartChar: q
Encoding: 113 113 42
Width: 542
VWidth: 1000
Flags: W
HStem: -194 47<213.161 278.652 399 467.594> -8 36<176.408 291.434> 416 36<268.574 383.671>
VStem: 45 113<65.1953 228.602>
LayerCount: 2
Fore
SplineSet
543 434 m 1,0,-1
 399 -146 l 1,1,2
 412 -147 412 -147 442 -147 c 0,3,4
 468 -147 468 -147 468 -165 c 0,5,6
 468 -194 468 -194 442 -194 c 0,7,8
 424 -194 424 -194 387 -192.5 c 128,-1,9
 350 -191 350 -191 331 -191 c 0,10,11
 313 -191 313 -191 277.5 -192.5 c 128,-1,12
 242 -194 242 -194 225 -194 c 0,13,14
 205 -194 205 -194 205 -176 c 0,15,16
 205 -163 205 -163 213 -153 c 0,17,18
 218 -147 218 -147 241 -147 c 0,19,20
 268 -147 268 -147 279 -145 c 0,21,22
 287 -144 287 -144 291 -128 c 2,23,-1
 329 24 l 1,24,25
 277 -8 277 -8 220 -8 c 0,26,27
 148 -8 148 -8 96.5 32 c 128,-1,28
 45 72 45 72 45 157 c 0,29,30
 45 268 45 268 124.5 360 c 128,-1,31
 204 452 204 452 327 452 c 0,32,33
 396 452 396 452 434 409 c 1,34,35
 448 422 448 422 471 432.5 c 128,-1,36
 494 443 494 443 508.5 447.5 c 128,-1,37
 523 452 523 452 525 452 c 0,38,39
 534 452 534 452 538.5 446 c 128,-1,40
 543 440 543 440 543 434 c 1,0,-1
350 107 m 2,41,-1
 410 344 l 2,42,43
 412 350 412 350 412 358 c 0,44,45
 412 365 412 365 404 378 c 128,-1,46
 396 391 396 391 376 403.5 c 128,-1,47
 356 416 356 416 329 416 c 0,48,49
 250 416 250 416 208 318 c 0,50,51
 194 284 194 284 176 212 c 128,-1,52
 158 140 158 140 158 104 c 0,53,54
 158 28 158 28 225 28 c 0,55,56
 284 28 284 28 334 78 c 0,57,58
 344 87 344 87 350 107 c 2,41,-1
EndSplineSet
EndChar

StartChar: r
Encoding: 114 114 43
Width: 528
VWidth: 1000
Flags: W
HStem: -8 21G<131 151.5> 416 36<118.946 172.748 339.905 443.771>
VStem: 383 122<308.175 381.298>
LayerCount: 2
Fore
SplineSet
444 402 m 1,0,1
 430 416 430 416 405 416 c 0,2,3
 341 416 341 416 295 358 c 0,4,5
 283 344 283 344 278 326 c 0,6,7
 277 322 277 322 243 185 c 128,-1,8
 209 48 209 48 208 45 c 0,9,10
 201 17 201 17 181 4.5 c 128,-1,11
 161 -8 161 -8 142 -8 c 0,12,13
 120 -8 120 -8 107.5 5.5 c 128,-1,14
 95 19 95 19 95 36 c 1,15,-1
 113 114 l 1,16,17
 124 155 124 155 133 196 c 0,18,19
 136 208 136 208 147 251.5 c 128,-1,20
 158 295 158 295 161 304 c 0,21,22
 175 364 175 364 175 380 c 0,23,24
 175 416 175 416 152 416 c 0,25,26
 109 416 109 416 84 316 c 0,27,28
 77 288 77 288 76 287 c 0,29,30
 71 282 71 282 56 282 c 0,31,32
 32 282 32 282 32 296 c 0,33,34
 32 300 32 300 36 315 c 128,-1,35
 40 330 40 330 49.5 353.5 c 128,-1,36
 59 377 59 377 70 395 c 0,37,38
 105 452 105 452 157 452 c 0,39,40
 190 452 190 452 224 437.5 c 128,-1,41
 258 423 258 423 274 392 c 1,42,43
 330 452 330 452 407 452 c 0,44,45
 452 452 452 452 478.5 426.5 c 128,-1,46
 505 401 505 401 505 365 c 128,-1,47
 505 329 505 329 483 307.5 c 128,-1,48
 461 286 461 286 433 286 c 0,49,50
 410 286 410 286 396.5 300 c 128,-1,51
 383 314 383 314 383 332 c 0,52,53
 383 341 383 341 386 352.5 c 128,-1,54
 389 364 389 364 404 380.5 c 128,-1,55
 419 397 419 397 444 402 c 1,0,1
EndSplineSet
EndChar

StartChar: s
Encoding: 115 115 44
Width: 531
VWidth: 1000
Flags: W
HStem: -8 36<136.977 323.907> 416 36<254.803 407.052>
VStem: 57 121<72.5669 146.825> 141 78<274.5 370.678> 372 104<314.051 381.871> 380 77<87.6008 161.25>
LayerCount: 2
Fore
SplineSet
414 394 m 1,0,1
 384 416 384 416 331 416 c 0,2,3
 300 416 300 416 277 408 c 128,-1,4
 254 400 254 400 243 390 c 128,-1,5
 232 380 232 380 226 366.5 c 128,-1,6
 220 353 220 353 219.5 348 c 128,-1,7
 219 343 219 343 219 339 c 0,8,9
 219 321 219 321 233 310.5 c 128,-1,10
 247 300 247 300 262.5 295.5 c 128,-1,11
 278 291 278 291 313 285 c 0,12,13
 385 273 385 273 417 245 c 0,14,15
 457 210 457 210 457 164 c 0,16,17
 457 160 457 160 456.5 154 c 128,-1,18
 456 148 456 148 451.5 130 c 128,-1,19
 447 112 447 112 439 95.5 c 128,-1,20
 431 79 431 79 414 59.5 c 128,-1,21
 397 40 397 40 374 25.5 c 128,-1,22
 351 11 351 11 313.5 1.5 c 128,-1,23
 276 -8 276 -8 229 -8 c 0,24,25
 150 -8 150 -8 103.5 17.5 c 128,-1,26
 57 43 57 43 57 91 c 0,27,28
 57 126 57 126 79 147.5 c 128,-1,29
 101 169 101 169 129 169 c 0,30,31
 148 169 148 169 163 158 c 128,-1,32
 178 147 178 147 178 123 c 0,33,34
 178 100 178 100 163 80.5 c 128,-1,35
 148 61 148 61 123 54 c 1,36,37
 159 28 159 28 231 28 c 0,38,39
 273 28 273 28 303.5 38 c 128,-1,40
 334 48 334 48 348 60 c 128,-1,41
 362 72 362 72 370 88 c 128,-1,42
 378 104 378 104 379 111 c 128,-1,43
 380 118 380 118 380 123 c 0,44,45
 380 169 380 169 290 184 c 1,46,47
 234 195 234 195 215.5 200.5 c 128,-1,48
 197 206 197 206 177 222 c 0,49,50
 141 251 141 251 141 298 c 0,51,52
 141 322 141 322 156.5 357 c 128,-1,53
 172 392 172 392 202 415 c 0,54,55
 251 452 251 452 333 452 c 0,56,57
 400 452 400 452 438 428 c 128,-1,58
 476 404 476 404 476 364 c 0,59,60
 476 331 476 331 456.5 313.5 c 128,-1,61
 437 296 437 296 415 296 c 0,62,63
 398 296 398 296 385 307 c 128,-1,64
 372 318 372 318 372 337 c 0,65,66
 372 351 372 351 382 368 c 128,-1,67
 392 385 392 385 414 394 c 1,0,1
EndSplineSet
EndChar

StartChar: t
Encoding: 116 116 45
Width: 415
VWidth: 1000
Flags: W
HStem: -8 36<174.727 250.668> 397 47<31.1875 140 264 367.84>
VStem: 66 107<31.0273 171.891> 195 105<528.656 631.654> 330 49<103.855 159.42>
LayerCount: 2
Fore
SplineSet
252 397 m 1,0,-1
 179 108 l 2,1,2
 173 82 173 82 173 65 c 0,3,4
 173 52 173 52 175 44 c 128,-1,5
 177 36 177 36 181.5 32.5 c 128,-1,6
 186 29 186 29 189 28.5 c 128,-1,7
 192 28 192 28 197 28 c 0,8,9
 230 28 230 28 267 57 c 128,-1,10
 304 86 304 86 330 146 c 0,11,12
 335 157 335 157 338.5 159.5 c 128,-1,13
 342 162 342 162 355 162 c 0,14,15
 379 162 379 162 379 148 c 0,16,17
 379 140 379 140 366 116 c 128,-1,18
 353 92 353 92 330.5 63.5 c 128,-1,19
 308 35 308 35 270.5 13.5 c 128,-1,20
 233 -8 233 -8 192 -8 c 0,21,22
 141 -8 141 -8 103.5 18 c 128,-1,23
 66 44 66 44 66 90 c 0,24,25
 66 106 66 106 83 169 c 1,26,-1
 140 397 l 1,27,-1
 59 397 l 2,28,29
 47 397 47 397 41.5 397.5 c 128,-1,30
 36 398 36 398 30.5 402.5 c 128,-1,31
 25 407 25 407 25 415 c 0,32,33
 25 429 25 429 31 435.5 c 128,-1,34
 37 442 37 442 43 443 c 128,-1,35
 49 444 49 444 62 444 c 2,36,-1
 152 444 l 1,37,-1
 172 526 l 2,38,39
 190 598 190 598 195 608 c 0,40,41
 215 643 215 643 253 643 c 0,42,43
 271 643 271 643 285.5 632 c 128,-1,44
 300 621 300 621 300 599 c 0,45,46
 300 589 300 589 296 573 c 2,47,-1
 264 444 l 1,48,-1
 344 444 l 2,49,50
 377 444 377 444 377 426 c 128,-1,51
 377 408 377 408 368 402 c 1,52,53
 363 397 363 397 341 397 c 2,54,-1
 252 397 l 1,0,-1
EndSplineSet
EndChar

StartChar: u
Encoding: 117 117 46
Width: 681
VWidth: 1000
Flags: W
HStem: -8 36<244.857 347.218 506.995 559.568> 416 36<138.576 193.809> 424 20G<526 546>
VStem: 32 47<282.029 351.02> 122 107<44.0425 207.122> 199 102<317.068 415.737>
LayerCount: 2
Fore
SplineSet
563 317 m 2,0,-1
 540 228 l 2,1,2
 535 206 535 206 518 138 c 0,3,4
 504 82 504 82 504 65 c 0,5,6
 504 28 504 28 527 28 c 0,7,8
 569 28 569 28 595 128 c 0,9,10
 602 156 602 156 603 157 c 0,11,12
 608 162 608 162 623 162 c 0,13,14
 647 162 647 162 647 148 c 0,15,16
 647 144 647 144 643 129.5 c 128,-1,17
 639 115 639 115 629.5 91 c 128,-1,18
 620 67 620 67 609 49 c 0,19,20
 576 -8 576 -8 522 -8 c 0,21,22
 444 -8 444 -8 408 47 c 1,23,24
 350 -8 350 -8 281 -8 c 0,25,26
 254 -8 254 -8 230.5 -3.5 c 128,-1,27
 207 1 207 1 180.5 13.5 c 128,-1,28
 154 26 154 26 138 54 c 128,-1,29
 122 82 122 82 122 122 c 0,30,31
 122 180 122 180 183 332 c 1,32,33
 199 380 199 380 199 395 c 0,34,35
 199 405 199 405 196 410 c 128,-1,36
 193 415 193 415 190 415.5 c 128,-1,37
 187 416 187 416 182 416 c 0,38,39
 173 416 173 416 163 412 c 128,-1,40
 153 408 153 408 137.5 397.5 c 128,-1,41
 122 387 122 387 106.5 360.5 c 128,-1,42
 91 334 91 334 79 295 c 0,43,44
 75 282 75 282 56 282 c 0,45,46
 32 282 32 282 32 296 c 0,47,48
 32 306 32 306 42 329.5 c 128,-1,49
 52 353 52 353 70 381.5 c 128,-1,50
 88 410 88 410 119.5 431 c 128,-1,51
 151 452 151 452 188 452 c 0,52,53
 233 452 233 452 267 427.5 c 128,-1,54
 301 403 301 403 301 362 c 0,55,56
 301 346 301 346 288 312 c 0,57,58
 229 160 229 160 229 101 c 0,59,60
 229 28 229 28 289 28 c 0,61,62
 348 28 348 28 397 93 c 1,63,64
 399 115 399 115 412 163 c 1,65,66
 458 351 458 351 469 391 c 0,67,68
 478 420 478 420 497.5 432 c 128,-1,69
 517 444 517 444 535 444 c 0,70,71
 557 444 557 444 569.5 430.5 c 128,-1,72
 582 417 582 417 582 400 c 0,73,74
 582 393 582 393 563 317 c 2,0,-1
EndSplineSet
EndChar

StartChar: v
Encoding: 118 118 47
Width: 566
VWidth: 1000
Flags: W
HStem: -8 36<250.543 357.181> 416 36<138.79 193.809>
VStem: 32 47<282.029 351.45> 123 107<47.2468 213.521> 199 102<317.689 415.737> 477 64<240.934 374.5>
LayerCount: 2
Fore
SplineSet
541 362 m 0,0,1
 541 325 541 325 526 267 c 128,-1,2
 511 209 511 209 483.5 145.5 c 128,-1,3
 456 82 456 82 406 37 c 128,-1,4
 356 -8 356 -8 296 -8 c 0,5,6
 123 -8 123 -8 123 126 c 0,7,8
 123 161 123 161 135.5 202.5 c 128,-1,9
 148 244 148 244 184 335 c 0,10,11
 199 375 199 375 199 395 c 0,12,13
 199 405 199 405 196 410 c 128,-1,14
 193 415 193 415 190 415.5 c 128,-1,15
 187 416 187 416 182 416 c 0,16,17
 173 416 173 416 162.5 412 c 128,-1,18
 152 408 152 408 136.5 396.5 c 128,-1,19
 121 385 121 385 105.5 359 c 128,-1,20
 90 333 90 333 79 295 c 0,21,22
 75 282 75 282 56 282 c 0,23,24
 32 282 32 282 32 296 c 0,25,26
 32 306 32 306 42 329.5 c 128,-1,27
 52 353 52 353 70 381.5 c 128,-1,28
 88 410 88 410 119.5 431 c 128,-1,29
 151 452 151 452 188 452 c 0,30,31
 233 452 233 452 267 427.5 c 128,-1,32
 301 403 301 403 301 362 c 0,33,34
 301 344 301 344 290 317 c 0,35,36
 230 167 230 167 230 106 c 0,37,38
 230 28 230 28 302 28 c 0,39,40
 342 28 342 28 378 62 c 128,-1,41
 414 96 414 96 434 141 c 128,-1,42
 454 186 454 186 465.5 221.5 c 128,-1,43
 477 257 477 257 477 269 c 0,44,45
 477 302 477 302 427 332 c 0,46,47
 397 349 397 349 397 377 c 0,48,49
 397 404 397 404 420.5 428.5 c 128,-1,50
 444 453 444 453 473 453 c 0,51,52
 476 453 476 453 480.5 452.5 c 128,-1,53
 485 452 485 452 497 447 c 128,-1,54
 509 442 509 442 517.5 433.5 c 128,-1,55
 526 425 526 425 533.5 406 c 128,-1,56
 541 387 541 387 541 362 c 0,0,1
EndSplineSet
EndChar

StartChar: w
Encoding: 119 119 48
Width: 831
VWidth: 1000
Flags: W
HStem: -8 36<255.035 361.141 522.597 627.733> 416 36<138.576 198.304> 424 20G<510 530>
VStem: 32 47<282.029 351.02> 123 108<52.4182 217.8> 199 102<315.812 415.993> 394 107<54.8228 222.702> 733 64<236.323 374.5>
LayerCount: 2
Fore
SplineSet
556 355 m 2,0,-1
 542 299 l 2,1,2
 534 267 534 267 517 198 c 0,3,4
 501 131 501 131 501 107 c 0,5,6
 501 28 501 28 574 28 c 0,7,8
 634 28 634 28 677 104 c 0,9,10
 698 141 698 141 715.5 197.5 c 128,-1,11
 733 254 733 254 733 269 c 0,12,13
 733 303 733 303 683 332 c 0,14,15
 653 349 653 349 653 377 c 0,16,17
 653 404 653 404 677 428.5 c 128,-1,18
 701 453 701 453 729 453 c 0,19,20
 732 453 732 453 736.5 452.5 c 128,-1,21
 741 452 741 452 753 447 c 128,-1,22
 765 442 765 442 773.5 433.5 c 128,-1,23
 782 425 782 425 789.5 406 c 128,-1,24
 797 387 797 387 797 362 c 0,25,26
 797 320 797 320 776 241 c 128,-1,27
 755 162 755 162 726 109 c 1,28,29
 665 -8 665 -8 567 -8 c 0,30,31
 461 -8 461 -8 417 48 c 1,32,33
 371 -8 371 -8 305 -8 c 0,34,35
 256 -8 256 -8 218.5 2 c 128,-1,36
 181 12 181 12 152 44 c 128,-1,37
 123 76 123 76 123 128 c 0,38,39
 123 182 123 182 177 316 c 0,40,41
 199 373 199 373 199 395 c 0,42,43
 199 416 199 416 182 416 c 0,44,45
 173 416 173 416 163 412 c 128,-1,46
 153 408 153 408 137.5 397.5 c 128,-1,47
 122 387 122 387 106.5 360.5 c 128,-1,48
 91 334 91 334 79 295 c 0,49,50
 75 282 75 282 56 282 c 0,51,52
 32 282 32 282 32 296 c 0,53,54
 32 306 32 306 42 329.5 c 128,-1,55
 52 353 52 353 70 381.5 c 128,-1,56
 88 410 88 410 119.5 431 c 128,-1,57
 151 452 151 452 188 452 c 0,58,59
 233 452 233 452 267 427.5 c 128,-1,60
 301 403 301 403 301 362 c 0,61,62
 301 346 301 346 283 301 c 0,63,64
 231 168 231 168 231 110 c 0,65,66
 231 28 231 28 312 28 c 0,67,68
 338 28 338 28 359 44 c 128,-1,69
 380 60 380 60 388.5 74.5 c 128,-1,70
 397 89 397 89 397 94 c 2,71,-1
 395.5 102 l 2,72,73
 394 110 394 110 394 126 c 0,74,75
 394 152 394 152 402 187 c 0,76,77
 430 304 430 304 453 391 c 1,78,79
 462 421 462 421 481.5 432.5 c 128,-1,80
 501 444 501 444 519 444 c 0,81,82
 541 444 541 444 553.5 431 c 128,-1,83
 566 418 566 418 566 400 c 0,84,85
 566 392 566 392 556 355 c 2,0,-1
EndSplineSet
EndChar

StartChar: x
Encoding: 120 120 49
Width: 659
VWidth: 1000
Flags: W
HStem: -8 36<106.874 198.445 355.388 462.615> 416 36<179.385 286.612 444.8 535.126>
VStem: 38 122<61.4062 135.825> 51 47<282.029 343.029> 482 122<308.175 382.594> 544 47<100.971 161.971>
LayerCount: 2
Fore
SplineSet
536 401 m 1,0,1
 516 416 516 416 488 416 c 0,2,3
 461 416 461 416 437.5 392 c 128,-1,4
 414 368 414 368 403 325 c 0,5,6
 400 316 400 316 385 257 c 128,-1,7
 370 198 370 198 368 189 c 0,8,9
 346 99 346 99 346 78 c 0,10,11
 346 28 346 28 402 28 c 0,12,13
 440 28 440 28 482 57.5 c 128,-1,14
 524 87 524 87 544 149 c 0,15,16
 548 162 548 162 567 162 c 0,17,18
 591 162 591 162 591 148 c 128,-1,19
 591 134 591 134 578 109.5 c 128,-1,20
 565 85 565 85 542 58 c 128,-1,21
 519 31 519 31 480 11.5 c 128,-1,22
 441 -8 441 -8 397 -8 c 0,23,24
 295 -8 295 -8 259 53 c 1,25,26
 215 -8 215 -8 152 -8 c 0,27,28
 105 -8 105 -8 71.5 16.5 c 128,-1,29
 38 41 38 41 38 80 c 0,30,31
 38 115 38 115 60 136.5 c 128,-1,32
 82 158 82 158 110 158 c 0,33,34
 133 158 133 158 146.5 144 c 128,-1,35
 160 130 160 130 160 112 c 0,36,37
 160 91 160 91 145.5 70.5 c 128,-1,38
 131 50 131 50 106 43 c 1,39,40
 126 28 126 28 154 28 c 0,41,42
 181 28 181 28 204.5 51.5 c 128,-1,43
 228 75 228 75 239 119 c 2,44,-1
 273 256 l 2,45,46
 296 348 296 348 296 366 c 0,47,48
 296 416 296 416 240 416 c 0,49,50
 202 416 202 416 160 386.5 c 128,-1,51
 118 357 118 357 98 295 c 0,52,53
 94 282 94 282 75 282 c 0,54,55
 51 282 51 282 51 296 c 128,-1,56
 51 310 51 310 64 334.5 c 128,-1,57
 77 359 77 359 100 386 c 128,-1,58
 123 413 123 413 162 432.5 c 128,-1,59
 201 452 201 452 245 452 c 0,60,61
 347 452 347 452 383 391 c 1,62,63
 427 452 427 452 490 452 c 0,64,65
 537 452 537 452 570.5 427.5 c 128,-1,66
 604 403 604 403 604 364 c 0,67,68
 604 329 604 329 582 307.5 c 128,-1,69
 560 286 560 286 532 286 c 0,70,71
 509 286 509 286 495.5 300 c 128,-1,72
 482 314 482 314 482 332 c 0,73,74
 482 353 482 353 496.5 373.5 c 128,-1,75
 511 394 511 394 536 401 c 1,0,1
EndSplineSet
EndChar

StartChar: y
Encoding: 121 121 50
Width: 590
VWidth: 1000
Flags: W
HStem: -202 36<144.75 267.29> -8 36<244.857 346.363> 416 36<138.576 193.809> 424 20G<526 546>
VStem: 32 47<282.029 351.914> 71 121<-135.751 -61.6899> 122 107<44.0425 208.235> 199 102<316.501 415.737>
LayerCount: 2
Fore
SplineSet
577 377 m 2,0,-1
 483 -1 l 2,1,2
 461 -90 461 -90 378.5 -146 c 128,-1,3
 296 -202 296 -202 205 -202 c 0,4,5
 145 -202 145 -202 108 -178 c 128,-1,6
 71 -154 71 -154 71 -115 c 0,7,8
 71 -83 71 -83 92.5 -61 c 128,-1,9
 114 -39 114 -39 143 -39 c 0,10,11
 162 -39 162 -39 177 -50 c 128,-1,12
 192 -61 192 -61 192 -85 c 0,13,14
 192 -132 192 -132 144 -152 c 1,15,16
 167 -166 167 -166 205 -166 c 0,17,18
 260 -166 260 -166 308.5 -116 c 128,-1,19
 357 -66 357 -66 377 22 c 1,20,21
 334 -8 334 -8 281 -8 c 0,22,23
 254 -8 254 -8 230.5 -3.5 c 128,-1,24
 207 1 207 1 180.5 13.5 c 128,-1,25
 154 26 154 26 138 54 c 128,-1,26
 122 82 122 82 122 122 c 0,27,28
 122 157 122 157 135.5 200.5 c 128,-1,29
 149 244 149 244 182 330 c 0,30,31
 199 375 199 375 199 395 c 0,32,33
 199 405 199 405 196 410 c 128,-1,34
 193 415 193 415 190 415.5 c 128,-1,35
 187 416 187 416 182 416 c 0,36,37
 174 416 174 416 163.5 412 c 128,-1,38
 153 408 153 408 137.5 397.5 c 128,-1,39
 122 387 122 387 106 360.5 c 128,-1,40
 90 334 90 334 79 295 c 0,41,42
 75 282 75 282 56 282 c 0,43,44
 32 282 32 282 32 296 c 0,45,46
 32 306 32 306 42 329.5 c 128,-1,47
 52 353 52 353 70 381.5 c 128,-1,48
 88 410 88 410 119.5 431 c 128,-1,49
 151 452 151 452 188 452 c 0,50,51
 233 452 233 452 267 427.5 c 128,-1,52
 301 403 301 403 301 362 c 0,53,54
 301 346 301 346 288 312 c 0,55,56
 229 160 229 160 229 101 c 0,57,58
 229 28 229 28 289 28 c 0,59,60
 319 28 319 28 357 52 c 0,61,62
 360 54 360 54 367.5 60 c 128,-1,63
 375 66 375 66 384.5 78 c 128,-1,64
 394 90 394 90 396 100 c 0,65,66
 403 127 403 127 438 266 c 2,67,-1
 464 370 l 2,68,69
 468 385 468 385 471 394 c 128,-1,70
 474 403 474 403 482 416.5 c 128,-1,71
 490 430 490 430 503.5 437 c 128,-1,72
 517 444 517 444 535 444 c 0,73,74
 557 444 557 444 569.5 431 c 128,-1,75
 582 418 582 418 582 400 c 0,76,77
 582 395 582 395 577 377 c 2,0,-1
EndSplineSet
EndChar

StartChar: z
Encoding: 122 122 51
Width: 555
VWidth: 1000
Flags: W
HStem: -8 113<270.166 419.911> 60 35<169.062 226.901> 342 110<192.941 333.479> 348 36<375.688 411>
LayerCount: 2
Fore
SplineSet
241 341 m 1,0,-1
 221 341 l 1,1,2
 185 339 185 339 170 331 c 1,3,4
 167 318 167 318 147 318 c 0,5,6
 123 318 123 318 123 332 c 0,7,8
 123 363 123 363 166 407.5 c 128,-1,9
 209 452 209 452 268 452 c 0,10,11
 306 452 306 452 354 416 c 1,12,13
 400 384 400 384 425 384 c 0,14,15
 442 384 442 384 457 398 c 128,-1,16
 472 412 472 412 492 442 c 0,17,18
 496 449 496 449 499.5 450.5 c 128,-1,19
 503 452 503 452 515 452 c 0,20,21
 538 452 538 452 538 438 c 0,22,23
 538 436 538 436 534.5 428.5 c 128,-1,24
 531 421 531 421 517 402 c 128,-1,25
 503 383 503 383 480.5 359 c 128,-1,26
 458 335 458 335 414.5 296.5 c 128,-1,27
 371 258 371 258 314 215 c 0,28,29
 215 140 215 140 168 95 c 1,30,31
 171 95 171 95 230.5 97.5 c 128,-1,32
 290 100 290 100 339 102.5 c 128,-1,33
 388 105 388 105 391 105 c 0,34,35
 422 109 422 109 441.5 119 c 128,-1,36
 461 129 461 129 465.5 136 c 128,-1,37
 470 143 470 143 477 157 c 1,38,39
 480 166 480 166 498 166 c 0,40,41
 522 166 522 166 522 152 c 0,42,43
 522 113 522 113 466.5 52.5 c 128,-1,44
 411 -8 411 -8 337 -8 c 0,45,46
 299 -8 299 -8 243 32 c 0,47,48
 205 60 205 60 178 60 c 0,49,50
 130 60 130 60 89 3 c 0,51,52
 84 -5 84 -5 80.5 -6.5 c 128,-1,53
 77 -8 77 -8 65 -8 c 0,54,55
 42 -8 42 -8 42 6 c 0,56,57
 42 8 42 8 45.5 15.5 c 128,-1,58
 49 23 49 23 63 42 c 128,-1,59
 77 61 77 61 99.5 85 c 128,-1,60
 122 109 122 109 165.5 147.5 c 128,-1,61
 209 186 209 186 266 229 c 0,62,63
 364 303 364 303 411 348 c 1,64,65
 393 348 393 348 282 342 c 0,66,67
 275 342 275 342 261.5 342 c 128,-1,68
 248 342 248 342 241 341 c 1,0,-1
EndSplineSet
EndChar

StartChar: Alpha
Encoding: 913 913 53
Width: 869
VWidth: 1000
Flags: W
HStem: 1.5 45.5<45.4351 162.203 213.691 296.763 502.188 598 743.58 828.328> 198 47<336 568>
LayerCount: 2
Fore
SplineSet
645 682 m 2,0,-1
 739 67 l 2,1,2
 741 54 741 54 743.5 51.5 c 128,-1,3
 746 49 746 49 755 48 c 0,4,5
 769 47 769 47 794 47 c 0,6,7
 810 47 810 47 816.5 46.5 c 128,-1,8
 823 46 823 46 828.5 42 c 128,-1,9
 834 38 834 38 834 29 c 0,10,11
 834 16 834 16 828 9 c 128,-1,12
 822 2 822 2 817.5 1 c 128,-1,13
 813 0 813 0 806 0 c 0,14,15
 794 0 794 0 771 1 c 128,-1,16
 748 2 748 2 736 2 c 128,-1,17
 724 2 724 2 701 2.5 c 128,-1,18
 678 3 678 3 667 3 c 0,19,20
 650 3 650 3 592 1.5 c 128,-1,21
 534 0 534 0 518 0 c 0,22,23
 496 0 496 0 496 18 c 0,24,25
 496 32 496 32 502 38.5 c 128,-1,26
 508 45 508 45 514 46 c 128,-1,27
 520 47 520 47 533 47 c 0,28,29
 574 47 574 47 598 52 c 1,30,-1
 575 198 l 1,31,-1
 305 198 l 1,32,-1
 213 58 l 1,33,34
 235 47 235 47 271 47 c 0,35,36
 297 47 297 47 297 29 c 0,37,38
 297 0 297 0 270 0 c 0,39,40
 252 0 252 0 215 1.5 c 128,-1,41
 178 3 178 3 159 3 c 0,42,43
 143 3 143 3 111 1.5 c 128,-1,44
 79 0 79 0 64 0 c 0,45,46
 56 0 56 0 50.5 5.5 c 128,-1,47
 45 11 45 11 45 18 c 0,48,49
 45 31 45 31 51 38 c 128,-1,50
 57 45 57 45 62 46 c 128,-1,51
 67 47 67 47 77 47 c 0,52,53
 111 47 111 47 132 53.5 c 128,-1,54
 153 60 153 60 159.5 66.5 c 128,-1,55
 166 73 166 73 174 85 c 2,56,-1
 567 686 l 2,57,58
 577 702 577 702 585.5 706.5 c 128,-1,59
 594 711 594 711 611 711 c 0,60,61
 630 711 630 711 636 706 c 128,-1,62
 642 701 642 701 645 682 c 2,0,-1
524 533 m 1,63,-1
 336 245 l 1,64,-1
 568 245 l 1,65,-1
 524 533 l 1,63,-1
EndSplineSet
EndChar

StartChar: Beta
Encoding: 914 914 54
Width: 866
VWidth: 1000
Flags: W
HStem: 0 47<43.4067 156.388 288 568.748> 339 36<369 613.008> 639 47<209.188 306 430.031 692.332>
VStem: 665 139<146.262 292.771> 719 135<472.852 614.472>
LayerCount: 2
Fore
SplineSet
163 67 m 2,0,-1
 306 637 l 1,1,2
 264 639 264 639 245 639 c 0,3,4
 227 639 227 639 220 639.5 c 128,-1,5
 213 640 213 640 208 644 c 128,-1,6
 203 648 203 648 203 657 c 0,7,8
 203 671 203 671 209 677.5 c 128,-1,9
 215 684 215 684 221 685 c 128,-1,10
 227 686 227 686 240 686 c 2,11,-1
 641 686 l 2,12,13
 744 686 744 686 799 648 c 128,-1,14
 854 610 854 610 854 547 c 0,15,16
 854 488 854 488 800.5 433 c 128,-1,17
 747 378 747 378 637 358 c 1,18,19
 711 352 711 352 757.5 317 c 128,-1,20
 804 282 804 282 804 221 c 0,21,22
 804 186 804 186 785.5 148.5 c 128,-1,23
 767 111 767 111 731.5 77 c 128,-1,24
 696 43 696 43 635.5 21.5 c 128,-1,25
 575 0 575 0 501 0 c 2,26,-1
 77 0 l 2,27,28
 43 0 43 0 43 18 c 0,29,30
 43 38 43 38 55 45 c 0,31,32
 59 47 59 47 87 47 c 0,33,34
 123 47 123 47 140 48 c 0,35,36
 153 49 153 49 156.5 52 c 128,-1,37
 160 55 160 55 163 67 c 2,0,-1
431 621 m 2,38,-1
 369 375 l 1,39,-1
 527 375 l 2,40,41
 575 375 575 375 614 392.5 c 128,-1,42
 653 410 653 410 674.5 437.5 c 128,-1,43
 696 465 696 465 707.5 494.5 c 128,-1,44
 719 524 719 524 719 552 c 0,45,46
 719 639 719 639 618 639 c 2,47,-1
 469 639 l 2,48,49
 451 639 451 639 442 638 c 0,50,51
 435 637 435 637 431 621 c 2,38,-1
312 47 m 2,52,-1
 472 47 l 2,53,54
 522 47 522 47 561.5 65.5 c 128,-1,55
 601 84 601 84 622.5 113.5 c 128,-1,56
 644 143 644 143 654.5 174.5 c 128,-1,57
 665 206 665 206 665 237 c 0,58,59
 665 339 665 339 555 339 c 2,60,-1
 360 339 l 1,61,-1
 288 48 l 1,62,63
 295 47 295 47 312 47 c 2,52,-1
EndSplineSet
EndChar

StartChar: Gamma
Encoding: 915 915 55
Width: 656
VWidth: 1000
Flags: W
HStem: 2 45<43.4351 156.388 299 420.841> 633.5 46.5<207.672 304 444.481 683.021>
VStem: 710 45.5<439.024 522.684>
LayerCount: 2
Fore
SplineSet
444 631 m 1,0,-1
 299 51 l 1,1,2
 319 47 319 47 362 47 c 2,3,-1
 395 47 l 2,4,5
 428 47 428 47 428 29 c 0,6,7
 428 14 428 14 421 7 c 1,8,9
 416 0 416 0 398 0 c 0,10,11
 384 0 384 0 355.5 1 c 128,-1,12
 327 2 327 2 312 2 c 128,-1,13
 297 2 297 2 267 2.5 c 128,-1,14
 237 3 237 3 222 3 c 0,15,16
 208 3 208 3 181 2.5 c 128,-1,17
 154 2 154 2 141 2 c 128,-1,18
 128 2 128 2 103 1 c 128,-1,19
 78 0 78 0 65 0 c 0,20,21
 43 0 43 0 43 18 c 0,22,23
 43 38 43 38 55 45 c 0,24,25
 59 47 59 47 87 47 c 0,26,27
 123 47 123 47 140 48 c 0,28,29
 153 49 153 49 156.5 52 c 128,-1,30
 160 55 160 55 163 67 c 2,31,-1
 304 631 l 1,32,33
 262 633 262 633 243 633 c 0,34,35
 226 633 226 633 219.5 633.5 c 128,-1,36
 213 634 213 634 207.5 638 c 128,-1,37
 202 642 202 642 202 651 c 0,38,39
 202 669 202 669 211 675 c 1,40,41
 216 680 216 680 238 680 c 2,42,-1
 744 680 l 2,43,44
 777 680 777 680 777 662 c 1,45,-1
 776 646 l 1,46,-1
 758 467 l 2,47,48
 757 456 757 456 755.5 451.5 c 128,-1,49
 754 447 754 447 749 443 c 128,-1,50
 744 439 744 439 734 439 c 0,51,52
 710 439 710 439 710 458 c 0,53,54
 710 467 710 467 712.5 490 c 128,-1,55
 715 513 715 513 715 523 c 0,56,57
 715 555 715 555 706 576.5 c 128,-1,58
 697 598 697 598 685 609.5 c 128,-1,59
 673 621 673 621 644 626 c 128,-1,60
 615 631 615 631 594 632 c 128,-1,61
 573 633 573 633 526 633 c 0,62,63
 459 633 459 633 444 631 c 1,0,-1
EndSplineSet
EndChar

StartChar: Delta
Encoding: 916 916 56
Width: 958
VWidth: 1000
Flags: W
HStem: 0 118<205 713>
LayerCount: 2
Fore
SplineSet
696 681 m 2,0,-1
 900 30 l 2,1,2
 900 29 900 29 901.5 25.5 c 128,-1,3
 903 22 903 22 903.5 19.5 c 128,-1,4
 904 17 904 17 904 15 c 0,5,6
 904 0 904 0 872 0 c 2,7,-1
 85 0 l 2,8,9
 77 0 77 0 73.5 0 c 128,-1,10
 70 0 70 0 66 1 c 128,-1,11
 62 2 62 2 61 4 c 128,-1,12
 60 6 60 6 60 9 c 0,13,14
 60 14 60 14 69 25 c 2,15,-1
 608 688 l 2,16,17
 619 702 619 702 627.5 706.5 c 128,-1,18
 636 711 636 711 656 711 c 0,19,20
 678 711 678 711 684 705.5 c 128,-1,21
 690 700 690 700 696 681 c 2,0,-1
571 569 m 1,22,-1
 205 118 l 1,23,-1
 713 118 l 1,24,-1
 571 569 l 1,22,-1
EndSplineSet
EndChar

StartChar: Epsilon
Encoding: 917 917 57
Width: 810
VWidth: 1000
Flags: W
HStem: 0 47<43.4067 156.388 299 589.445> 329 47<381 499.462> 633 47<207.672 304 444.408 722.994>
VStem: 508 43.5<212.018 240> 734 53<203.38 269.871> 758 45.5<439.024 513.716>
LayerCount: 2
Fore
SplineSet
781 238 m 2,0,-1
 685 21 l 2,1,2
 679 6 679 6 673 3 c 128,-1,3
 667 0 667 0 648 0 c 2,4,-1
 77 0 l 2,5,6
 43 0 43 0 43 18 c 0,7,8
 43 38 43 38 55 45 c 0,9,10
 59 47 59 47 87 47 c 0,11,12
 123 47 123 47 140 48 c 0,13,14
 153 49 153 49 156.5 52 c 128,-1,15
 160 55 160 55 163 67 c 2,16,-1
 304 631 l 1,17,18
 262 633 262 633 243 633 c 0,19,20
 226 633 226 633 219.5 633.5 c 128,-1,21
 213 634 213 634 207.5 638 c 128,-1,22
 202 642 202 642 202 651 c 0,23,24
 202 669 202 669 211 675 c 0,25,26
 217 680 217 680 238 680 c 2,27,-1
 792 680 l 2,28,29
 825 680 825 680 825 662 c 1,30,-1
 824 646 l 1,31,-1
 806 467 l 2,32,33
 805 456 805 456 803.5 451.5 c 128,-1,34
 802 447 802 447 797 443 c 128,-1,35
 792 439 792 439 782 439 c 0,36,37
 758 439 758 439 758 458 c 0,38,39
 758 466 758 466 760 485.5 c 128,-1,40
 762 505 762 505 762 514 c 0,41,42
 762 583 762 583 727.5 608 c 128,-1,43
 693 633 693 633 609 633 c 2,44,-1
 478 633 l 2,45,46
 457 633 457 633 444 631 c 1,47,-1
 381 376 l 1,48,-1
 441 376 l 2,49,50
 499 376 499 376 525 394 c 128,-1,51
 551 412 551 412 566 467 c 0,52,53
 570 483 570 483 574.5 488 c 128,-1,54
 579 493 579 493 592 493 c 0,55,56
 616 493 616 493 616 475 c 0,57,58
 616 472 616 472 612 459 c 2,59,-1
 556 236 l 2,60,61
 553 225 553 225 551.5 221.5 c 128,-1,62
 550 218 550 218 545 215 c 128,-1,63
 540 212 540 212 531 212 c 0,64,65
 508 212 508 212 508 230 c 1,66,-1
 509 240 l 1,67,68
 517 264 517 264 517 286 c 0,69,70
 517 311 517 311 500 320 c 128,-1,71
 483 329 483 329 438 329 c 2,72,-1
 369 329 l 1,73,-1
 299 48 l 1,74,75
 306 47 306 47 323 47 c 2,76,-1
 453 47 l 2,77,78
 572 47 572 47 628.5 91.5 c 128,-1,79
 685 136 685 136 734 245 c 0,80,81
 743 266 743 266 747 270 c 128,-1,82
 751 274 751 274 763 274 c 0,83,84
 787 274 787 274 787 256 c 0,85,86
 787 251 787 251 781 238 c 2,0,-1
EndSplineSet
EndChar

StartChar: Zeta
Encoding: 918 918 58
Width: 772
VWidth: 1000
Flags: W
HStem: 0 51<241 516.69> 445 21G<207.5 224.5> 639 47<371.979 635>
VStem: 665 46<230.682 283.996>
LayerCount: 2
Fore
SplineSet
790 638 m 2,0,-1
 241 51 l 1,1,-1
 385 51 l 2,2,3
 441 51 441 51 483.5 62.5 c 128,-1,4
 526 74 526 74 553.5 91.5 c 128,-1,5
 581 109 581 109 603 139.5 c 128,-1,6
 625 170 625 170 637.5 198.5 c 128,-1,7
 650 227 650 227 665 271 c 0,8,9
 670 284 670 284 688 284 c 0,10,11
 711 284 711 284 711 266 c 0,12,13
 711 263 711 263 708 252 c 2,14,-1
 634 23 l 2,15,16
 629 6 629 6 623.5 3 c 128,-1,17
 618 0 618 0 598 0 c 2,18,-1
 98 0 l 2,19,20
 80 0 80 0 74 2 c 128,-1,21
 68 4 68 4 68 14 c 0,22,23
 68 34 68 34 86 52 c 2,24,-1
 635 639 l 1,25,-1
 501 639 l 2,26,27
 397 639 397 639 337 598 c 128,-1,28
 277 557 277 557 243 462 c 0,29,30
 239 451 239 451 234.5 448 c 128,-1,31
 230 445 230 445 219 445 c 0,32,33
 196 445 196 445 196 463 c 0,34,35
 196 468 196 468 201 483 c 2,36,-1
 256 662 l 2,37,38
 261 679 261 679 266.5 682.5 c 128,-1,39
 272 686 272 686 293 686 c 2,40,-1
 776 686 l 2,41,42
 792 686 792 686 798.5 684 c 128,-1,43
 805 682 805 682 805 672 c 0,44,45
 805 655 805 655 790 638 c 2,0,-1
EndSplineSet
EndChar

StartChar: Eta
Encoding: 919 919 59
Width: 982
VWidth: 1000
Flags: W
HStem: 2 45<43.4351 156.388 299 394.841 509.435 622.388 765 860.841> 333 47<382 696> 639.5 45.5<208.157 306 445 560.613 674.157 772 911 1026.61>
LayerCount: 2
Fore
SplineSet
911 635 m 1,0,-1
 765 49 l 1,1,2
 807 47 807 47 826 47 c 0,3,4
 843 47 843 47 849.5 46.5 c 128,-1,5
 856 46 856 46 861.5 42 c 128,-1,6
 867 38 867 38 867 29 c 0,7,8
 867 16 867 16 861 7 c 0,9,10
 856 0 856 0 838 0 c 0,11,12
 826 0 826 0 799.5 1 c 128,-1,13
 773 2 773 2 760 2 c 0,14,15
 748 2 748 2 722 2.5 c 128,-1,16
 696 3 696 3 683 3 c 128,-1,17
 670 3 670 3 645 2.5 c 128,-1,18
 620 2 620 2 607 2 c 128,-1,19
 594 2 594 2 569 1 c 128,-1,20
 544 0 544 0 531 0 c 0,21,22
 509 0 509 0 509 18 c 0,23,24
 509 38 509 38 521 45 c 0,25,26
 525 47 525 47 553 47 c 0,27,28
 589 47 589 47 606 48 c 0,29,30
 619 49 619 49 622.5 52 c 128,-1,31
 626 55 626 55 629 67 c 2,32,-1
 696 333 l 1,33,-1
 370 333 l 1,34,-1
 299 49 l 1,35,36
 341 47 341 47 360 47 c 0,37,38
 377 47 377 47 383.5 46.5 c 128,-1,39
 390 46 390 46 395.5 42 c 128,-1,40
 401 38 401 38 401 29 c 0,41,42
 401 16 401 16 395 7 c 0,43,44
 390 0 390 0 372 0 c 0,45,46
 360 0 360 0 333.5 1 c 128,-1,47
 307 2 307 2 294 2 c 0,48,49
 282 2 282 2 256 2.5 c 128,-1,50
 230 3 230 3 217 3 c 128,-1,51
 204 3 204 3 179 2.5 c 128,-1,52
 154 2 154 2 141 2 c 128,-1,53
 128 2 128 2 103 1 c 128,-1,54
 78 0 78 0 65 0 c 0,55,56
 43 0 43 0 43 18 c 0,57,58
 43 38 43 38 55 45 c 0,59,60
 59 47 59 47 87 47 c 0,61,62
 123 47 123 47 140 48 c 0,63,64
 153 49 153 49 156.5 52 c 128,-1,65
 160 55 160 55 163 67 c 2,66,-1
 306 637 l 1,67,68
 264 639 264 639 245 639 c 0,69,70
 227 639 227 639 220 639.5 c 128,-1,71
 213 640 213 640 208 644 c 128,-1,72
 203 648 203 648 203 657 c 0,73,74
 203 670 203 670 209 677 c 128,-1,75
 215 684 215 684 220 685 c 128,-1,76
 225 686 225 686 232 686 c 0,77,78
 245 686 245 686 271.5 685 c 128,-1,79
 298 684 298 684 311 684 c 0,80,81
 323 684 323 684 349 683.5 c 128,-1,82
 375 683 375 683 388 683 c 0,83,84
 400 683 400 683 425 683.5 c 128,-1,85
 450 684 450 684 463 684 c 128,-1,86
 476 684 476 684 501 685 c 128,-1,87
 526 686 526 686 539 686 c 0,88,89
 561 686 561 686 561 668 c 128,-1,90
 561 650 561 650 550 642 c 0,91,92
 546 639 546 639 513 639 c 0,93,94
 467 639 467 639 445 635 c 1,95,-1
 382 380 l 1,96,-1
 708 380 l 1,97,-1
 772 637 l 1,98,99
 730 639 730 639 711 639 c 0,100,101
 693 639 693 639 686 639.5 c 128,-1,102
 679 640 679 640 674 644 c 128,-1,103
 669 648 669 648 669 657 c 0,104,105
 669 670 669 670 675 677 c 128,-1,106
 681 684 681 684 686 685 c 128,-1,107
 691 686 691 686 698 686 c 0,108,109
 711 686 711 686 737.5 685 c 128,-1,110
 764 684 764 684 777 684 c 0,111,112
 789 684 789 684 815 683.5 c 128,-1,113
 841 683 841 683 854 683 c 0,114,115
 866 683 866 683 891 683.5 c 128,-1,116
 916 684 916 684 929 684 c 128,-1,117
 942 684 942 684 967 685 c 128,-1,118
 992 686 992 686 1005 686 c 0,119,120
 1027 686 1027 686 1027 668 c 128,-1,121
 1027 650 1027 650 1016 642 c 0,122,123
 1012 639 1012 639 979 639 c 0,124,125
 933 639 933 639 911 635 c 1,0,-1
EndSplineSet
EndChar

StartChar: Theta
Encoding: 920 920 60
Width: 867
VWidth: 1000
Flags: W
HStem: -17 38<277.96 469.748> 285 118<330 569> 667 36<432.938 619.433>
VStem: 53 129<126.428 349.823> 249 45<251.04 285> 285 49<403 436.927> 598 52<403.003 436.629> 715 129<330.784 558.079>
LayerCount: 2
Fore
SplineSet
844 440 m 0,0,1
 844 377 844 377 824.5 313.5 c 128,-1,2
 805 250 805 250 764.5 190.5 c 128,-1,3
 724 131 724 131 668 85 c 128,-1,4
 612 39 612 39 532 11 c 128,-1,5
 452 -17 452 -17 360 -17 c 0,6,7
 221 -17 221 -17 137 48.5 c 128,-1,8
 53 114 53 114 53 242 c 0,9,10
 53 302 53 302 72 365 c 128,-1,11
 91 428 91 428 131.5 488.5 c 128,-1,12
 172 549 172 549 228 597 c 128,-1,13
 284 645 284 645 365 674 c 128,-1,14
 446 703 446 703 539 703 c 0,15,16
 675 703 675 703 759.5 637.5 c 128,-1,17
 844 572 844 572 844 440 c 0,0,1
369 21 m 0,18,19
 435 21 435 21 499.5 52.5 c 128,-1,20
 564 84 564 84 610 145 c 1,21,22
 664 219 664 219 689.5 318 c 128,-1,23
 715 417 715 417 715 476 c 0,24,25
 715 563 715 563 671 612 c 0,26,27
 622 667 622 667 530 667 c 0,28,29
 473 667 473 667 409.5 640 c 128,-1,30
 346 613 346 613 294 547 c 0,31,32
 237 474 237 474 209.5 370.5 c 128,-1,33
 182 267 182 267 182 208 c 0,34,35
 182 157 182 157 198 119 c 128,-1,36
 214 81 214 81 242 60.5 c 128,-1,37
 270 40 270 40 301.5 30.5 c 128,-1,38
 333 21 333 21 369 21 c 0,18,19
646 403 m 2,39,-1
 614 276 l 2,40,41
 611 264 611 264 609.5 260.5 c 128,-1,42
 608 257 608 257 603 254 c 128,-1,43
 598 251 598 251 589 251 c 0,44,45
 565 251 565 251 565 269 c 0,46,47
 565 272 565 272 567 278.5 c 2,48,-1
 569 285 l 1,49,-1
 301 285 l 1,50,51
 301 281 301 281 294 260 c 1,52,53
 288 251 288 251 273 251 c 0,54,55
 249 251 249 251 249 269 c 0,56,57
 249 272 249 272 253 285 c 2,58,-1
 285 412 l 2,59,60
 288 424 288 424 289.5 427.5 c 128,-1,61
 291 431 291 431 296 434 c 128,-1,62
 301 437 301 437 310 437 c 0,63,64
 334 437 334 437 334 419 c 0,65,66
 334 416 334 416 332 409.5 c 2,67,-1
 330 403 l 1,68,-1
 598 403 l 1,69,70
 598 407 598 407 605 428 c 1,71,72
 611 437 611 437 626 437 c 0,73,74
 650 437 650 437 650 419 c 0,75,76
 650 416 650 416 646 403 c 2,39,-1
EndSplineSet
EndChar

StartChar: Iota
Encoding: 921 921 61
Width: 511
VWidth: 1000
Flags: W
HStem: 2 45<44.1875 156.388 299 406.736> 639 46<198.302 306 447.612 556.809>
LayerCount: 2
Fore
SplineSet
441 618 m 2,0,-1
 299 49 l 1,1,2
 325 47 325 47 352 47 c 2,3,-1
 373 47 l 2,4,5
 407 47 407 47 407 29 c 0,6,7
 407 0 407 0 377 0 c 0,8,9
 365 0 365 0 339 1 c 128,-1,10
 313 2 313 2 300 2 c 0,11,12
 286 2 286 2 258.5 2.5 c 128,-1,13
 231 3 231 3 217 3 c 0,14,15
 204 3 204 3 177 2.5 c 128,-1,16
 150 2 150 2 136 2 c 0,17,18
 124 2 124 2 98 1 c 128,-1,19
 72 0 72 0 60 0 c 0,20,21
 38 0 38 0 38 18 c 0,22,23
 38 32 38 32 44 38.5 c 128,-1,24
 50 45 50 45 56 46 c 128,-1,25
 62 47 62 47 75 47 c 2,26,-1
 96 47 l 2,27,28
 127 47 127 47 139 49 c 1,29,30
 153 50 153 50 156.5 52.5 c 128,-1,31
 160 55 160 55 163 67 c 2,32,-1
 306 637 l 1,33,34
 266 639 266 639 253 639 c 2,35,-1
 232 639 l 2,36,37
 220 639 220 639 214.5 639.5 c 128,-1,38
 209 640 209 640 203.5 644.5 c 128,-1,39
 198 649 198 649 198 657 c 0,40,41
 198 670 198 670 203.5 677 c 128,-1,42
 209 684 209 684 214 685 c 128,-1,43
 219 686 219 686 227 686 c 0,44,45
 239 686 239 686 265.5 685 c 128,-1,46
 292 684 292 684 305 684 c 128,-1,47
 318 684 318 684 346 683.5 c 128,-1,48
 374 683 374 683 388 683 c 128,-1,49
 402 683 402 683 428.5 683.5 c 128,-1,50
 455 684 455 684 468 684 c 0,51,52
 480 684 480 684 506 685 c 128,-1,53
 532 686 532 686 544 686 c 0,54,55
 566 686 566 686 566 668 c 128,-1,56
 566 650 566 650 557 644 c 0,57,58
 551 639 551 639 530 639 c 2,59,-1
 509 639 l 2,60,61
 481 639 481 639 466 638 c 128,-1,62
 451 637 451 637 447.5 634 c 128,-1,63
 444 631 444 631 441 618 c 2,0,-1
EndSplineSet
EndChar

StartChar: Kappa
Encoding: 922 922 62
Width: 971
VWidth: 1000
Flags: W
HStem: 2 45<43.4351 156.388 299 394.81 545.191 623.372 786.256 858.763> 639.5 46.5<208.157 306 445 560.613 752.475 821.374 880.918 1002.66>
LayerCount: 2
Fore
SplineSet
589 420 m 1,0,-1
 771 67 l 2,1,2
 778 54 778 54 786 50.5 c 128,-1,3
 794 47 794 47 827 47 c 0,4,5
 859 47 859 47 859 29 c 0,6,7
 859 0 859 0 832 0 c 0,8,9
 823 0 823 0 802.5 1 c 128,-1,10
 782 2 782 2 772 2 c 128,-1,11
 762 2 762 2 740 2.5 c 128,-1,12
 718 3 718 3 708 3 c 0,13,14
 692 3 692 3 634 1.5 c 128,-1,15
 576 0 576 0 560 0 c 0,16,17
 539 0 539 0 539 18 c 0,18,19
 539 32 539 32 545 40 c 0,20,21
 551 47 551 47 570 47 c 0,22,23
 604 47 604 47 624 53 c 1,24,-1
 475 342 l 1,25,-1
 351 257 l 1,26,-1
 299 49 l 1,27,28
 341 47 341 47 360 47 c 0,29,30
 377 47 377 47 383.5 46.5 c 128,-1,31
 390 46 390 46 395.5 42 c 128,-1,32
 401 38 401 38 401 29 c 0,33,34
 401 16 401 16 395 7 c 1,35,36
 389 0 389 0 372 0 c 0,37,38
 360 0 360 0 333.5 1 c 128,-1,39
 307 2 307 2 294 2 c 0,40,41
 282 2 282 2 256 2.5 c 128,-1,42
 230 3 230 3 217 3 c 128,-1,43
 204 3 204 3 179 2.5 c 128,-1,44
 154 2 154 2 141 2 c 128,-1,45
 128 2 128 2 103 1 c 128,-1,46
 78 0 78 0 65 0 c 0,47,48
 43 0 43 0 43 18 c 0,49,50
 43 38 43 38 55 45 c 0,51,52
 59 47 59 47 87 47 c 0,53,54
 123 47 123 47 140 48 c 0,55,56
 153 49 153 49 156.5 52 c 128,-1,57
 160 55 160 55 163 67 c 2,58,-1
 306 637 l 1,59,60
 264 639 264 639 245 639 c 0,61,62
 227 639 227 639 220 639.5 c 128,-1,63
 213 640 213 640 208 644 c 128,-1,64
 203 648 203 648 203 657 c 0,65,66
 203 670 203 670 209 677 c 128,-1,67
 215 684 215 684 220 685 c 128,-1,68
 225 686 225 686 232 686 c 0,69,70
 245 686 245 686 271.5 685 c 128,-1,71
 298 684 298 684 311 684 c 0,72,73
 323 684 323 684 349 683.5 c 128,-1,74
 375 683 375 683 388 683 c 0,75,76
 400 683 400 683 425 683.5 c 128,-1,77
 450 684 450 684 463 684 c 128,-1,78
 476 684 476 684 501 685 c 128,-1,79
 526 686 526 686 539 686 c 0,80,81
 561 686 561 686 561 668 c 128,-1,82
 561 650 561 650 550 642 c 0,83,84
 546 639 546 639 513 639 c 0,85,86
 467 639 467 639 445 635 c 1,87,-1
 366 317 l 1,88,-1
 822 632 l 1,89,90
 802 639 802 639 776 639 c 0,91,92
 752 639 752 639 752 657 c 0,93,94
 752 686 752 686 780 686 c 0,95,96
 800 686 800 686 842 684.5 c 128,-1,97
 884 683 884 683 905 683 c 0,98,99
 918 683 918 683 945.5 684.5 c 128,-1,100
 973 686 973 686 985 686 c 0,101,102
 992 686 992 686 997.5 680.5 c 128,-1,103
 1003 675 1003 675 1003 668 c 0,104,105
 1003 655 1003 655 997.5 648.5 c 128,-1,106
 992 642 992 642 986.5 641 c 128,-1,107
 981 640 981 640 969 639 c 0,108,109
 918 637 918 637 874 614 c 0,110,111
 842 598 842 598 589 420 c 1,0,-1
EndSplineSet
EndChar

StartChar: Lambda
Encoding: 923 923 63
Width: 805
VWidth: 1000
Flags: W
HStem: 0 47<49.6417 149.844 200.784 284.578 448.768 542 691 771.578>
LayerCount: 2
Fore
SplineSet
485 513 m 1,0,-1
 200 57 l 1,1,2
 225 47 225 47 260 47 c 0,3,4
 285 47 285 47 285 29 c 0,5,6
 285 0 285 0 258 0 c 0,7,8
 241 0 241 0 204 1.5 c 128,-1,9
 167 3 167 3 149 3 c 0,10,11
 135 3 135 3 105.5 1.5 c 128,-1,12
 76 0 76 0 63 0 c 0,13,14
 54 0 54 0 49.5 6 c 128,-1,15
 45 12 45 12 45 18 c 0,16,17
 45 31 45 31 50.5 38 c 128,-1,18
 56 45 56 45 60.5 46 c 128,-1,19
 65 47 65 47 73 47 c 0,20,21
 103 47 103 47 121.5 53.5 c 128,-1,22
 140 60 140 60 146.5 66 c 128,-1,23
 153 72 153 72 161 85 c 2,24,-1
 536 686 l 2,25,26
 547 703 547 703 556 707 c 128,-1,27
 565 711 565 711 580 711 c 0,28,29
 600 711 600 711 605 705.5 c 128,-1,30
 610 700 610 700 612 679 c 2,31,-1
 691 49 l 1,32,33
 715 47 715 47 738 47 c 0,34,35
 750 47 750 47 755.5 46.5 c 128,-1,36
 761 46 761 46 766.5 41.5 c 128,-1,37
 772 37 772 37 772 29 c 0,38,39
 772 0 772 0 745 0 c 0,40,41
 730 0 730 0 678 1.5 c 128,-1,42
 626 3 626 3 611 3 c 0,43,44
 594 3 594 3 536 1.5 c 128,-1,45
 478 0 478 0 461 0 c 0,46,47
 440 0 440 0 440 18 c 0,48,49
 440 38 440 38 448.5 42.5 c 128,-1,50
 457 47 457 47 477 47 c 0,51,52
 518 47 518 47 542 52 c 1,53,-1
 485 513 l 1,0,-1
EndSplineSet
EndChar

StartChar: Mu
Encoding: 924 924 64
Width: 1142
VWidth: 1000
Flags: W
HStem: 0 47<52.1875 160.872 218.755 317.531 715.435 828.388 954 1048.84> 639.5 46.5<212.188 309 1100 1206.71>
LayerCount: 2
Fore
SplineSet
1100 635 m 1,0,-1
 954 49 l 1,1,2
 996 47 996 47 1015 47 c 0,3,4
 1032 47 1032 47 1039 46.5 c 128,-1,5
 1046 46 1046 46 1051 42 c 128,-1,6
 1056 38 1056 38 1056 29 c 0,7,8
 1056 14 1056 14 1049 7 c 1,9,10
 1044 0 1044 0 1028 0 c 0,11,12
 1017 0 1017 0 993 1 c 128,-1,13
 969 2 969 2 957 2 c 0,14,15
 944 2 944 2 918.5 2.5 c 128,-1,16
 893 3 893 3 880 3 c 0,17,18
 868 3 868 3 845 2.5 c 128,-1,19
 822 2 822 2 810 2 c 128,-1,20
 798 2 798 2 773.5 1 c 128,-1,21
 749 0 749 0 737 0 c 0,22,23
 715 0 715 0 715 18 c 0,24,25
 715 38 715 38 727 45 c 0,26,27
 731 47 731 47 759 47 c 0,28,29
 795 47 795 47 812 48 c 0,30,31
 825 49 825 49 828.5 52 c 128,-1,32
 832 55 832 55 835 67 c 2,33,-1
 977 637 l 1,34,-1
 976 638 l 1,35,-1
 544 23 l 2,36,37
 527 0 527 0 508 0 c 0,38,39
 498 0 498 0 492 5 c 128,-1,40
 486 10 486 10 484.5 15 c 128,-1,41
 483 20 483 20 481 30 c 2,42,-1
 360 624 l 1,43,-1
 359 624 l 1,44,-1
 218 57 l 1,45,46
 242 47 242 47 288 47 c 0,47,48
 318 47 318 47 318 29 c 0,49,50
 318 0 318 0 291 0 c 0,51,52
 278 0 278 0 234 1.5 c 128,-1,53
 190 3 190 3 177 3 c 0,54,55
 158 3 158 3 121 1.5 c 128,-1,56
 84 0 84 0 66 0 c 0,57,58
 56 0 56 0 51 6 c 128,-1,59
 46 12 46 12 46 18 c 0,60,61
 46 32 46 32 52 38.5 c 128,-1,62
 58 45 58 45 64 46 c 128,-1,63
 70 47 70 47 82 47 c 0,64,65
 115 47 115 47 139 53 c 0,66,67
 157 57 157 57 161 60.5 c 128,-1,68
 165 64 165 64 169 79 c 2,69,-1
 309 637 l 1,70,71
 267 639 267 639 248 639 c 0,72,73
 230 639 230 639 223 639.5 c 128,-1,74
 216 640 216 640 211 644 c 128,-1,75
 206 648 206 648 206 657 c 0,76,77
 206 671 206 671 212 677.5 c 128,-1,78
 218 684 218 684 224 685 c 128,-1,79
 230 686 230 686 243 686 c 2,80,-1
 431 686 l 2,81,82
 452 686 452 686 459.5 682 c 128,-1,83
 467 678 467 678 471 658 c 2,84,-1
 578 129 l 1,85,-1
 953 661 l 2,86,87
 964 678 964 678 972.5 682 c 128,-1,88
 981 686 981 686 1004 686 c 2,89,-1
 1182 686 l 2,90,91
 1194 686 1194 686 1199.5 685.5 c 128,-1,92
 1205 685 1205 685 1210.5 680.5 c 128,-1,93
 1216 676 1216 676 1216 668 c 0,94,95
 1216 648 1216 648 1207 643.5 c 128,-1,96
 1198 639 1198 639 1168 639 c 0,97,98
 1122 639 1122 639 1100 635 c 1,0,-1
EndSplineSet
EndChar

StartChar: Nu
Encoding: 925 925 65
Width: 950
VWidth: 1000
Flags: W
HStem: 0 47<49.1875 157.872 215.755 314.516> 639 47<209.188 304.989 755.484 855.245 912.613 1021.33>
LayerCount: 2
Fore
SplineSet
905 608 m 2,0,-1
 758 24 l 2,1,2
 754 8 754 8 750 4 c 128,-1,3
 746 0 746 0 730 0 c 0,4,5
 718 0 718 0 713 2.5 c 128,-1,6
 708 5 708 5 700 18 c 2,7,-1
 351 602 l 1,8,-1
 215 57 l 1,9,10
 239 47 239 47 284 47 c 0,11,12
 315 47 315 47 315 29 c 0,13,14
 315 0 315 0 288 0 c 0,15,16
 276 0 276 0 231 1.5 c 128,-1,17
 186 3 186 3 174 3 c 0,18,19
 155 3 155 3 118 1.5 c 128,-1,20
 81 0 81 0 63 0 c 0,21,22
 55 0 55 0 50 4 c 128,-1,23
 45 8 45 8 44 11.5 c 128,-1,24
 43 15 43 15 43 18 c 0,25,26
 43 32 43 32 49 38.5 c 128,-1,27
 55 45 55 45 61 46 c 128,-1,28
 67 47 67 47 79 47 c 0,29,30
 112 47 112 47 136 53 c 0,31,32
 154 57 154 57 158 60.5 c 128,-1,33
 162 64 162 64 166 79 c 2,34,-1
 302 620 l 2,35,36
 305 632 305 632 305 634 c 0,37,38
 305 639 305 639 261 639 c 2,39,-1
 237 639 l 2,40,41
 225 639 225 639 219.5 639.5 c 128,-1,42
 214 640 214 640 208.5 644.5 c 128,-1,43
 203 649 203 649 203 657 c 0,44,45
 203 671 203 671 209 677.5 c 128,-1,46
 215 684 215 684 221 685 c 128,-1,47
 227 686 227 686 240 686 c 2,48,-1
 429 686 l 2,49,50
 448 686 448 686 453.5 683.5 c 128,-1,51
 459 681 459 681 466 669 c 2,52,-1
 748 198 l 1,53,-1
 856 629 l 1,54,55
 832 639 832 639 786 639 c 0,56,57
 755 639 755 639 755 657 c 0,58,59
 755 686 755 686 782 686 c 0,60,61
 794 686 794 686 839 684.5 c 128,-1,62
 884 683 884 683 896 683 c 0,63,64
 915 683 915 683 952 684.5 c 128,-1,65
 989 686 989 686 1007 686 c 0,66,67
 1027 686 1027 686 1027 668 c 0,68,69
 1027 654 1027 654 1021.5 647.5 c 128,-1,70
 1016 641 1016 641 1010 640 c 128,-1,71
 1004 639 1004 639 992 639 c 0,72,73
 962 639 962 639 934 634 c 0,74,75
 916 630 916 630 912.5 626.5 c 128,-1,76
 909 623 909 623 905 608 c 2,0,-1
EndSplineSet
EndChar

StartChar: Xi
Encoding: 926 926 66
Width: 841
VWidth: 1000
Flags: W
HStem: 0 110<78 697.445> 296 110<309 632> 565 110<254.358 797>
VStem: 94 48<126.441 202.214> 178 50<479.158 534.056> 227 46<247.005 293.969> 267 49<406 449.841> 668 47<407.219 454.958> 716 49<125.891 202.214>
LayerCount: 2
Fore
SplineSet
867 656 m 1,0,-1
 838 506 l 2,1,2
 835 489 835 489 831 484 c 128,-1,3
 827 479 827 479 813 479 c 0,4,5
 789 479 789 479 789 497 c 0,6,7
 789 500 789 500 791 510 c 0,8,9
 797 537 797 537 797 562 c 1,10,11
 770 565 770 565 725 565 c 2,12,-1
 333 565 l 2,13,14
 265 565 265 565 254 560 c 0,15,16
 248 558 248 558 239.5 536 c 128,-1,17
 231 514 231 514 228 502 c 1,18,19
 224 492 224 492 222.5 488.5 c 128,-1,20
 221 485 221 485 216 482 c 128,-1,21
 211 479 211 479 202 479 c 0,22,23
 178 479 178 479 178 497 c 1,24,-1
 182 513 l 1,25,-1
 226 654 l 2,26,27
 231 669 231 669 236 672 c 128,-1,28
 241 675 241 675 261 675 c 2,29,-1
 833 675 l 2,30,31
 845 675 845 675 851 674.5 c 128,-1,32
 857 674 857 674 862 669.5 c 128,-1,33
 867 665 867 665 867 656 c 1,0,-1
209 110 m 2,34,-1
 603 110 l 2,35,36
 680 110 680 110 688 116 c 1,37,38
 698 126 698 126 716 184 c 0,39,40
 720 198 720 198 724.5 202.5 c 128,-1,41
 729 207 729 207 742 207 c 0,42,43
 765 207 765 207 765 189 c 0,44,45
 765 184 765 184 742 108 c 128,-1,46
 719 32 719 32 713 13 c 0,47,48
 710 4 710 4 703.5 2 c 128,-1,49
 697 0 697 0 680 0 c 2,50,-1
 96 0 l 2,51,52
 84 0 84 0 78 0.5 c 128,-1,53
 72 1 72 1 67 5.5 c 128,-1,54
 62 10 62 10 62 19 c 0,55,56
 62 37 62 37 94 184 c 1,57,58
 96 198 96 198 100.5 202.5 c 128,-1,59
 105 207 105 207 119 207 c 0,60,61
 142 207 142 207 142 189 c 0,62,63
 142 186 142 186 139 168 c 0,64,65
 133 140 133 140 133 126 c 0,66,67
 133 118 133 118 134.5 116 c 128,-1,68
 136 114 136 114 143 113 c 0,69,70
 165 110 165 110 209 110 c 2,34,-1
229 280 m 2,71,-1
 267 429 l 2,72,73
 271 445 271 445 275.5 450 c 128,-1,74
 280 455 280 455 293 455 c 0,75,76
 316 455 316 455 316 436 c 0,77,78
 316 427 316 427 309 406 c 1,79,-1
 660 406 l 1,80,81
 667 434 667 434 668 440 c 0,82,83
 673 455 673 455 692 455 c 0,84,85
 715 455 715 455 715 436 c 0,86,87
 715 425 715 425 674 268 c 0,88,89
 672 261 672 261 670.5 257.5 c 128,-1,90
 669 254 669 254 663.5 250.5 c 128,-1,91
 658 247 658 247 649 247 c 0,92,93
 626 247 626 247 626 266 c 0,94,95
 626 271 626 271 632 296 c 1,96,-1
 281 296 l 1,97,98
 274 265 274 265 273 263 c 0,99,100
 269 247 269 247 250 247 c 0,101,102
 227 247 227 247 227 266 c 0,103,104
 227 274 227 274 229 280 c 2,71,-1
EndSplineSet
EndChar

StartChar: Omicron
Encoding: 927 927 67
Width: 836
VWidth: 1000
Flags: W
HStem: -17 42<270.823 452.998> 663 40<415.976 598.912>
VStem: 53 141<123.385 353.111> 679 136<351.404 561.304>
LayerCount: 2
Fore
SplineSet
815 445 m 0,0,1
 815 366 815 366 784 285.5 c 128,-1,2
 753 205 753 205 696 137 c 128,-1,3
 639 69 639 69 547 26 c 128,-1,4
 455 -17 455 -17 345 -17 c 0,5,6
 213 -17 213 -17 133 47.5 c 128,-1,7
 53 112 53 112 53 238 c 0,8,9
 53 299 53 299 72 363 c 128,-1,10
 91 427 91 427 130.5 488 c 128,-1,11
 170 549 170 549 224.5 597 c 128,-1,12
 279 645 279 645 357 674 c 128,-1,13
 435 703 435 703 524 703 c 0,14,15
 657 703 657 703 736 636.5 c 128,-1,16
 815 570 815 570 815 445 c 0,0,1
355 25 m 0,17,18
 488 25 488 25 578 157 c 0,19,20
 622 221 622 221 650.5 326.5 c 128,-1,21
 679 432 679 432 679 491 c 0,22,23
 679 579 679 579 631.5 621 c 128,-1,24
 584 663 584 663 514 663 c 0,25,26
 392 663 392 663 306 558 c 1,27,28
 252 490 252 490 223 380 c 128,-1,29
 194 270 194 270 194 205 c 0,30,31
 194 115 194 115 238 71 c 0,32,33
 283 25 283 25 355 25 c 0,17,18
EndSplineSet
EndChar

StartChar: Pi
Encoding: 928 928 68
Width: 982
VWidth: 1000
Flags: W
HStem: 2 45<43.4351 156.388 299 394.841 509.435 622.388 765 860.841> 633 47<207.672 304 445 771 912.612 1025.59>
LayerCount: 2
Fore
SplineSet
906 613 m 2,0,-1
 765 49 l 1,1,2
 807 47 807 47 826 47 c 0,3,4
 843 47 843 47 849.5 46.5 c 128,-1,5
 856 46 856 46 861.5 42 c 128,-1,6
 867 38 867 38 867 29 c 0,7,8
 867 16 867 16 861 7 c 0,9,10
 856 0 856 0 838 0 c 0,11,12
 826 0 826 0 799.5 1 c 128,-1,13
 773 2 773 2 760 2 c 0,14,15
 748 2 748 2 722 2.5 c 128,-1,16
 696 3 696 3 683 3 c 128,-1,17
 670 3 670 3 645 2.5 c 128,-1,18
 620 2 620 2 607 2 c 128,-1,19
 594 2 594 2 569 1 c 128,-1,20
 544 0 544 0 531 0 c 0,21,22
 509 0 509 0 509 18 c 0,23,24
 509 38 509 38 521 45 c 0,25,26
 525 47 525 47 553 47 c 0,27,28
 589 47 589 47 606 48 c 0,29,30
 619 49 619 49 622.5 52 c 128,-1,31
 626 55 626 55 629 67 c 2,32,-1
 771 633 l 1,33,-1
 445 633 l 1,34,-1
 299 49 l 1,35,36
 341 47 341 47 360 47 c 0,37,38
 377 47 377 47 383.5 46.5 c 128,-1,39
 390 46 390 46 395.5 42 c 128,-1,40
 401 38 401 38 401 29 c 0,41,42
 401 16 401 16 395 7 c 0,43,44
 390 0 390 0 372 0 c 0,45,46
 360 0 360 0 333.5 1 c 128,-1,47
 307 2 307 2 294 2 c 0,48,49
 282 2 282 2 256 2.5 c 128,-1,50
 230 3 230 3 217 3 c 128,-1,51
 204 3 204 3 179 2.5 c 128,-1,52
 154 2 154 2 141 2 c 128,-1,53
 128 2 128 2 103 1 c 128,-1,54
 78 0 78 0 65 0 c 0,55,56
 43 0 43 0 43 18 c 0,57,58
 43 38 43 38 55 45 c 0,59,60
 59 47 59 47 87 47 c 0,61,62
 123 47 123 47 140 48 c 0,63,64
 153 49 153 49 156.5 52 c 128,-1,65
 160 55 160 55 163 67 c 2,66,-1
 304 631 l 1,67,68
 262 633 262 633 243 633 c 0,69,70
 226 633 226 633 219.5 633.5 c 128,-1,71
 213 634 213 634 207.5 638 c 128,-1,72
 202 642 202 642 202 651 c 0,73,74
 202 669 202 669 211 675 c 0,75,76
 217 680 217 680 238 680 c 2,77,-1
 992 680 l 2,78,79
 1026 680 1026 680 1026 662 c 0,80,81
 1026 642 1026 642 1014 635 c 0,82,83
 1010 633 1010 633 982 633 c 0,84,85
 946 633 946 633 929 632 c 0,86,87
 916 631 916 631 912.5 628 c 128,-1,88
 909 625 909 625 906 613 c 2,0,-1
EndSplineSet
EndChar

StartChar: Rho
Encoding: 929 929 69
Width: 723
VWidth: 1000
Flags: W
HStem: 2 45<43.457 156.388 299 395.843> 302 41<366 614.508> 639 47<209.188 306 434.906 679.132>
VStem: 709 140<452.658 609.106>
LayerCount: 2
Fore
SplineSet
362 302 m 1,0,-1
 299 49 l 1,1,2
 341 47 341 47 360 47 c 0,3,4
 377 47 377 47 384 46.5 c 128,-1,5
 391 46 391 46 396 41.5 c 128,-1,6
 401 37 401 37 401 28 c 0,7,8
 401 0 401 0 372 0 c 0,9,10
 360 0 360 0 333.5 1 c 128,-1,11
 307 2 307 2 294 2 c 0,12,13
 282 2 282 2 256 2.5 c 128,-1,14
 230 3 230 3 217 3 c 128,-1,15
 204 3 204 3 179 2.5 c 128,-1,16
 154 2 154 2 141 2 c 128,-1,17
 128 2 128 2 103 1 c 128,-1,18
 78 0 78 0 65 0 c 0,19,20
 43 0 43 0 43 18 c 0,21,22
 43 38 43 38 56 44 c 1,23,24
 59 47 59 47 87 47 c 0,25,26
 123 47 123 47 140 48 c 0,27,28
 153 49 153 49 156.5 52 c 128,-1,29
 160 55 160 55 163 67 c 2,30,-1
 306 637 l 1,31,32
 264 639 264 639 245 639 c 0,33,34
 228 639 228 639 221 639.5 c 128,-1,35
 214 640 214 640 208.5 644 c 128,-1,36
 203 648 203 648 203 657 c 0,37,38
 203 671 203 671 209 677.5 c 128,-1,39
 215 684 215 684 221 685 c 128,-1,40
 227 686 227 686 240 686 c 2,41,-1
 625 686 l 2,42,43
 727 686 727 686 788 646.5 c 128,-1,44
 849 607 849 607 849 532 c 0,45,46
 849 440 849 440 761 371 c 128,-1,47
 673 302 673 302 539 302 c 2,48,-1
 362 302 l 1,0,-1
436 621 m 2,49,-1
 366 343 l 1,50,-1
 503 343 l 2,51,52
 616 343 616 343 659 398 c 0,53,54
 683 429 683 429 696 484 c 128,-1,55
 709 539 709 539 709 560 c 0,56,57
 709 639 709 639 578 639 c 2,58,-1
 474 639 l 2,59,60
 456 639 456 639 447 638 c 0,61,62
 440 637 440 637 436 621 c 2,49,-1
EndSplineSet
EndChar

StartChar: Sigma
Encoding: 931 931 70
Width: 885
VWidth: 1000
Flags: W
HStem: 0 65<206 731> 445 21G<846.5 863.5> 639 47<410 779.509>
VStem: 776 50<192.155 255.388> 835 45.5<449.125 497.842>
LayerCount: 2
Fore
SplineSet
558 323 m 2,0,-1
 206 65 l 1,1,-1
 468 65 l 2,2,3
 530 65 530 65 571 70.5 c 128,-1,4
 612 76 612 76 652.5 93.5 c 128,-1,5
 693 111 693 111 722.5 146 c 128,-1,6
 752 181 752 181 776 237 c 0,7,8
 782 252 782 252 786.5 255.5 c 128,-1,9
 791 259 791 259 803 259 c 0,10,11
 826 259 826 259 826 241 c 0,12,13
 826 234 826 234 742 20 c 0,14,15
 736 5 736 5 731 2.5 c 128,-1,16
 726 0 726 0 706 0 c 2,17,-1
 103 0 l 2,18,19
 91 0 91 0 85.5 0.5 c 128,-1,20
 80 1 80 1 74.5 5.5 c 128,-1,21
 69 10 69 10 69 18 c 0,22,23
 69 28 69 28 84 39 c 2,24,-1
 431 292 l 1,25,-1
 236 639 l 2,26,27
 228 654 228 654 228 657 c 0,28,29
 228 675 228 675 238 681 c 1,30,31
 244 686 244 686 265 686 c 2,32,-1
 868 686 l 2,33,34
 890 686 890 686 896.5 681 c 128,-1,35
 903 676 903 676 901 652 c 2,36,-1
 883 475 l 2,37,38
 882 463 882 463 880.5 458 c 128,-1,39
 879 453 879 453 874 449 c 128,-1,40
 869 445 869 445 858 445 c 0,41,42
 835 445 835 445 835 466 c 0,43,44
 835 471 835 471 836 482 c 128,-1,45
 837 493 837 493 837 498 c 0,46,47
 837 584 837 584 790.5 611.5 c 128,-1,48
 744 639 744 639 629 639 c 2,49,-1
 410 639 l 1,50,-1
 567 359 l 2,51,52
 574 346 574 346 574 343 c 0,53,54
 574 335 574 335 558 323 c 2,0,-1
EndSplineSet
EndChar

StartChar: Tau
Encoding: 932 932 71
Width: 636
VWidth: 1000
Flags: W
HStem: 2 45<53.375 214 353 499.728> 628 47<169.467 357 499.612 682.398>
VStem: 25 51<438.643 513.359>
LayerCount: 2
Fore
SplineSet
493 610 m 2,0,-1
 353 50 l 1,1,2
 377 47 377 47 425 47 c 2,3,-1
 466 47 l 2,4,5
 500 47 500 47 500 29 c 0,6,7
 500 0 500 0 469 0 c 0,8,9
 453 0 453 0 421 1 c 128,-1,10
 389 2 389 2 373 2 c 0,11,12
 356 2 356 2 322 2.5 c 128,-1,13
 288 3 288 3 271 3 c 128,-1,14
 254 3 254 3 221 2.5 c 128,-1,15
 188 2 188 2 172 2 c 128,-1,16
 156 2 156 2 124 1 c 128,-1,17
 92 0 92 0 77 0 c 0,18,19
 53 0 53 0 53 19 c 0,20,21
 53 32 53 32 59 38.5 c 128,-1,22
 65 45 65 45 71 46 c 128,-1,23
 77 47 77 47 89 47 c 2,24,-1
 131 47 l 2,25,26
 184 47 184 47 214 52 c 1,27,-1
 357 627 l 1,28,29
 337 628 337 628 305 628 c 0,30,31
 198 628 198 628 156.5 598 c 128,-1,32
 115 568 115 568 76 459 c 0,33,34
 70 443 70 443 65.5 438.5 c 128,-1,35
 61 434 61 434 49 434 c 0,36,37
 25 434 25 434 25 452 c 0,38,39
 25 453 25 453 28 461.5 c 2,40,-1
 31 470 l 1,41,-1
 95 655 l 2,42,43
 100 669 100 669 106 672 c 128,-1,44
 112 675 112 675 131 675 c 2,45,-1
 738 675 l 2,46,47
 751 675 751 675 756.5 674.5 c 128,-1,48
 762 674 762 674 767 669 c 128,-1,49
 772 664 772 664 772 655 c 1,50,-1
 744 462 l 2,51,52
 742 446 742 446 737 440 c 128,-1,53
 732 434 732 434 719 434 c 0,54,55
 695 434 695 434 695 453 c 0,56,57
 695 454 695 454 696 461 c 128,-1,58
 697 468 697 468 697 471 c 0,59,60
 704 513 704 513 704 539 c 0,61,62
 704 597 704 597 672.5 612.5 c 128,-1,63
 641 628 641 628 559 628 c 2,64,-1
 517 628 l 1,65,66
 503 627 503 627 499.5 624.5 c 128,-1,67
 496 622 496 622 493 610 c 2,0,-1
EndSplineSet
EndChar

StartChar: YUpsilon
Encoding: 933 933 72
Width: 674
VWidth: 1000
Flags: W
HStem: 0 47<123.435 237.388 373 470.328> 639 47<49.6721 136.905 300 381.232 627.422 698.343 753.462 870.358>
LayerCount: 2
Fore
SplineSet
734 600 m 2,0,-1
 429 274 l 1,1,-1
 373 49 l 1,2,3
 415 47 415 47 434 47 c 0,4,5
 451 47 451 47 458 46.5 c 128,-1,6
 465 46 465 46 470.5 42 c 128,-1,7
 476 38 476 38 476 29 c 0,8,9
 476 16 476 16 470 9 c 128,-1,10
 464 2 464 2 459 1 c 128,-1,11
 454 0 454 0 447 0 c 0,12,13
 430 0 430 0 370.5 1.5 c 128,-1,14
 311 3 311 3 294 3 c 0,15,16
 282 3 282 3 257.5 2.5 c 128,-1,17
 233 2 233 2 221 2 c 0,18,19
 208 2 208 2 183 1 c 128,-1,20
 158 0 158 0 145 0 c 0,21,22
 123 0 123 0 123 18 c 0,23,24
 123 35 123 35 133 43 c 0,25,26
 137 47 137 47 169 47 c 0,27,28
 204 47 204 47 221 49 c 0,29,30
 234 50 234 50 237.5 52.5 c 128,-1,31
 241 55 241 55 244 68 c 2,32,-1
 296 274 l 1,33,-1
 144 623 l 2,34,35
 140 632 140 632 137 634 c 128,-1,36
 134 636 134 636 124 638 c 1,37,38
 110 639 110 639 85 639 c 0,39,40
 68 639 68 639 61.5 639.5 c 128,-1,41
 55 640 55 640 49.5 644 c 128,-1,42
 44 648 44 648 44 657 c 0,43,44
 44 670 44 670 49.5 677 c 128,-1,45
 55 684 55 684 59.5 685 c 128,-1,46
 64 686 64 686 72 686 c 0,47,48
 83 686 83 686 107.5 685 c 128,-1,49
 132 684 132 684 144 684 c 0,50,51
 155 684 155 684 178 683.5 c 128,-1,52
 201 683 201 683 213 683 c 0,53,54
 230 683 230 683 290.5 684.5 c 128,-1,55
 351 686 351 686 368 686 c 0,56,57
 390 686 390 686 390 668 c 0,58,59
 390 649 390 649 381.5 644 c 128,-1,60
 373 639 373 639 356 639 c 0,61,62
 328 639 328 639 300 635 c 1,63,-1
 428 342 l 1,64,-1
 699 632 l 1,65,66
 678 639 678 639 654 639 c 0,67,68
 627 639 627 639 627 657 c 0,69,70
 627 686 627 686 654 686 c 0,71,72
 672 686 672 686 709 684.5 c 128,-1,73
 746 683 746 683 765 683 c 0,74,75
 780 683 780 683 811.5 684.5 c 128,-1,76
 843 686 843 686 857 686 c 0,77,78
 866 686 866 686 870.5 680 c 128,-1,79
 875 674 875 674 875 668 c 0,80,81
 875 655 875 655 869.5 648 c 128,-1,82
 864 641 864 641 859 640 c 128,-1,83
 854 639 854 639 846 639 c 0,84,85
 800 638 800 638 776.5 629 c 128,-1,86
 753 620 753 620 734 600 c 2,0,-1
EndSplineSet
EndChar

StartChar: Phi
Encoding: 934 934 73
Width: 766
VWidth: 1000
Flags: W
HStem: 2 45<111.191 241.737 374 495.841> 152 37<212.185 270 409 482.672> 497 38<279.948 357 495 553.781> 639 45<262.264 391 523.325 656.812>
VStem: 28 137<240.753 384.283> 601 137<300.635 442.092>
LayerCount: 2
Fore
SplineSet
399 152 m 1,0,-1
 374 51 l 1,1,2
 394 47 394 47 437 47 c 2,3,-1
 470 47 l 2,4,5
 503 47 503 47 503 29 c 0,6,7
 503 15 503 15 496 7 c 0,8,9
 491 0 491 0 473 0 c 0,10,11
 459 0 459 0 430.5 1 c 128,-1,12
 402 2 402 2 387 2 c 128,-1,13
 372 2 372 2 342 2.5 c 128,-1,14
 312 3 312 3 297 3 c 128,-1,15
 282 3 282 3 252 2.5 c 128,-1,16
 222 2 222 2 207 2 c 0,17,18
 194 2 194 2 166 1 c 128,-1,19
 138 0 138 0 125 0 c 0,20,21
 102 0 102 0 102 18 c 0,22,23
 102 34 102 34 111 43 c 1,24,25
 117 47 117 47 139 47 c 2,26,-1
 171 47 l 2,27,28
 234 47 234 47 242 52 c 0,29,30
 245 53 245 53 250 68 c 1,31,-1
 270 152 l 1,32,33
 161 160 161 160 94.5 201 c 128,-1,34
 28 242 28 242 28 312 c 0,35,36
 28 339 28 339 42.5 370 c 128,-1,37
 57 401 57 401 91 436 c 128,-1,38
 125 471 125 471 196.5 498.5 c 128,-1,39
 268 526 268 526 366 535 c 1,40,-1
 391 636 l 1,41,42
 365 639 365 639 328 639 c 2,43,-1
 296 639 l 2,44,45
 284 639 284 639 278.5 639.5 c 128,-1,46
 273 640 273 640 267.5 644.5 c 128,-1,47
 262 649 262 649 262 657 c 0,48,49
 262 686 262 686 292 686 c 0,50,51
 306 686 306 686 334.5 685 c 128,-1,52
 363 684 363 684 378 684 c 128,-1,53
 393 684 393 684 423 683.5 c 128,-1,54
 453 683 453 683 468 683 c 0,55,56
 482 683 482 683 510 683.5 c 128,-1,57
 538 684 538 684 552 684 c 128,-1,58
 566 684 566 684 596 685 c 128,-1,59
 626 686 626 686 640 686 c 0,60,61
 663 686 663 686 663 668 c 0,62,63
 663 654 663 654 657 647.5 c 128,-1,64
 651 641 651 641 645 640 c 128,-1,65
 639 639 639 639 627 639 c 2,66,-1
 594 639 l 2,67,68
 533 639 533 639 523 634 c 0,69,70
 520 633 520 633 516 618 c 2,71,-1
 495 534 l 1,72,73
 621 524 621 524 679.5 479 c 128,-1,74
 738 434 738 434 738 374 c 0,75,76
 738 339 738 339 717 303 c 128,-1,77
 696 267 696 267 656 235 c 128,-1,78
 616 203 616 203 549 180.5 c 128,-1,79
 482 158 482 158 399 152 c 1,0,-1
279 189 m 1,80,-1
 357 497 l 1,81,82
 266 488 266 488 218 437 c 0,83,84
 194 411 194 411 179.5 366.5 c 128,-1,85
 165 322 165 322 165 289 c 0,86,87
 165 273 165 273 168 261 c 128,-1,88
 171 249 171 249 181 233 c 128,-1,89
 191 217 191 217 216 205.5 c 128,-1,90
 241 194 241 194 279 189 c 1,80,-1
486 497 m 1,91,-1
 409 189 l 1,92,93
 505 202 505 202 550 252 c 0,94,95
 574 280 574 280 587.5 324 c 128,-1,96
 601 368 601 368 601 398 c 0,97,98
 601 484 601 484 486 497 c 1,91,-1
EndSplineSet
EndChar

StartChar: Chi
Encoding: 935 935 74
Width: 947
VWidth: 1000
Flags: W
HStem: 0 47<44.672 182.017 241.845 325.562 500.435 586.938 748.611 835.812> 639.5 46.5<219.157 306.905 468 554.737 666.335 749.847 811.482 952.512>
LayerCount: 2
Fore
SplineSet
582 395 m 1,0,-1
 740 64 l 2,1,2
 745 54 745 54 748.5 51.5 c 128,-1,3
 752 49 752 49 763 48 c 0,4,5
 778 47 778 47 802 47 c 0,6,7
 817 47 817 47 823.5 46.5 c 128,-1,8
 830 46 830 46 836 42 c 128,-1,9
 842 38 842 38 842 29 c 0,10,11
 842 0 842 0 814 0 c 0,12,13
 802 0 802 0 779 1 c 128,-1,14
 756 2 756 2 744 2 c 128,-1,15
 732 2 732 2 709 2.5 c 128,-1,16
 686 3 686 3 675 3 c 0,17,18
 658 3 658 3 598.5 1.5 c 128,-1,19
 539 0 539 0 522 0 c 0,20,21
 500 0 500 0 500 18 c 0,22,23
 500 31 500 31 506 38 c 128,-1,24
 512 45 512 45 516.5 46 c 128,-1,25
 521 47 521 47 529 47 c 0,26,27
 536 47 536 47 544 47.5 c 128,-1,28
 552 48 552 48 559.5 49 c 128,-1,29
 567 50 567 50 573 51 c 128,-1,30
 579 52 579 52 583 52.5 c 2,31,-1
 587 53 l 1,32,-1
 474 289 l 1,33,-1
 241 57 l 1,34,35
 268 47 268 47 300 47 c 0,36,37
 326 47 326 47 326 29 c 0,38,39
 326 0 326 0 298 0 c 0,40,41
 284 0 284 0 233 1.5 c 128,-1,42
 182 3 182 3 168 3 c 0,43,44
 156 3 156 3 113.5 1.5 c 128,-1,45
 71 0 71 0 59 0 c 0,46,47
 49 0 49 0 44 5.5 c 128,-1,48
 39 11 39 11 39 18 c 0,49,50
 39 32 39 32 44.5 38.5 c 128,-1,51
 50 45 50 45 56 46 c 128,-1,52
 62 47 62 47 74 47 c 0,53,54
 115 47 115 47 143 54.5 c 128,-1,55
 171 62 171 62 180 68 c 128,-1,56
 189 74 189 74 202 86 c 2,57,-1
 453 334 l 1,58,-1
 315 623 l 2,59,60
 310 632 310 632 307 634.5 c 128,-1,61
 304 637 304 637 294 638 c 0,62,63
 280 639 280 639 255 639 c 0,64,65
 238 639 238 639 231 639.5 c 128,-1,66
 224 640 224 640 219 644.5 c 128,-1,67
 214 649 214 649 214 658 c 0,68,69
 214 671 214 671 220 677.5 c 128,-1,70
 226 684 226 684 230.5 685 c 128,-1,71
 235 686 235 686 242 686 c 0,72,73
 254 686 254 686 277 685 c 128,-1,74
 300 684 300 684 312 684 c 128,-1,75
 324 684 324 684 347 683.5 c 128,-1,76
 370 683 370 683 381 683 c 0,77,78
 398 683 398 683 457 684.5 c 128,-1,79
 516 686 516 686 533 686 c 0,80,81
 555 686 555 686 555 667 c 0,82,83
 555 639 555 639 526 639 c 0,84,85
 498 639 498 639 468 633 c 1,86,-1
 560 440 l 1,87,-1
 751 629 l 1,88,89
 714 638 714 638 691 639 c 1,90,91
 666 639 666 639 666 658 c 0,92,93
 666 686 666 686 694 686 c 0,94,95
 708 686 708 686 759 684.5 c 128,-1,96
 810 683 810 683 824 683 c 0,97,98
 842 683 842 683 879 684.5 c 128,-1,99
 916 686 916 686 933 686 c 0,100,101
 953 686 953 686 953 668 c 0,102,103
 953 664 953 664 952 658.5 c 128,-1,104
 951 653 951 653 946 646 c 128,-1,105
 941 639 941 639 932 639 c 0,106,107
 859 638 859 638 834 629 c 128,-1,108
 809 620 809 620 776 588 c 1,109,-1
 714 525 l 1,110,-1
 582 395 l 1,0,-1
EndSplineSet
EndChar

StartChar: Psi
Encoding: 936 936 75
Width: 714
VWidth: 1000
Flags: W
HStem: 2 45<90.1875 222.767 355 478.844> 153 40<219.944 252> 511 36<27.0083 56.874 740.312 791.995> 639 47<243.531 372 504.325 637.812>
VStem: 52 123<247.573 469.262> 69 128<342.126 508.451>
LayerCount: 2
Fore
SplineSet
262 193 m 1,0,-1
 372 636 l 1,1,2
 346 639 346 639 309 639 c 2,3,-1
 277 639 l 2,4,5
 243 639 243 639 243 657 c 0,6,7
 243 686 243 686 273 686 c 0,8,9
 287 686 287 686 315.5 685 c 128,-1,10
 344 684 344 684 359 684 c 128,-1,11
 374 684 374 684 404 683.5 c 128,-1,12
 434 683 434 683 449 683 c 128,-1,13
 464 683 464 683 494 683.5 c 128,-1,14
 524 684 524 684 539 684 c 0,15,16
 552 684 552 684 580 685 c 128,-1,17
 608 686 608 686 621 686 c 0,18,19
 644 686 644 686 644 668 c 0,20,21
 644 654 644 654 638 647.5 c 128,-1,22
 632 641 632 641 626 640 c 128,-1,23
 620 639 620 639 607 639 c 2,24,-1
 575 639 l 2,25,26
 514 639 514 639 504 634 c 0,27,28
 501 633 501 633 497 618 c 2,29,-1
 392 196 l 1,30,31
 523 230 523 230 572 414 c 0,32,33
 584 461 584 461 600.5 490.5 c 128,-1,34
 617 520 617 520 635.5 531 c 128,-1,35
 654 542 654 542 665 544.5 c 128,-1,36
 676 547 676 547 693 547 c 2,37,-1
 758 547 l 2,38,39
 770 547 770 547 775.5 546.5 c 128,-1,40
 781 546 781 546 786.5 541.5 c 128,-1,41
 792 537 792 537 792 529 c 0,42,43
 792 514 792 514 772 511 c 0,44,45
 726 504 726 504 700 412 c 1,46,47
 687 362 687 362 665 321.5 c 128,-1,48
 643 281 643 281 607 243.5 c 128,-1,49
 571 206 571 206 513.5 182.5 c 128,-1,50
 456 159 456 159 380 152 c 1,51,-1
 355 51 l 1,52,53
 375 47 375 47 418 47 c 2,54,-1
 450 47 l 2,55,56
 462 47 462 47 468 46.5 c 128,-1,57
 474 46 474 46 479 41.5 c 128,-1,58
 484 37 484 37 484 28 c 0,59,60
 484 0 484 0 454 0 c 0,61,62
 440 0 440 0 411.5 1 c 128,-1,63
 383 2 383 2 368 2 c 128,-1,64
 353 2 353 2 323 2.5 c 128,-1,65
 293 3 293 3 278 3 c 128,-1,66
 263 3 263 3 233 2.5 c 128,-1,67
 203 2 203 2 188 2 c 0,68,69
 174 2 174 2 147 1 c 128,-1,70
 120 0 120 0 106 0 c 0,71,72
 84 0 84 0 84 18 c 0,73,74
 84 32 84 32 90 38.5 c 128,-1,75
 96 45 96 45 102 46 c 128,-1,76
 108 47 108 47 120 47 c 2,77,-1
 152 47 l 2,78,79
 216 47 216 47 223 52 c 1,80,81
 227 53 227 53 231 68 c 2,82,-1
 252 153 l 1,83,84
 153 165 153 165 105 209 c 1,85,86
 52 256 52 256 52 341 c 0,87,88
 52 377 52 377 62 417 c 1,89,90
 69 450 69 450 69 470 c 0,91,92
 69 488 69 488 65 497.5 c 128,-1,93
 61 507 61 507 57 508.5 c 128,-1,94
 53 510 53 510 45 511 c 0,95,96
 27 513 27 513 27 529 c 0,97,98
 27 547 27 547 61 547 c 2,99,-1
 126 547 l 2,100,101
 139 547 139 547 147.5 545.5 c 128,-1,102
 156 544 156 544 169.5 537.5 c 128,-1,103
 183 531 183 531 190 514 c 128,-1,104
 197 497 197 497 197 470 c 128,-1,105
 197 443 197 443 187 400 c 0,106,107
 175 350 175 350 175 316 c 0,108,109
 175 216 175 216 262 193 c 1,0,-1
EndSplineSet
EndChar

StartChar: Omega
Encoding: 937 937 76
Width: 878
VWidth: 1000
Flags: W
HStem: 0 100<148.32 282.714 600 732.872> 667 36<485.049 675.877>
VStem: 94 49<104.104 191.326> 172 141<306.72 489.472> 744 142<425.719 588.654> 775 49<136.821 193.389>
LayerCount: 2
Fore
SplineSet
600 100 m 1,0,-1
 672 100 l 2,1,2
 700 100 700 100 714.5 102 c 128,-1,3
 729 104 729 104 733 106.5 c 128,-1,4
 737 109 737 109 741 115 c 0,5,6
 751 129 751 129 775 180 c 0,7,8
 780 190 780 190 784.5 193.5 c 128,-1,9
 789 197 789 197 800 197 c 0,10,11
 824 197 824 197 824 179 c 0,12,13
 824 175 824 175 808 143 c 0,14,15
 761 43 761 43 748 16 c 0,16,17
 742 4 742 4 737 2 c 128,-1,18
 732 0 732 0 713 0 c 2,19,-1
 558 0 l 2,20,21
 546 0 546 0 540 0.5 c 128,-1,22
 534 1 534 1 529 5.5 c 128,-1,23
 524 10 524 10 524 19 c 0,24,25
 524 45 524 45 565 130 c 1,26,27
 593 184 593 184 637 256 c 0,28,29
 669 310 669 310 686.5 343 c 128,-1,30
 704 376 704 376 724 432.5 c 128,-1,31
 744 489 744 489 744 535 c 0,32,33
 744 574 744 574 729.5 601.5 c 128,-1,34
 715 629 715 629 690.5 642.5 c 128,-1,35
 666 656 666 656 640.5 661.5 c 128,-1,36
 615 667 615 667 586 667 c 0,37,38
 464 667 464 667 388.5 582 c 128,-1,39
 313 497 313 497 313 349 c 0,40,41
 313 330 313 330 315.5 299.5 c 128,-1,42
 318 269 318 269 320 246 c 2,43,-1
 322 223 l 1,44,45
 328 173 328 173 328 126 c 0,46,47
 328 83 328 83 322 47 c 0,48,49
 316 13 316 13 310.5 6.5 c 128,-1,50
 305 0 305 0 282 0 c 2,51,-1
 127 0 l 2,52,53
 102 0 102 0 97.5 6 c 128,-1,54
 93 12 93 12 93 42 c 2,55,-1
 94 101 l 2,56,57
 94 151 94 151 95 163 c 0,58,59
 96 178 96 178 97 183.5 c 128,-1,60
 98 189 98 189 103 193 c 128,-1,61
 108 197 108 197 119 197 c 0,62,63
 132 197 132 197 137.5 191.5 c 128,-1,64
 143 186 143 186 143 172 c 0,65,66
 143 168 143 168 142.5 162 c 128,-1,67
 142 156 142 156 142 152 c 0,68,69
 142 107 142 107 148 104 c 0,70,71
 158 100 158 100 200 100 c 2,72,-1
 283 100 l 1,73,74
 275 148 275 148 228 234 c 1,75,76
 172 339 172 339 172 406 c 0,77,78
 172 460 172 460 198.5 511.5 c 128,-1,79
 225 563 225 563 274.5 606.5 c 128,-1,80
 324 650 324 650 405 676.5 c 128,-1,81
 486 703 486 703 586 703 c 0,82,83
 740 703 740 703 813 646 c 128,-1,84
 886 589 886 589 886 503 c 0,85,86
 886 462 886 462 872 423.5 c 128,-1,87
 858 385 858 385 824.5 343.5 c 128,-1,88
 791 302 791 302 766 276 c 128,-1,89
 741 250 741 250 689 201 c 1,90,91
 628 140 628 140 600 100 c 1,0,-1
EndSplineSet
EndChar

StartChar: alpha
Encoding: 945 945 77
Width: 760
VWidth: 1000
Flags: W
HStem: -8 36<194.627 356.872 595.562 648.727> 416 36<289.388 414.103>
VStem: 46 115<76.2383 240.888> 472 112<92.957 190.1 228 332.316>
LayerCount: 2
Fore
SplineSet
584 164 m 1,0,1
 584 28 584 28 611 28 c 0,2,3
 615 28 615 28 622 29.5 c 128,-1,4
 629 31 629 31 641 39 c 128,-1,5
 653 47 653 47 658 60 c 0,6,7
 661 69 661 69 665.5 71 c 128,-1,8
 670 73 670 73 681 73 c 0,9,10
 704 73 704 73 704 59 c 0,11,12
 704 39 704 39 676 15.5 c 128,-1,13
 648 -8 648 -8 604 -8 c 0,14,15
 561 -8 561 -8 530 14.5 c 128,-1,16
 499 37 499 37 484 71 c 1,17,18
 374 -8 374 -8 253 -8 c 0,19,20
 158 -8 158 -8 102 37.5 c 128,-1,21
 46 83 46 83 46 165 c 0,22,23
 46 215 46 215 67 264.5 c 128,-1,24
 88 314 88 314 126 356.5 c 128,-1,25
 164 399 164 399 225.5 425.5 c 128,-1,26
 287 452 287 452 360 452 c 0,27,28
 462 452 462 452 524 389 c 0,29,30
 549 364 549 364 562 332 c 128,-1,31
 575 300 575 300 577 280.5 c 128,-1,32
 579 261 579 261 580 228 c 1,33,34
 626 293 626 293 651 381 c 0,35,36
 655 396 655 396 658.5 399 c 128,-1,37
 662 402 662 402 676 402 c 0,38,39
 700 402 700 402 700 388 c 0,40,41
 700 381 700 381 692 353 c 128,-1,42
 684 325 684 325 655 268.5 c 128,-1,43
 626 212 626 212 584 164 c 1,0,1
258 28 m 0,44,45
 319 28 319 28 386 57 c 0,46,47
 409 67 409 67 440.5 87 c 128,-1,48
 472 107 472 107 472 115 c 0,49,50
 472 129 472 129 469.5 164.5 c 128,-1,51
 467 200 467 200 467 208 c 0,52,53
 465 253 465 253 461 283 c 128,-1,54
 457 313 457 313 446.5 347 c 128,-1,55
 436 381 436 381 414 398.5 c 128,-1,56
 392 416 392 416 359 416 c 0,57,58
 318 416 318 416 277.5 392 c 128,-1,59
 237 368 237 368 214 323 c 0,60,61
 193 283 193 283 177 216.5 c 128,-1,62
 161 150 161 150 161 121 c 0,63,64
 161 74 161 74 187.5 51 c 128,-1,65
 214 28 214 28 258 28 c 0,44,45
EndSplineSet
EndChar

StartChar: beta
Encoding: 946 946 78
Width: 659
VWidth: 1000
Flags: W
HStem: -194 21G<28 45> -12 36<242.256 402.091> 348 36<362.134 471.987> 408 36<362.34 472.695> 666 36<403.563 540.978>
VStem: 314 48<384.941 404.74> 527 115<197.406 358.7> 553 102<497.299 645.501>
LayerCount: 2
Fore
SplineSet
20 -164 m 1,0,-1
 172 446 l 2,1,2
 199 554 199 554 295 628 c 128,-1,3
 391 702 391 702 499 702 c 0,4,5
 571 702 571 702 613 667 c 128,-1,6
 655 632 655 632 655 569 c 0,7,8
 655 521 655 521 631.5 475.5 c 128,-1,9
 608 430 608 430 578 405 c 1,10,11
 642 357 642 357 642 272 c 0,12,13
 642 204 642 204 607 140.5 c 128,-1,14
 572 77 572 77 498 32.5 c 128,-1,15
 424 -12 424 -12 329 -12 c 0,16,17
 189 -12 189 -12 130 87 c 1,18,19
 129 85 129 85 98.5 -37.5 c 128,-1,20
 68 -160 68 -160 66 -171 c 0,21,22
 63 -183 63 -183 61 -186.5 c 128,-1,23
 59 -190 59 -190 54.5 -192 c 128,-1,24
 50 -194 50 -194 40 -194 c 0,25,26
 16 -194 16 -194 16 -180 c 0,27,28
 16 -172 16 -172 20 -164 c 1,0,-1
473 401 m 1,29,30
 454 408 454 408 424 408 c 0,31,32
 362 408 362 408 362 392 c 0,33,34
 362 384 362 384 410 384 c 0,35,36
 449 384 449 384 473 401 c 1,29,30
507 436 m 1,37,38
 523 464 523 464 538 524 c 128,-1,39
 553 584 553 584 553 609 c 0,40,41
 553 666 553 666 494 666 c 0,42,43
 407 666 407 666 327 602.5 c 128,-1,44
 247 539 247 539 222 455 c 0,45,46
 217 436 217 436 205.5 391.5 c 128,-1,47
 194 347 194 347 181 294.5 c 128,-1,48
 168 242 168 242 163 221 c 0,49,50
 156 186 156 186 156 170 c 0,51,52
 156 104 156 104 205.5 64 c 128,-1,53
 255 24 255 24 327 24 c 0,54,55
 418 24 418 24 470 106 c 1,56,57
 491 142 491 142 509 213 c 128,-1,58
 527 284 527 284 527 315 c 128,-1,59
 527 346 527 346 516 367 c 1,60,61
 471 348 471 348 409 348 c 0,62,63
 390 348 390 348 378.5 349 c 128,-1,64
 367 350 367 350 349.5 353.5 c 128,-1,65
 332 357 332 357 323 366 c 128,-1,66
 314 375 314 375 314 390 c 0,67,68
 314 444 314 444 427 444 c 0,69,70
 474 444 474 444 507 436 c 1,37,38
EndSplineSet
EndChar

StartChar: gamma
Encoding: 947 947 79
Width: 590
VWidth: 1000
Flags: W
HStem: 342 110<143.479 318.251> 424 20G<587 605.5>
VStem: 12 47<256.033 303.25>
LayerCount: 2
Fore
SplineSet
449 190 m 1,0,1
 481 262 481 262 512 324 c 128,-1,2
 543 386 543 386 558 412 c 128,-1,3
 573 438 573 438 575 440 c 0,4,5
 580 444 580 444 594 444 c 0,6,7
 617 444 617 444 617 430 c 0,8,9
 617 427 617 427 600 396 c 0,10,11
 511 236 511 236 454 77 c 0,12,13
 451 70 451 70 450 55 c 0,14,15
 436 -66 436 -66 404 -162 c 0,16,17
 388 -211 388 -211 363 -211 c 0,18,19
 339 -211 339 -211 339 -176 c 0,20,21
 339 -124 339 -124 397 50 c 0,22,23
 406 77 406 77 406 118 c 0,24,25
 406 229 406 229 371 281 c 1,26,27
 328 342 328 342 216 342 c 0,28,29
 84 342 84 342 59 268 c 0,30,31
 54 256 54 256 35 256 c 0,32,33
 12 256 12 256 12 271 c 0,34,35
 12 288 12 288 28 317 c 128,-1,36
 44 346 44 346 71 376.5 c 128,-1,37
 98 407 98 407 143 429.5 c 128,-1,38
 188 452 188 452 237 452 c 0,39,40
 281 452 281 452 317.5 430.5 c 128,-1,41
 354 409 354 409 376 379.5 c 128,-1,42
 398 350 398 350 415 311 c 128,-1,43
 432 272 432 272 439 243.5 c 128,-1,44
 446 215 446 215 449 190 c 1,0,1
EndSplineSet
EndChar

StartChar: delta
Encoding: 948 948 80
Width: 522
VWidth: 1000
Flags: W
HStem: -12 36<187.338 293.276> 603 98<410.261 499.586> 671 47<270.307 376.058>
VStem: 46 104<72.1958 245.343> 224 43<594.683 664.889> 362 114<171.954 343.447>
LayerCount: 2
Fore
SplineSet
284 444 m 1,0,1
 224 551 224 551 224 608 c 0,2,3
 224 659 224 659 258.5 688.5 c 128,-1,4
 293 718 293 718 337 718 c 0,5,6
 368 718 368 718 443 701 c 0,7,8
 487 692 487 692 500 685 c 128,-1,9
 513 678 513 678 513 657 c 0,10,11
 513 637 513 637 497.5 620 c 128,-1,12
 482 603 482 603 460 603 c 0,13,14
 436 603 436 603 388 641 c 1,15,16
 346 671 346 671 314 671 c 0,17,18
 297 671 297 671 285.5 663.5 c 128,-1,19
 274 656 274 656 270.5 649.5 c 128,-1,20
 267 643 267 643 267 639 c 0,21,22
 267 627 267 627 279 607.5 c 128,-1,23
 291 588 291 588 318.5 559.5 c 128,-1,24
 346 531 346 531 357.5 519.5 c 128,-1,25
 369 508 369 508 399 480 c 0,26,27
 437 445 437 445 456.5 407 c 128,-1,28
 476 369 476 369 476 308 c 0,29,30
 476 183 476 183 410.5 85.5 c 128,-1,31
 345 -12 345 -12 249 -12 c 0,32,33
 162 -12 162 -12 104 32 c 128,-1,34
 46 76 46 76 46 162 c 0,35,36
 46 198 46 198 59 238 c 128,-1,37
 72 278 72 278 98 320 c 128,-1,38
 124 362 124 362 172.5 395.5 c 128,-1,39
 221 429 221 429 284 444 c 1,0,1
306 407 m 1,40,41
 236 385 236 385 196 311 c 1,42,43
 181 280 181 280 165.5 220.5 c 128,-1,44
 150 161 150 161 150 125 c 0,45,46
 150 75 150 75 175 51 c 1,47,48
 205 24 205 24 252 24 c 0,49,50
 290 24 290 24 317 71.5 c 128,-1,51
 344 119 344 119 353 165.5 c 128,-1,52
 362 212 362 212 362 242 c 0,53,54
 362 320 362 320 306 407 c 1,40,41
EndSplineSet
EndChar

StartChar: varepsilon
Encoding: 949 949 81
Width: 528
VWidth: 1000
Flags: W
HStem: -17 76<106.013 346.089> 188 36<177.7 299.61> 248 36<178.467 303> 385 76<201.596 403.336>
VStem: 35 49<84.69 182.592> 79 47<259.637 341.915>
LayerCount: 2
Fore
SplineSet
412 108 m 1,0,-1
 415.5 109.5 l 2,1,2
 419 111 419 111 422 111 c 0,3,4
 429 111 429 111 434 106 c 128,-1,5
 439 101 439 101 439 94 c 0,6,7
 439 88 439 88 432.5 76 c 128,-1,8
 426 64 426 64 410 48 c 128,-1,9
 394 32 394 32 370.5 17.5 c 128,-1,10
 347 3 347 3 308.5 -7 c 128,-1,11
 270 -17 270 -17 224 -17 c 0,12,13
 129 -17 129 -17 82 20 c 128,-1,14
 35 57 35 57 35 113 c 0,15,16
 35 182 35 182 100 236 c 1,17,18
 79 260 79 260 79 294 c 0,19,20
 79 355 79 355 146.5 408 c 128,-1,21
 214 461 214 461 333 461 c 0,22,23
 386 461 386 461 430 441 c 0,24,25
 459 427 459 427 471 416 c 128,-1,26
 483 405 483 405 483 392 c 0,27,28
 483 375 483 375 468.5 361 c 128,-1,29
 454 347 454 347 438 347 c 0,30,31
 429 347 429 347 416 355 c 0,32,33
 373 385 373 385 314 385 c 0,34,35
 226 385 226 385 176 360.5 c 128,-1,36
 126 336 126 336 126 294 c 0,37,38
 126 274 126 274 138 259 c 1,39,40
 191 284 191 284 265 284 c 0,41,42
 282 284 282 284 292.5 283 c 128,-1,43
 303 282 303 282 318.5 279 c 128,-1,44
 334 276 334 276 342 266.5 c 128,-1,45
 350 257 350 257 350 243 c 0,46,47
 350 188 350 188 247 188 c 0,48,49
 175 188 175 188 134 210 c 1,50,51
 109 192 109 192 96.5 168 c 128,-1,52
 84 144 84 144 84 126 c 0,53,54
 84 102 84 102 98 87.5 c 128,-1,55
 112 73 112 73 140.5 67.5 c 128,-1,56
 169 62 169 62 188.5 60.5 c 128,-1,57
 208 59 208 59 241 59 c 0,58,59
 317 59 317 59 356.5 68 c 128,-1,60
 396 77 396 77 412 108 c 1,0,-1
177 235 m 1,61,62
 205 224 205 224 248 224 c 0,63,64
 271 224 271 224 283 226.5 c 128,-1,65
 295 229 295 229 298 232.5 c 128,-1,66
 301 236 301 236 303 243 c 1,67,68
 288 248 288 248 261 248 c 0,69,70
 213 248 213 248 177 235 c 1,61,62
EndSplineSet
EndChar

StartChar: zeta
Encoding: 950 950 82
Width: 508
VWidth: 1000
Flags: W
HStem: -202 36<258.397 359.536> -185.5 49.5<214.631 283.421> 522 36<375.655 473.998> 582 36<375.722 475> 683 20G<335.5 353>
VStem: 48 92<125.118 290.428> 319 46<608.406 681.874> 366 86<-142.265 -56>
LayerCount: 2
Fore
SplineSet
256 68 m 2,0,-1
 344 41 l 2,1,2
 366 35 366 35 379.5 29.5 c 128,-1,3
 393 24 393 24 412.5 11.5 c 128,-1,4
 432 -1 432 -1 442 -21.5 c 128,-1,5
 452 -42 452 -42 452 -70 c 0,6,7
 452 -117 452 -117 417 -159.5 c 128,-1,8
 382 -202 382 -202 330 -202 c 0,9,10
 293 -202 293 -202 252 -185.5 c 128,-1,11
 211 -169 211 -169 211 -154 c 0,12,13
 211 -148 211 -148 216.5 -142 c 128,-1,14
 222 -136 222 -136 230 -136 c 0,15,16
 235 -136 235 -136 245 -141 c 0,17,18
 288 -166 288 -166 330 -166 c 0,19,20
 345 -166 345 -166 354 -155.5 c 128,-1,21
 363 -145 363 -145 364.5 -137.5 c 128,-1,22
 366 -130 366 -130 366 -125 c 0,23,24
 366 -99 366 -99 348 -87.5 c 128,-1,25
 330 -76 330 -76 290 -65 c 1,26,27
 188 -34 188 -34 156.5 -20.5 c 128,-1,28
 125 -7 125 -7 97 23 c 0,29,30
 48 78 48 78 48 163 c 0,31,32
 48 288 48 288 130 407.5 c 128,-1,33
 212 527 212 527 323 589 c 1,34,35
 319 604 319 604 319 627 c 0,36,37
 319 703 319 703 352 703 c 0,38,39
 354 703 354 703 358 702 c 128,-1,40
 362 701 362 701 367.5 696 c 128,-1,41
 373 691 373 691 373 682 c 0,42,43
 373 678 373 678 371 670 c 0,44,45
 363 638 363 638 365 608 c 1,46,47
 393 618 393 618 430 618 c 0,48,49
 450 618 450 618 463.5 617 c 128,-1,50
 477 616 477 616 492 612 c 128,-1,51
 507 608 507 608 514.5 599 c 128,-1,52
 522 590 522 590 522 576 c 0,53,54
 522 522 522 522 414 522 c 0,55,56
 361 522 361 522 339 552 c 1,57,58
 264 505 264 505 202 406.5 c 128,-1,59
 140 308 140 308 140 212 c 0,60,61
 140 174 140 174 151 146.5 c 128,-1,62
 162 119 162 119 183 103.5 c 128,-1,63
 204 88 204 88 218.5 81.5 c 128,-1,64
 233 75 233 75 256 68 c 2,0,-1
375 571 m 1,65,66
 383 558 383 558 414 558 c 0,67,68
 437 558 437 558 451 560 c 0,69,70
 467 563 467 563 475 575 c 1,71,72
 458 582 458 582 427 582 c 0,73,74
 395 582 395 582 375 571 c 1,65,66
EndSplineSet
EndChar

StartChar: eta
Encoding: 951 951 83
Width: 600
VWidth: 1000
Flags: W
HStem: -8 21G<131 151> 416 36<119.188 172.799 367.144 476.195>
VStem: 32 52<287.038 364.34> 487 107<245.641 408.043>
LayerCount: 2
Fore
SplineSet
586 280 m 2,0,-1
 478 -150 l 2,1,2
 463 -211 463 -211 411 -211 c 0,3,4
 393 -211 393 -211 378.5 -200 c 128,-1,5
 364 -189 364 -189 364 -167 c 0,6,7
 364 -157 364 -157 368 -141 c 2,8,-1
 479 300 l 1,9,10
 487 336 487 336 487 357 c 0,11,12
 487 416 487 416 437 416 c 0,13,14
 384 416 384 416 334 377 c 0,15,16
 312 359 312 359 292.5 332.5 c 128,-1,17
 273 306 273 306 272 299 c 0,18,19
 271 298 271 298 264 271 c 128,-1,20
 257 244 257 244 250 214.5 c 128,-1,21
 243 185 243 185 241 180 c 0,22,23
 227 120 227 120 213 68 c 0,24,25
 209 53 209 53 205.5 43 c 128,-1,26
 202 33 202 33 194.5 19.5 c 128,-1,27
 187 6 187 6 173.5 -1 c 128,-1,28
 160 -8 160 -8 142 -8 c 0,29,30
 120 -8 120 -8 107.5 5.5 c 128,-1,31
 95 19 95 19 95 36 c 0,32,33
 95 39 95 39 103 76 c 1,34,-1
 139 216 l 2,35,36
 144 238 144 238 161 306 c 0,37,38
 175 362 175 362 175 379 c 0,39,40
 175 416 175 416 152 416 c 0,41,42
 109 416 109 416 84 316 c 0,43,44
 77 288 77 288 76 287 c 0,45,46
 71 282 71 282 56 282 c 0,47,48
 32 282 32 282 32 296 c 0,49,50
 32 300 32 300 36 314.5 c 128,-1,51
 40 329 40 329 49.5 353 c 128,-1,52
 59 377 59 377 70 395 c 0,53,54
 103 452 103 452 157 452 c 0,55,56
 200 452 200 452 235 432 c 128,-1,57
 270 412 270 412 280 376 c 1,58,59
 351 452 351 452 445 452 c 0,60,61
 509 452 509 452 551.5 425.5 c 128,-1,62
 594 399 594 399 594 336 c 0,63,64
 594 309 594 309 586 280 c 2,0,-1
EndSplineSet
EndChar

StartChar: theta
Encoding: 952 952 84
Width: 561
VWidth: 1000
Flags: W
HStem: -8 36<175.756 263.377> 323 48<198 395> 666 36<330.142 419.111>
VStem: 46 107<83.9772 277.553> 440 107<415.102 610.784>
CounterMasks: 1 e0
LayerCount: 2
Fore
SplineSet
547 490 m 0,0,1
 547 419 547 419 520 317.5 c 128,-1,2
 493 216 493 216 436 133 c 1,3,4
 388 61 388 61 327.5 26.5 c 128,-1,5
 267 -8 267 -8 212 -8 c 0,6,7
 140 -8 140 -8 93 45.5 c 128,-1,8
 46 99 46 99 46 203 c 0,9,10
 46 267 46 267 68.5 356.5 c 128,-1,11
 91 446 91 446 128 514 c 0,12,13
 181 610 181 610 249 656 c 128,-1,14
 317 702 317 702 382 702 c 0,15,16
 408 702 408 702 434 693 c 128,-1,17
 460 684 460 684 487 662.5 c 128,-1,18
 514 641 514 641 530.5 596.5 c 128,-1,19
 547 552 547 552 547 490 c 0,0,1
198 371 m 1,20,-1
 407 371 l 1,21,22
 440 497 440 497 440 563 c 0,23,24
 440 666 440 666 380 666 c 0,25,26
 321 666 321 666 268 572 c 0,27,28
 231 508 231 508 198 371 c 1,20,-1
395 323 m 1,29,-1
 186 323 l 1,30,31
 153 194 153 194 153 130 c 0,32,33
 153 90 153 90 165 63 c 0,34,35
 181 28 181 28 214 28 c 0,36,37
 227 28 227 28 240.5 32.5 c 128,-1,38
 254 37 254 37 275 55 c 128,-1,39
 296 73 296 73 315 103 c 128,-1,40
 334 133 334 133 355.5 190 c 128,-1,41
 377 247 377 247 395 323 c 1,29,-1
EndSplineSet
EndChar

StartChar: iota
Encoding: 953 953 85
Width: 412
VWidth: 1000
Flags: W
HStem: -8 36<153.184 239.367> 432 20G<182.5 216>
VStem: 46 102<28.586 128.915> 139 113<315.778 434.286> 331 47<104.088 161.971>
LayerCount: 2
Fore
SplineSet
378 148 m 0,0,1
 378 141 378 141 372.5 126 c 128,-1,2
 367 111 367 111 348.5 85.5 c 128,-1,3
 330 60 330 60 303 40 c 0,4,5
 237 -8 237 -8 162 -8 c 0,6,7
 112 -8 112 -8 79 17 c 128,-1,8
 46 42 46 42 46 82 c 0,9,10
 46 100 46 100 60.5 136 c 128,-1,11
 75 172 75 172 76 177 c 0,12,13
 79 188 79 188 80.5 193.5 c 128,-1,14
 82 199 82 199 82.5 199.5 c 128,-1,15
 83 200 83 200 83.5 201 c 128,-1,16
 84 202 84 202 84 202.5 c 128,-1,17
 84 203 84 203 86 209 c 128,-1,18
 88 215 88 215 91 225 c 0,19,20
 102 265 102 265 109 283 c 1,21,-1
 118 318.5 l 2,22,23
 127 354 127 354 131 365 c 0,24,25
 132 367 132 367 134.5 381 c 128,-1,26
 137 395 137 395 139 399 c 0,27,28
 160 452 160 452 205 452 c 0,29,30
 227 452 227 452 239.5 438.5 c 128,-1,31
 252 425 252 425 252 408 c 0,32,33
 252 402 252 402 241.5 360 c 128,-1,34
 231 318 231 318 209.5 246 c 128,-1,35
 188 174 188 174 164 113 c 1,36,37
 148 68 148 68 148 49 c 0,38,39
 148 39 148 39 151.5 34 c 128,-1,40
 155 29 155 29 158 28.5 c 128,-1,41
 161 28 161 28 167 28 c 0,42,43
 190 28 190 28 219 37 c 128,-1,44
 248 46 248 46 282.5 75.5 c 128,-1,45
 317 105 317 105 331 149 c 0,46,47
 335 162 335 162 354 162 c 0,48,49
 378 162 378 162 378 148 c 0,0,1
EndSplineSet
EndChar

StartChar: kappa
Encoding: 954 954 86
Width: 667
VWidth: 1000
Flags: W
HStem: -8 36<485.09 539.446> 327 117<470.439 555.495> 432 20G<196 216>
VStem: 50 108<5.92273 115> 369 107<34.7629 142.247> 376 111<82.1233 184.465> 585 49<84.3987 158.904>
LayerCount: 2
Fore
SplineSet
60 82 m 2,0,-1
 104 258 l 1,1,-1
 139 399 l 2,2,3
 147 428 147 428 167 440 c 128,-1,4
 187 452 187 452 205 452 c 0,5,6
 227 452 227 452 239.5 438.5 c 128,-1,7
 252 425 252 425 252 408 c 0,8,9
 252 401 252 401 236 336 c 0,10,11
 233 325 233 325 227.5 302.5 c 128,-1,12
 222 280 222 280 219 269 c 1,13,14
 258 287 258 287 341 352 c 0,15,16
 374 379 374 379 395 394 c 128,-1,17
 416 409 416 409 454 426.5 c 128,-1,18
 492 444 492 444 524 444 c 0,19,20
 545 444 545 444 557.5 434.5 c 128,-1,21
 570 425 570 425 573 415.5 c 128,-1,22
 576 406 576 406 576 397 c 0,23,24
 576 372 576 372 555.5 349.5 c 128,-1,25
 535 327 535 327 505 327 c 0,26,27
 484 327 484 327 470 339.5 c 128,-1,28
 456 352 456 352 456 374 c 0,29,30
 456 383 456 383 459 392 c 1,31,32
 416 371 416 371 353 320 c 1,33,34
 282 265 282 265 263 254 c 1,35,36
 366 245 366 245 406 233 c 0,37,38
 487 208 487 208 487 143 c 0,39,40
 487 132 487 132 482 110 c 0,41,42
 476 88 476 88 476 68 c 0,43,44
 476 50 476 50 481 40.5 c 128,-1,45
 486 31 486 31 490.5 29.5 c 128,-1,46
 495 28 495 28 502 28 c 0,47,48
 554 28 554 28 585 142 c 0,49,50
 589 156 589 156 593 159 c 128,-1,51
 597 162 597 162 610 162 c 0,52,53
 634 162 634 162 634 148 c 0,54,55
 634 142 634 142 626 119.5 c 128,-1,56
 618 97 618 97 603.5 67.5 c 128,-1,57
 589 38 589 38 560 15 c 128,-1,58
 531 -8 531 -8 497 -8 c 0,59,60
 445 -8 445 -8 407 20.5 c 128,-1,61
 369 49 369 49 369 95 c 0,62,63
 369 115 369 115 373 119 c 1,64,65
 376 137 376 137 376 142 c 0,66,67
 376 213 376 213 206 217 c 1,68,-1
 167 64 l 2,69,70
 163 45 163 45 158 32.5 c 128,-1,71
 153 20 153 20 137 6 c 128,-1,72
 121 -8 121 -8 97 -8 c 0,73,74
 75 -8 75 -8 62.5 5.5 c 128,-1,75
 50 19 50 19 50 36 c 0,76,77
 50 44 50 44 60 82 c 2,0,-1
EndSplineSet
EndChar

StartChar: lambda
Encoding: 955 955 87
Width: 670
VWidth: 1000
Flags: W
HStem: -8 21G<85.5 101.5 539.5 622> 658 36<180.8 221.474>
LayerCount: 2
Fore
SplineSet
359 638 m 2,0,-1
 615 61 l 2,1,2
 630 27 630 27 639 18 c 1,3,4
 644 10 644 10 644 6 c 0,5,6
 644 -4 644 -4 637 -6 c 128,-1,7
 630 -8 630 -8 614 -8 c 2,8,-1
 564 -8 l 2,9,10
 515 -8 515 -8 501 20 c 0,11,12
 500 24 500 24 494 37.5 c 128,-1,13
 488 51 488 51 486 55 c 2,14,-1
 390 271 l 1,15,16
 368 250 368 250 303.5 180.5 c 128,-1,17
 239 111 239 111 226 98 c 0,18,19
 177 49 177 49 171 40 c 1,20,21
 153 20 153 20 144.5 12 c 128,-1,22
 136 4 136 4 122 -4 c 128,-1,23
 108 -12 108 -12 95 -12 c 0,24,25
 76 -12 76 -12 61.5 2 c 128,-1,26
 47 16 47 16 47 36 c 0,27,28
 47 65 47 65 79 89 c 1,29,-1
 368 322 l 1,30,31
 237 619 237 619 229 631 c 0,32,33
 213 655 213 655 186 658 c 0,34,35
 184 658 184 658 181.5 659 c 128,-1,36
 179 660 179 660 175 664 c 128,-1,37
 171 668 171 668 171 675 c 0,38,39
 171 688 171 688 180.5 691 c 128,-1,40
 190 694 190 694 211 694 c 0,41,42
 255 694 255 694 284 689.5 c 128,-1,43
 313 685 313 685 327.5 675.5 c 128,-1,44
 342 666 342 666 347.5 659 c 128,-1,45
 353 652 353 652 359 638 c 2,0,-1
EndSplineSet
EndChar

StartChar: mu
Encoding: 956 956 88
Width: 707
VWidth: 1000
Flags: W
HStem: -8 36<245.986 361.758 533.698 586.812> 424 28G<218.5 256 552.5 573>
VStem: 40 107<-199.336 -99.5156> 622 52<79.6602 156.962>
LayerCount: 2
Fore
SplineSet
275 332 m 1,0,-1
 235 176 l 1,1,2
 225 131 225 131 225 107 c 0,3,4
 225 28 225 28 299 28 c 0,5,6
 345 28 345 28 388 64 c 0,7,8
 422 93 422 93 427 114 c 2,9,-1
 496 391 l 2,10,11
 503 419 503 419 523 431.5 c 128,-1,12
 543 444 543 444 562 444 c 0,13,14
 584 444 584 444 596.5 430.5 c 128,-1,15
 609 417 609 417 609 400 c 0,16,17
 609 391 609 391 593 330 c 0,18,19
 580 282 580 282 571 240 c 1,20,-1
 545 138 l 2,21,22
 531 82 531 82 531 65 c 0,23,24
 531 28 531 28 554 28 c 0,25,26
 597 28 597 28 622 128 c 0,27,28
 629 156 629 156 630 157 c 0,29,30
 635 162 635 162 650 162 c 0,31,32
 674 162 674 162 674 148 c 0,33,34
 674 144 674 144 670 129.5 c 128,-1,35
 666 115 666 115 656.5 91 c 128,-1,36
 647 67 647 67 636 49 c 0,37,38
 603 -8 603 -8 549 -8 c 0,39,40
 515 -8 515 -8 481.5 6.5 c 128,-1,41
 448 21 448 21 432 52 c 1,42,43
 365 -8 365 -8 292 -8 c 0,44,45
 234 -8 234 -8 193 8 c 1,46,47
 157 -152 157 -152 147 -172 c 0,48,49
 128 -211 128 -211 87 -211 c 0,50,51
 69 -211 69 -211 54.5 -200 c 128,-1,52
 40 -189 40 -189 40 -167 c 0,53,54
 40 -157 40 -157 44 -141 c 2,55,-1
 177 390 l 2,56,57
 192 452 192 452 245 452 c 0,58,59
 267 452 267 452 279.5 438.5 c 128,-1,60
 292 425 292 425 292 408 c 0,61,62
 292 406 292 406 275 332 c 1,0,-1
EndSplineSet
EndChar

StartChar: nu
Encoding: 957 957 89
Width: 576
VWidth: 1000
Flags: W
HStem: 0 21G<56.5 195.5> 397 46<69.3296 137.251>
LayerCount: 2
Fore
SplineSet
259 434 m 1,0,-1
 165 54 l 1,1,2
 269 88 269 88 368 184 c 1,3,4
 454 272 454 272 490 399 c 0,5,6
 499 429 499 429 519 440.5 c 128,-1,7
 539 452 539 452 556 452 c 0,8,9
 578 452 578 452 590.5 439 c 128,-1,10
 603 426 603 426 603 408 c 0,11,12
 603 395 603 395 593.5 364 c 128,-1,13
 584 333 584 333 546 271.5 c 128,-1,14
 508 210 508 210 448 160 c 0,15,16
 295 32 295 32 96 0 c 1,17,-1
 68 0 l 2,18,19
 45 0 45 0 45 18 c 1,20,-1
 138 395 l 1,21,22
 114 397 114 397 96 397 c 0,23,24
 69 397 69 397 69 415 c 0,25,26
 69 428 69 428 75 435 c 128,-1,27
 81 442 81 442 86.5 443 c 128,-1,28
 92 444 92 444 102 445 c 2,29,-1
 227 451 l 2,30,31
 259 453 259 453 259 434 c 1,0,-1
EndSplineSet
EndChar

StartChar: xi
Encoding: 958 958 90
Width: 508
VWidth: 1000
Flags: W
HStem: -202 36<243.151 356.381> -186.5 50.5<199.59 270.691> 251 36<259.076 374.006> 311 36<259.035 375.163> 522 36<342.423 441.463> 582 36<342.687 443.695> 683 20G<303.5 321>
VStem: 24 84<45.9961 175.522> 101 123<334.598 475.032> 287 45<614.102 681.874> 359 90<-148.815 -68.5>
LayerCount: 2
Fore
SplineSet
233 334 m 1,0,1
 279 347 279 347 329 347 c 0,2,3
 424 347 424 347 424 305 c 0,4,5
 424 251 424 251 311 251 c 0,6,7
 252 251 252 251 203 268 c 0,8,9
 198 270 198 270 196 270 c 0,10,11
 182 270 182 270 145 224.5 c 128,-1,12
 108 179 108 179 108 140 c 0,13,14
 108 123 108 123 116.5 109.5 c 128,-1,15
 125 96 125 96 142 86 c 128,-1,16
 159 76 159 76 170.5 71 c 128,-1,17
 182 66 182 66 201 60 c 2,18,-1
 267 38 l 2,19,20
 278 34 278 34 335 14.5 c 128,-1,21
 392 -5 392 -5 399 -8 c 0,22,23
 418 -16 418 -16 433.5 -35 c 128,-1,24
 449 -54 449 -54 449 -83 c 0,25,26
 449 -124 449 -124 416 -163 c 128,-1,27
 383 -202 383 -202 329 -202 c 0,28,29
 289 -202 289 -202 242 -186.5 c 128,-1,30
 195 -171 195 -171 195 -154 c 0,31,32
 195 -148 195 -148 200.5 -142 c 128,-1,33
 206 -136 206 -136 215 -136 c 0,34,35
 219 -136 219 -136 228 -141 c 0,36,37
 275 -166 275 -166 328 -166 c 0,38,39
 341 -166 341 -166 348.5 -158.5 c 128,-1,40
 356 -151 356 -151 357.5 -145.5 c 128,-1,41
 359 -140 359 -140 359 -136 c 0,42,43
 359 -122 359 -122 346 -115 c 0,44,45
 334 -108 334 -108 271 -88 c 1,46,-1
 156 -49 l 1,47,48
 24 -2 24 -2 24 94 c 0,49,50
 24 134 24 134 54.5 191.5 c 128,-1,51
 85 249 85 249 154 296 c 1,52,53
 132 312 132 312 116.5 339.5 c 128,-1,54
 101 367 101 367 101 400 c 0,55,56
 101 461 101 461 150 519 c 128,-1,57
 199 577 199 577 288 603 c 1,58,59
 287 610 287 610 287 626 c 0,60,61
 287 703 287 703 320 703 c 0,62,63
 322 703 322 703 326 702 c 128,-1,64
 330 701 330 701 335.5 696 c 128,-1,65
 341 691 341 691 341 682 c 0,66,67
 341 678 341 678 339 670 c 2,68,-1
 337.5 662.5 l 2,69,70
 336 655 336 655 334 641.5 c 128,-1,71
 332 628 332 628 332 614 c 1,72,73
 360 618 360 618 395 618 c 0,74,75
 416 618 416 618 428.5 617 c 128,-1,76
 441 616 441 616 458 612.5 c 128,-1,77
 475 609 475 609 483 600 c 128,-1,78
 491 591 491 591 491 576 c 0,79,80
 491 522 491 522 383 522 c 0,81,82
 330 522 330 522 308 552 c 1,83,84
 270 525 270 525 247 476.5 c 128,-1,85
 224 428 224 428 224 385 c 0,86,87
 224 358 224 358 233 334 c 1,0,1
342 573 m 1,88,89
 351 558 351 558 383 558 c 0,90,91
 431 558 431 558 441 569 c 0,92,93
 443 571 443 571 443.5 573 c 2,94,-1
 444 575 l 1,95,96
 425 582 425 582 394 582 c 0,97,98
 362 582 362 582 342 573 c 1,88,89
258 301 m 1,99,100
 276 287 276 287 314 287 c 0,101,102
 363 287 363 287 373 298 c 0,103,104
 374 298 374 298 375 301 c 2,105,-1
 376 304 l 1,106,107
 357 311 357 311 325 311 c 0,108,109
 286 311 286 311 258 301 c 1,99,100
EndSplineSet
EndChar

StartChar: omicron
Encoding: 959 959 91
Width: 584
VWidth: 1000
Flags: W
HStem: -8 36<193.88 327.618> 416 36<287.382 421.12>
VStem: 46 115<76.9021 240.495> 454 115<203.505 367.098>
LayerCount: 2
Fore
SplineSet
569 279 m 0,0,1
 569 230 569 230 548.5 180.5 c 128,-1,2
 528 131 528 131 490 88.5 c 128,-1,3
 452 46 452 46 390.5 19 c 128,-1,4
 329 -8 329 -8 254 -8 c 0,5,6
 156 -8 156 -8 101 38 c 128,-1,7
 46 84 46 84 46 165 c 0,8,9
 46 214 46 214 66.5 263.5 c 128,-1,10
 87 313 87 313 125 355.5 c 128,-1,11
 163 398 163 398 224.5 425 c 128,-1,12
 286 452 286 452 361 452 c 0,13,14
 459 452 459 452 514 406 c 128,-1,15
 569 360 569 360 569 279 c 0,0,1
256 28 m 128,-1,17
 295 28 295 28 333.5 49 c 128,-1,18
 372 70 372 70 398 115 c 0,19,20
 419 152 419 152 436.5 222.5 c 128,-1,21
 454 293 454 293 454 323 c 0,22,23
 454 374 454 374 426 395 c 128,-1,24
 398 416 398 416 359 416 c 128,-1,25
 320 416 320 416 281.5 395 c 128,-1,26
 243 374 243 374 217 329 c 0,27,28
 196 292 196 292 178.5 221.5 c 128,-1,29
 161 151 161 151 161 121 c 0,30,31
 161 70 161 70 189 49 c 128,-1,16
 217 28 217 28 256 28 c 128,-1,17
EndSplineSet
EndChar

StartChar: pi
Encoding: 960 960 92
Width: 682
VWidth: 1000
Flags: W
HStem: -8 21G<162 183.5 440.5 469.5> 348 96<140.966 262 312 424 471.1 647.526>
VStem: 124 112<9.47119 77.2004> 391 77<106 299.1>
LayerCount: 2
Fore
SplineSet
312 348 m 1,0,-1
 236 49 l 2,1,2
 230 24 230 24 215 9 c 1,3,4
 195 -8 195 -8 172 -8 c 0,5,6
 152 -8 152 -8 138 4.5 c 128,-1,7
 124 17 124 17 124 37 c 0,8,9
 124 50 124 50 143 86 c 0,10,11
 231 251 231 251 262 348 c 1,12,-1
 202 348 l 2,13,14
 117 348 117 348 79 301 c 0,15,16
 72 293 72 293 68.5 291 c 128,-1,17
 65 289 65 289 54 289 c 0,18,19
 31 289 31 289 31 303 c 0,20,21
 31 311 31 311 55.5 342 c 128,-1,22
 80 373 80 373 105 396 c 0,23,24
 158 444 158 444 222 444 c 2,25,-1
 615 444 l 2,26,27
 668 444 668 444 668 405 c 0,28,29
 668 383 668 383 648 363 c 0,30,31
 633 348 633 348 598 348 c 2,32,-1
 474 348 l 1,33,34
 468 308 468 308 468 274 c 0,35,36
 468 170 468 170 514 89 c 0,37,38
 526 69 526 69 526 56 c 0,39,40
 526 32 526 32 504 11.5 c 128,-1,41
 482 -9 482 -9 457 -9 c 0,42,43
 424 -9 424 -9 407.5 34 c 128,-1,44
 391 77 391 77 391 135 c 0,45,46
 391 208 391 208 424 348 c 1,47,-1
 312 348 l 1,0,-1
EndSplineSet
EndChar

StartChar: rho
Encoding: 961 961 93
Width: 611
VWidth: 1000
Flags: W
HStem: -8 36<243.058 366.811> 416 36<346.074 462.052>
VStem: 483 114<212.622 374.218>
LayerCount: 2
Fore
SplineSet
44 -141 m 2,0,-1
 137 229 l 2,1,2
 161 327 161 327 236.5 389.5 c 128,-1,3
 312 452 312 452 412 452 c 0,4,5
 497 452 497 452 547 408.5 c 128,-1,6
 597 365 597 365 597 285 c 0,7,8
 597 235 597 235 577 184 c 128,-1,9
 557 133 557 133 521.5 90 c 128,-1,10
 486 47 486 47 429.5 19.5 c 128,-1,11
 373 -8 373 -8 306 -8 c 0,12,13
 240 -8 240 -8 199 31 c 1,14,15
 151 -161 151 -161 147 -171 c 0,16,17
 129 -211 129 -211 87 -211 c 0,18,19
 69 -211 69 -211 54.5 -200 c 128,-1,20
 40 -189 40 -189 40 -167 c 0,21,22
 40 -157 40 -157 44 -141 c 2,0,-1
255 255 m 1,23,-1
 226 137 l 1,24,25
 213 93 213 93 213 85 c 0,26,27
 213 81 213 81 218.5 72.5 c 128,-1,28
 224 64 224 64 234 53.5 c 128,-1,29
 244 43 244 43 263 35.5 c 128,-1,30
 282 28 282 28 305 28 c 0,31,32
 342 28 342 28 377 52 c 128,-1,33
 412 76 412 76 434 127 c 1,34,35
 448 162 448 162 465.5 231.5 c 128,-1,36
 483 301 483 301 483 335 c 0,37,38
 483 416 483 416 410 416 c 0,39,40
 357 416 357 416 320 377 c 1,41,42
 278 337 278 337 255 255 c 1,23,-1
EndSplineSet
EndChar

StartChar: sigmafinal
Encoding: 962 962 94
Width: 423
VWidth: 1000
Flags: W
HStem: -105 36<207.52 298.063> -94.5 36.5<200.157 269.312> 416 36<239.477 401.842>
VStem: 35 85<208.444 300.187> 302 91<-48.1992 44>
LayerCount: 2
Fore
SplineSet
393 21 m 0,0,1
 393 -26 393 -26 357 -65.5 c 128,-1,2
 321 -105 321 -105 271 -105 c 0,3,4
 263 -105 263 -105 247.5 -103.5 c 128,-1,5
 232 -102 232 -102 213.5 -94.5 c 128,-1,6
 195 -87 195 -87 195 -76 c 0,7,8
 195 -69 195 -69 200 -63.5 c 128,-1,9
 205 -58 205 -58 214 -58 c 0,10,11
 220 -58 220 -58 225 -60 c 0,12,13
 248 -69 248 -69 270 -69 c 0,14,15
 284 -69 284 -69 292 -59.5 c 128,-1,16
 300 -50 300 -50 301 -44 c 128,-1,17
 302 -38 302 -38 302 -34 c 0,18,19
 302 -13 302 -13 281 0 c 1,20,21
 250 16 250 16 208 35 c 0,22,23
 109 81 109 81 85 103 c 0,24,25
 35 150 35 150 35 214 c 0,26,27
 35 307 35 307 126 379.5 c 128,-1,28
 217 452 217 452 346 452 c 0,29,30
 462 452 462 452 462 413 c 0,31,32
 462 403 462 403 454 394 c 128,-1,33
 446 385 446 385 434 385 c 0,34,35
 426 385 426 385 412 393 c 0,36,37
 370 416 370 416 335 416 c 0,38,39
 253 416 253 416 186.5 371 c 128,-1,40
 120 326 120 326 120 264 c 0,41,42
 120 226 120 226 153 198 c 1,43,44
 173 183 173 183 255 145 c 0,45,46
 342 104 342 104 353 96 c 0,47,48
 393 67 393 67 393 21 c 0,0,1
EndSplineSet
EndChar

StartChar: sigma
Encoding: 963 963 95
Width: 685
VWidth: 1000
Flags: W
HStem: -8 36<171.26 303.474> 348 96<231.495 392.428 505 650.526>
VStem: 42 103<64.906 229.414> 411 108<165.573 330.83>
LayerCount: 2
Fore
SplineSet
339 444 m 2,0,-1
 618 444 l 2,1,2
 671 444 671 444 671 405 c 0,3,4
 671 383 671 383 651 363 c 0,5,6
 636 348 636 348 601 348 c 2,7,-1
 505 348 l 1,8,9
 519 314 519 314 519 272 c 0,10,11
 519 159 519 159 440 75.5 c 128,-1,12
 361 -8 361 -8 230 -8 c 0,13,14
 146 -8 146 -8 94 32.5 c 128,-1,15
 42 73 42 73 42 151 c 0,16,17
 42 184 42 184 53 221.5 c 128,-1,18
 64 259 64 259 88 299 c 128,-1,19
 112 339 112 339 145.5 371 c 128,-1,20
 179 403 179 403 229.5 423.5 c 128,-1,21
 280 444 280 444 339 444 c 2,0,-1
232 28 m 0,22,23
 312 28 312 28 359 99 c 0,24,25
 381 132 381 132 396 191 c 128,-1,26
 411 250 411 250 411 278 c 0,27,28
 411 311 411 311 393 329.5 c 128,-1,29
 375 348 375 348 319 348 c 0,30,31
 228 348 228 348 190 284 c 0,32,33
 174 258 174 258 159.5 201 c 128,-1,34
 145 144 145 144 145 114 c 0,35,36
 145 28 145 28 232 28 c 0,22,23
EndSplineSet
EndChar

StartChar: tau
Encoding: 964 964 96
Width: 520
VWidth: 1000
Flags: W
HStem: -12 21G<224 237> 348 96<140.966 292 349 583.496>
LayerCount: 2
Fore
SplineSet
349 348 m 1,0,-1
 302 54 l 2,1,2
 299 31 299 31 289 16 c 128,-1,3
 279 1 279 1 266 -4 c 128,-1,4
 253 -9 253 -9 246.5 -10.5 c 128,-1,5
 240 -12 240 -12 234 -12 c 0,6,7
 214 -12 214 -12 200.5 0 c 128,-1,8
 187 12 187 12 187 32 c 0,9,10
 187 42 187 42 217 127 c 1,11,12
 231 173 231 173 256 242 c 1,13,-1
 292 348 l 1,14,-1
 202 348 l 2,15,16
 117 348 117 348 79 301 c 0,17,18
 72 293 72 293 68.5 291 c 128,-1,19
 65 289 65 289 54 289 c 0,20,21
 31 289 31 289 31 303 c 0,22,23
 31 311 31 311 55.5 342 c 128,-1,24
 80 373 80 373 105 396 c 0,25,26
 158 444 158 444 222 444 c 2,27,-1
 551 444 l 2,28,29
 604 444 604 444 604 405 c 0,30,31
 604 380 604 380 584 363 c 1,32,33
 568 348 568 348 534 348 c 2,34,-1
 349 348 l 1,0,-1
EndSplineSet
EndChar

StartChar: upsilon
Encoding: 965 965 97
Width: 630
VWidth: 1000
Flags: W
HStem: -8 36<265.882 397.13> 416 36<138.341 193.809>
VStem: 32 47<282.029 352.63> 124 108<55.1335 219.459> 199 102<317.685 415.737> 541 64<238.503 374.5>
LayerCount: 2
Fore
SplineSet
605 362 m 0,0,1
 605 339 605 339 599.5 302.5 c 128,-1,2
 594 266 594 266 570 203.5 c 128,-1,3
 546 141 546 141 508 94 c 0,4,5
 427 -8 427 -8 326 -8 c 0,6,7
 124 -8 124 -8 124 133 c 0,8,9
 124 164 124 164 136 204 c 128,-1,10
 148 244 148 244 184 335 c 0,11,12
 199 375 199 375 199 395 c 0,13,14
 199 405 199 405 196 410 c 128,-1,15
 193 415 193 415 190 415.5 c 128,-1,16
 187 416 187 416 182 416 c 0,17,18
 173 416 173 416 163 412 c 128,-1,19
 153 408 153 408 137 397.5 c 128,-1,20
 121 387 121 387 105.5 360.5 c 128,-1,21
 90 334 90 334 79 295 c 0,22,23
 75 282 75 282 56 282 c 0,24,25
 32 282 32 282 32 296 c 0,26,27
 32 306 32 306 42 329.5 c 128,-1,28
 52 353 52 353 70 381.5 c 128,-1,29
 88 410 88 410 119.5 431 c 128,-1,30
 151 452 151 452 188 452 c 0,31,32
 233 452 233 452 267 427.5 c 128,-1,33
 301 403 301 403 301 362 c 0,34,35
 301 346 301 346 284 303 c 0,36,37
 232 167 232 167 232 117 c 0,38,39
 232 28 232 28 333 28 c 0,40,41
 378 28 378 28 419 59.5 c 128,-1,42
 460 91 460 91 485.5 133 c 128,-1,43
 511 175 511 175 526 213 c 128,-1,44
 541 251 541 251 541 269 c 0,45,46
 541 303 541 303 491 332 c 1,47,48
 461 347 461 347 461 377 c 0,49,50
 461 403 461 403 485 428 c 128,-1,51
 509 453 509 453 537 453 c 0,52,53
 540 453 540 453 544.5 452.5 c 128,-1,54
 549 452 549 452 561 447 c 128,-1,55
 573 442 573 442 581.5 433.5 c 128,-1,56
 590 425 590 425 597.5 406 c 128,-1,57
 605 387 605 387 605 362 c 0,0,1
EndSplineSet
EndChar

StartChar: varphi
Encoding: 966 966 98
Width: 747
VWidth: 1000
Flags: W
HStem: -8 96<339.062 478.383> 3 89<177.737 247> 356 96<484.3 620.688> 424 20G<172 189.5>
VStem: 52 49<148.994 296.005> 189 116<-197.123 -102.04> 653 51<196.351 323.771>
LayerCount: 2
Fore
SplineSet
325 -7 m 1,0,1
 323 -16 323 -16 305 -145 c 1,2,3
 294 -216 294 -216 236 -216 c 0,4,5
 220 -216 220 -216 204.5 -206 c 128,-1,6
 189 -196 189 -196 189 -172 c 0,7,8
 189 -160 189 -160 206 -116 c 1,9,10
 233 -40 233 -40 247 3 c 1,11,12
 157 21 157 21 104.5 71 c 128,-1,13
 52 121 52 121 52 190 c 0,14,15
 52 229 52 229 76 300.5 c 128,-1,16
 100 372 100 372 144 425 c 1,17,18
 157 439 157 439 161.5 441.5 c 128,-1,19
 166 444 166 444 178 444 c 0,20,21
 201 444 201 444 201 430 c 0,22,23
 201 424 201 424 187 410 c 1,24,25
 147 364 147 364 124 298 c 128,-1,26
 101 232 101 232 101 204 c 0,27,28
 101 112 101 112 279 92 c 1,29,30
 294 136 294 136 303.5 161 c 128,-1,31
 313 186 313 186 331.5 229 c 128,-1,32
 350 272 350 272 365 298.5 c 128,-1,33
 380 325 380 325 403.5 357.5 c 128,-1,34
 427 390 427 390 450 408 c 128,-1,35
 473 426 473 426 503 439 c 128,-1,36
 533 452 533 452 566 452 c 0,37,38
 631 452 631 452 667.5 407 c 128,-1,39
 704 362 704 362 704 295 c 0,40,41
 704 171 704 171 596 81.5 c 128,-1,42
 488 -8 488 -8 349 -8 c 0,43,44
 335 -8 335 -8 325 -7 c 1,0,1
339 88 m 1,45,46
 473 88 473 88 551 128 c 0,47,48
 607 157 607 157 630 195 c 128,-1,49
 653 233 653 233 653 266 c 0,50,51
 653 307 653 307 623.5 331.5 c 128,-1,52
 594 356 594 356 549 356 c 0,53,54
 466 356 466 356 401 273 c 0,55,56
 379 244 379 244 366.5 212.5 c 128,-1,57
 354 181 354 181 349.5 158.5 c 128,-1,58
 345 136 345 136 339 88 c 1,45,46
EndSplineSet
EndChar

StartChar: chi
Encoding: 967 967 99
Width: 718
VWidth: 1000
Flags: W
HStem: -202 36<543.848 608.477> -194 21G<54 65.5> 416 36<108.527 173.017> 424 20G<653 662>
VStem: 47 47<363.58 405.049> 622 47<-155.375 -113.58>
LayerCount: 2
Fore
SplineSet
665 399 m 2,0,-1
 412 147 l 1,1,2
 449 8 449 8 482 -57 c 0,3,4
 488 -70 488 -70 499.5 -89.5 c 128,-1,5
 511 -109 511 -109 534 -137.5 c 128,-1,6
 557 -166 557 -166 572 -166 c 0,7,8
 585 -166 585 -166 600.5 -155 c 128,-1,9
 616 -144 616 -144 622 -126 c 0,10,11
 626 -116 626 -116 629.5 -113.5 c 128,-1,12
 633 -111 633 -111 646 -111 c 0,13,14
 669 -111 669 -111 669 -125 c 0,15,16
 669 -128 669 -128 666.5 -135.5 c 128,-1,17
 664 -143 664 -143 656.5 -155 c 128,-1,18
 649 -167 649 -167 637 -177 c 128,-1,19
 625 -187 625 -187 604 -194.5 c 128,-1,20
 583 -202 583 -202 556 -202 c 0,21,22
 426 -202 426 -202 389 -138 c 0,23,24
 350 -70 350 -70 317 52 c 1,25,26
 264 0 264 0 202.5 -61 c 128,-1,27
 141 -122 141 -122 109 -154 c 128,-1,28
 77 -186 77 -186 72 -189 c 1,29,30
 72 -194 72 -194 59 -194 c 0,31,32
 49 -194 49 -194 43 -187.5 c 128,-1,33
 37 -181 37 -181 37 -173 c 0,34,35
 37 -164 37 -164 51 -150 c 2,36,-1
 304 103 l 1,37,38
 287 167 287 167 280.5 190 c 128,-1,39
 274 213 274 213 263.5 241.5 c 128,-1,40
 253 270 253 270 239 298 c 0,41,42
 232 313 232 313 221 332.5 c 128,-1,43
 210 352 210 352 185.5 384 c 128,-1,44
 161 416 161 416 145 416 c 0,45,46
 131 416 131 416 116 405 c 128,-1,47
 101 394 101 394 94 376 c 0,48,49
 91 366 91 366 87.5 363.5 c 128,-1,50
 84 361 84 361 70 361 c 0,51,52
 47 361 47 361 47 375 c 0,53,54
 47 384 47 384 55 400 c 128,-1,55
 63 416 63 416 91 434 c 128,-1,56
 119 452 119 452 161 452 c 0,57,58
 283 452 283 452 321 399 c 0,59,60
 356 350 356 350 400 197 c 1,61,-1
 633 429 l 2,62,63
 648 444 648 444 658 444 c 0,64,65
 666 444 666 444 672.5 438 c 128,-1,66
 679 432 679 432 679 422 c 0,67,68
 679 413 679 413 665 399 c 2,0,-1
EndSplineSet
EndChar

StartChar: psi
Encoding: 968 968 100
Width: 758
VWidth: 1000
Flags: W
HStem: -202 21G<305.5 324> -8 36<290.9 336.998 395 482.231> 416 36<138.576 198.304> 674 20G<526.5 545.5>
VStem: 32 47<282.029 351.02> 125 110<69.1239 228.093> 199 102<315.87 415.993> 294 48<-198.904 -153.654> 669 64<241.581 374.5>
LayerCount: 2
Fore
SplineSet
553 659 m 2,0,-1
 395 28 l 1,1,2
 452 28 452 28 506 57 c 128,-1,3
 560 86 560 86 594 126 c 128,-1,4
 628 166 628 166 648.5 205 c 128,-1,5
 669 244 669 244 669 269 c 0,6,7
 669 303 669 303 619 332 c 0,8,9
 589 349 589 349 589 377 c 0,10,11
 589 404 589 404 613 428.5 c 128,-1,12
 637 453 637 453 665 453 c 0,13,14
 668 453 668 453 672.5 452.5 c 128,-1,15
 677 452 677 452 689 447 c 128,-1,16
 701 442 701 442 709.5 433.5 c 128,-1,17
 718 425 718 425 725.5 406 c 128,-1,18
 733 387 733 387 733 362 c 0,19,20
 733 328 733 328 720.5 278 c 128,-1,21
 708 228 708 228 698 204 c 1,22,23
 658 118 658 118 574.5 55 c 128,-1,24
 491 -8 491 -8 386 -8 c 1,25,-1
 342 -182 l 2,26,27
 338 -196 338 -196 334.5 -199 c 128,-1,28
 331 -202 331 -202 317 -202 c 0,29,30
 294 -202 294 -202 294 -188 c 0,31,32
 294 -184 294 -184 317 -92 c 0,33,34
 318 -88 318 -88 323 -68 c 128,-1,35
 328 -48 328 -48 332.5 -29.5 c 128,-1,36
 337 -11 337 -11 337 -10 c 0,37,38
 337 -7 337 -7 327 -6 c 0,39,40
 125 12 125 12 125 144 c 0,41,42
 125 185 125 185 177 316 c 0,43,44
 199 373 199 373 199 395 c 0,45,46
 199 416 199 416 182 416 c 0,47,48
 173 416 173 416 163 412 c 128,-1,49
 153 408 153 408 137.5 397.5 c 128,-1,50
 122 387 122 387 106.5 360.5 c 128,-1,51
 91 334 91 334 79 295 c 0,52,53
 75 282 75 282 56 282 c 0,54,55
 32 282 32 282 32 296 c 0,56,57
 32 306 32 306 42 329.5 c 128,-1,58
 52 353 52 353 70 381.5 c 128,-1,59
 88 410 88 410 119.5 431 c 128,-1,60
 151 452 151 452 188 452 c 0,61,62
 233 452 233 452 267 427.5 c 128,-1,63
 301 403 301 403 301 362 c 0,64,65
 301 344 301 344 284 302 c 0,66,67
 235 177 235 177 235 134 c 0,68,69
 235 117 235 117 238.5 103 c 128,-1,70
 242 89 242 89 252.5 73 c 128,-1,71
 263 57 263 57 287.5 46 c 128,-1,72
 312 35 312 35 348 31 c 1,73,-1
 508 671 l 2,74,75
 512 687 512 687 515.5 690.5 c 128,-1,76
 519 694 519 694 534 694 c 0,77,78
 557 694 557 694 557 679 c 0,79,80
 557 673 557 673 553 659 c 2,0,-1
EndSplineSet
EndChar

StartChar: omega
Encoding: 969 969 101
Width: 717
VWidth: 1000
Flags: W
HStem: -8 110<109.462 244.573 374.823 504.411> 433 11G<150 156 611 636.5>
VStem: 22 53<136.15 277.76> 304.5 96.5<174 280.938> 626 66<246.442 385.5>
LayerCount: 2
Fore
SplineSet
362 140 m 1,0,1
 385 102 385 102 436 102 c 0,2,3
 510 102 510 102 568 153.5 c 128,-1,4
 626 205 626 205 626 258 c 0,5,6
 626 300 626 300 578 331 c 1,7,8
 549 354 549 354 549 377 c 0,9,10
 549 404 549 404 573 428.5 c 128,-1,11
 597 453 597 453 625 453 c 0,12,13
 648 453 648 453 670 432 c 128,-1,14
 692 411 692 411 692 360 c 0,15,16
 692 345 692 345 688 313.5 c 128,-1,17
 684 282 684 282 666.5 224 c 128,-1,18
 649 166 649 166 622 123 c 0,19,20
 586 67 586 67 531 29.5 c 128,-1,21
 476 -8 476 -8 415 -8 c 0,22,23
 338 -8 338 -8 307 64 c 1,24,25
 241 -8 241 -8 158 -8 c 0,26,27
 95 -8 95 -8 58.5 37.5 c 128,-1,28
 22 83 22 83 22 159 c 0,29,30
 22 199 22 199 33.5 242 c 128,-1,31
 45 285 45 285 60.5 317.5 c 128,-1,32
 76 350 76 350 93.5 378.5 c 128,-1,33
 111 407 111 407 121.5 421 c 128,-1,34
 132 435 132 435 135 438 c 1,35,-1
 137.5 439.5 l 2,36,37
 140 441 140 441 144 442.5 c 128,-1,38
 148 444 148 444 152 444 c 0,39,40
 160 444 160 444 166.5 438 c 128,-1,41
 173 432 173 432 173 423 c 128,-1,42
 173 414 173 414 162 401 c 1,43,44
 116 338 116 338 95.5 284.5 c 128,-1,45
 75 231 75 231 75 201 c 0,46,47
 75 158 75 158 103 130 c 128,-1,48
 131 102 131 102 179 102 c 0,49,50
 214 102 214 102 244.5 116.5 c 128,-1,51
 275 131 275 131 290 146 c 0,52,53
 292 148 292 148 293 163 c 0,54,55
 294 179 294 179 296 196 c 128,-1,56
 298 213 298 213 304.5 238.5 c 128,-1,57
 311 264 311 264 326 280 c 128,-1,58
 341 296 341 296 363 296 c 0,59,60
 381 296 381 296 391 283 c 128,-1,61
 401 270 401 270 401 252 c 0,62,63
 401 212 401 212 362 140 c 1,0,1
EndSplineSet
EndChar

StartChar: vartheta
Encoding: 977 977 102
Width: 691
VWidth: 1000
Flags: W
HStem: -8 36<246.632 351.132> 322 37<609 654.794> 416 36<119.188 172.399> 666 36<413.824 506.995>
VStem: 32 52<287.038 364.34> 120 107<42.118 210.894> 175 107<270.506 413.378> 302 47<463.866 606.167> 526 100<419.227 616.161>
LayerCount: 2
Fore
SplineSet
269 290 m 2,0,-1
 255 232 l 1,1,2
 227 129 227 129 227 97 c 0,3,4
 227 28 227 28 301 28 c 0,5,6
 362 28 362 28 413 125 c 0,7,8
 447 189 447 189 488 353 c 1,9,10
 460 362 460 362 439.5 369.5 c 128,-1,11
 419 377 419 377 391 392 c 128,-1,12
 363 407 363 407 345.5 424.5 c 128,-1,13
 328 442 328 442 315 468.5 c 128,-1,14
 302 495 302 495 302 527 c 0,15,16
 302 603 302 603 356 652.5 c 128,-1,17
 410 702 410 702 472 702 c 0,18,19
 498 702 498 702 522.5 692.5 c 128,-1,20
 547 683 547 683 571.5 662 c 128,-1,21
 596 641 596 641 611 598 c 128,-1,22
 626 555 626 555 626 496 c 0,23,24
 626 424 626 424 609 364 c 1,25,26
 635 360 635 360 638 359 c 0,27,28
 655 353 655 353 655 344 c 128,-1,29
 655 335 655 335 650 328.5 c 128,-1,30
 645 322 645 322 638 322 c 0,31,32
 635 322 635 322 628.5 323 c 128,-1,33
 622 324 622 324 613.5 325.5 c 128,-1,34
 605 327 605 327 600 328 c 1,35,36
 562 183 562 183 481.5 87.5 c 128,-1,37
 401 -8 401 -8 293 -8 c 0,38,39
 120 -8 120 -8 120 114 c 0,40,41
 120 142 120 142 132 192 c 0,42,43
 133 196 133 196 137 211 c 128,-1,44
 141 226 141 226 146 244.5 c 128,-1,45
 151 263 151 263 152 268 c 0,46,47
 175 363 175 363 175 379 c 0,48,49
 175 416 175 416 152 416 c 0,50,51
 109 416 109 416 84 316 c 0,52,53
 77 288 77 288 76 287 c 0,54,55
 71 282 71 282 56 282 c 0,56,57
 32 282 32 282 32 296 c 0,58,59
 32 300 32 300 36 314.5 c 128,-1,60
 40 329 40 329 49.5 353 c 128,-1,61
 59 377 59 377 70 395 c 0,62,63
 103 452 103 452 157 452 c 0,64,65
 206 452 206 452 244 426.5 c 128,-1,66
 282 401 282 401 282 354 c 0,67,68
 282 345 282 345 269 290 c 2,0,-1
497 390 m 1,69,70
 526 513 526 513 526 566 c 0,71,72
 526 666 526 666 469 666 c 0,73,74
 425 666 425 666 387 626 c 128,-1,75
 349 586 349 586 349 529 c 0,76,77
 349 434 349 434 497 390 c 1,69,70
EndSplineSet
EndChar

StartChar: Upsilon
Encoding: 978 978 103
Width: 670
VWidth: 1000
Flags: W
HStem: 2 45<84.1875 220.889 361.015 483.844> 593 110<135.346 260.839 586.118 741.432>
VStem: 32 54<531.784 575.679> 744 58<535.61 556.936>
LayerCount: 2
Fore
SplineSet
395 472 m 1,0,-1
 396 472 l 1,1,2
 448 573 448 573 510 629 c 0,3,4
 593 703 593 703 682 703 c 0,5,6
 737 703 737 703 769.5 670 c 128,-1,7
 802 637 802 637 802 586 c 0,8,9
 802 560 802 560 796 547.5 c 128,-1,10
 790 535 790 535 784 533 c 128,-1,11
 778 531 778 531 767 531 c 0,12,13
 759 531 759 531 755 531.5 c 128,-1,14
 751 532 751 532 747.5 535.5 c 128,-1,15
 744 539 744 539 744 546 c 0,16,17
 744 555 744 555 745 557 c 1,18,19
 744 567 744 567 741 573 c 128,-1,20
 738 579 738 579 718 586 c 128,-1,21
 698 593 698 593 661 593 c 0,22,23
 620 593 620 593 583.5 574 c 128,-1,24
 547 555 547 555 521 522.5 c 128,-1,25
 495 490 495 490 477.5 458 c 128,-1,26
 460 426 460 426 447 391 c 1,27,28
 431 344 431 344 366 76 c 0,29,30
 361 56 361 56 361 53 c 0,31,32
 361 47 361 47 423 47 c 2,33,-1
 455 47 l 2,34,35
 467 47 467 47 473 46.5 c 128,-1,36
 479 46 479 46 484 41.5 c 128,-1,37
 489 37 489 37 489 28 c 0,38,39
 489 0 489 0 459 0 c 0,40,41
 444 0 444 0 413.5 1 c 128,-1,42
 383 2 383 2 368 2 c 128,-1,43
 353 2 353 2 323 2.5 c 128,-1,44
 293 3 293 3 278 3 c 0,45,46
 264 3 264 3 234 2.5 c 128,-1,47
 204 2 204 2 190 2 c 0,48,49
 175 2 175 2 145 1 c 128,-1,50
 115 0 115 0 101 0 c 0,51,52
 78 0 78 0 78 18 c 0,53,54
 78 32 78 32 84 38.5 c 128,-1,55
 90 45 90 45 96 46 c 128,-1,56
 102 47 102 47 114 47 c 2,57,-1
 146 47 l 2,58,59
 218 47 218 47 221 55 c 0,60,61
 230 89 230 89 231 96 c 2,62,-1
 280 289 l 2,63,64
 298 361 298 361 302.5 386 c 128,-1,65
 307 411 307 411 307 443 c 0,66,67
 307 512 307 512 280 550 c 1,68,69
 251 593 251 593 190 593 c 0,70,71
 100 593 100 593 86 550 c 0,72,73
 79 531 79 531 55 531 c 0,74,75
 32 531 32 531 32 545 c 0,76,77
 32 584 32 584 88 643.5 c 128,-1,78
 144 703 144 703 225 703 c 0,79,80
 265 703 265 703 296 689 c 128,-1,81
 327 675 327 675 344.5 650.5 c 128,-1,82
 362 626 362 626 373.5 602 c 128,-1,83
 385 578 385 578 389 547.5 c 128,-1,84
 393 517 393 517 394 502.5 c 128,-1,85
 395 488 395 488 395 472 c 1,0,-1
EndSplineSet
EndChar

StartChar: phi
Encoding: 981 981 104
Width: 712
VWidth: 1000
Flags: W
HStem: -202 21G<257.5 275.5> -11 36<221.747 289> 419 36<315.549 396.703 454 521.253> 674 20G<478.5 497.5>
VStem: 56 103<88.9452 260.706> 584 103<183 355.055>
LayerCount: 2
Fore
SplineSet
506 665 m 2,0,-1
 454 455 l 1,1,2
 563 451 563 451 625 401 c 128,-1,3
 687 351 687 351 687 270 c 0,4,5
 687 167 687 167 595 82.5 c 128,-1,6
 503 -2 503 -2 358 -11 c 0,7,8
 340 -12 340 -12 338 -13 c 0,9,10
 336 -15 336 -15 329 -44 c 2,11,-1
 294 -184 l 2,12,13
 291 -196 291 -196 286.5 -199 c 128,-1,14
 282 -202 282 -202 269 -202 c 0,15,16
 246 -202 246 -202 246 -188 c 1,17,-1
 289 -11 l 1,18,19
 180 -7 180 -7 118 43 c 128,-1,20
 56 93 56 93 56 174 c 0,21,22
 56 276 56 276 147 361 c 128,-1,23
 238 446 238 446 385 455 c 0,24,25
 401 456 401 456 405 458 c 0,26,27
 406 459 406 459 410 473 c 2,28,-1
 460 671 l 2,29,30
 464 687 464 687 467.5 690.5 c 128,-1,31
 471 694 471 694 486 694 c 0,32,33
 509 694 509 694 509 680 c 0,34,35
 509 677 509 677 506 665 c 2,0,-1
298 25 m 1,36,-1
 397 419 l 1,37,38
 282 409 282 409 222 334 c 0,39,40
 188 291 188 291 173.5 236.5 c 128,-1,41
 159 182 159 182 159 148 c 0,42,43
 159 33 159 33 298 25 c 1,36,-1
445 419 m 1,44,-1
 346 25 l 1,45,46
 461 35 461 35 521 110 c 0,47,48
 555 153 555 153 569.5 207.5 c 128,-1,49
 584 262 584 262 584 296 c 0,50,51
 584 411 584 411 445 419 c 1,44,-1
EndSplineSet
EndChar

StartChar: varpi
Encoding: 982 982 105
Width: 975
VWidth: 1000
Flags: W
HStem: -8 96<217.229 352.246 573.127 704.491> 348 96<140.966 231 269.273 823.995 868 928.554>
VStem: 146 51<110.558 238.255> 503 47<228.299 294.967> 826 47<197.196 348>
LayerCount: 2
Fore
SplineSet
222 444 m 2,0,-1
 902 444 l 2,1,2
 955 444 955 444 955 405 c 0,3,4
 955 376 955 376 929 357 c 0,5,6
 915 348 915 348 868 348 c 1,7,8
 873 324 873 324 873 295 c 0,9,10
 873 228 873 228 839 158 c 128,-1,11
 805 88 805 88 744.5 40 c 128,-1,12
 684 -8 684 -8 618 -8 c 0,13,14
 559 -8 559 -8 526.5 30.5 c 128,-1,15
 494 69 494 69 488 137 c 1,16,17
 442 69 442 69 382 30.5 c 128,-1,18
 322 -8 322 -8 260 -8 c 0,19,20
 206 -8 206 -8 176 30 c 128,-1,21
 146 68 146 68 146 130 c 0,22,23
 146 236 146 236 231 348 c 1,24,25
 192 348 192 348 172 346.5 c 128,-1,26
 152 345 152 345 124.5 333.5 c 128,-1,27
 97 322 97 322 79 299 c 1,28,29
 69 289 69 289 54 289 c 0,30,31
 31 289 31 289 31 303 c 0,32,33
 31 311 31 311 55.5 342 c 128,-1,34
 80 373 80 373 105 396 c 0,35,36
 158 444 158 444 222 444 c 2,0,-1
820 348 m 1,37,-1
 285 348 l 1,38,39
 197 234 197 234 197 163 c 0,40,41
 197 134 197 134 216.5 111 c 128,-1,42
 236 88 236 88 277 88 c 0,43,44
 315 88 315 88 356.5 105.5 c 128,-1,45
 398 123 398 123 440.5 169.5 c 128,-1,46
 483 216 483 216 503 283 c 0,47,48
 507 295 507 295 527 295 c 0,49,50
 550 295 550 295 550 280 c 0,51,52
 550 276 550 276 548 269 c 0,53,54
 541 236 541 236 541 210 c 0,55,56
 541 160 541 160 562.5 124 c 128,-1,57
 584 88 584 88 635 88 c 0,58,59
 702 88 702 88 764 145 c 128,-1,60
 826 202 826 202 826 295 c 0,61,62
 826 322 826 322 820 348 c 1,37,-1
EndSplineSet
EndChar

StartChar: varrho
Encoding: 1009 1009 106
Width: 611
VWidth: 1000
Flags: W
HStem: -194 21G<431 440.5> -175 96<142.194 410> -8 36<255.418 366.593> 416 36<348.457 462.052>
VStem: 81 55<-97.5 68.0197> 411 53<-187.875 -173> 483 114<213.082 374.218>
LayerCount: 2
Fore
SplineSet
411 -173 m 1,0,-1
 410 -172 l 1,1,2
 404 -169 404 -169 375 -169 c 0,3,4
 353 -169 353 -169 327 -171 c 0,5,6
 289 -175 289 -175 251 -175 c 0,7,8
 153 -175 153 -175 117 -151.5 c 128,-1,9
 81 -128 81 -128 81 -67 c 0,10,11
 81 -24 81 -24 97 56.5 c 128,-1,12
 113 137 113 137 126.5 189.5 c 128,-1,13
 140 242 140 242 144 253 c 0,14,15
 177 348 177 348 250.5 400 c 128,-1,16
 324 452 324 452 412 452 c 0,17,18
 497 452 497 452 547 408.5 c 128,-1,19
 597 365 597 365 597 285 c 0,20,21
 597 236 597 236 577.5 185 c 128,-1,22
 558 134 558 134 522.5 90.5 c 128,-1,23
 487 47 487 47 430 19.5 c 128,-1,24
 373 -8 373 -8 305 -8 c 0,25,26
 193 -8 193 -8 148 69 c 1,27,28
 136 9 136 9 136 -22 c 0,29,30
 136 -47 136 -47 142 -56.5 c 128,-1,31
 148 -66 148 -66 182.5 -72.5 c 128,-1,32
 217 -79 217 -79 295 -79 c 0,33,34
 330 -79 330 -79 346 -79.5 c 128,-1,35
 362 -80 362 -80 386.5 -81.5 c 128,-1,36
 411 -83 411 -83 421.5 -86.5 c 128,-1,37
 432 -90 432 -90 444 -96.5 c 128,-1,38
 456 -103 456 -103 460 -113 c 128,-1,39
 464 -123 464 -123 464 -138 c 0,40,41
 464 -151 464 -151 458 -176 c 0,42,43
 455 -188 455 -188 451 -191 c 128,-1,44
 447 -194 447 -194 434 -194 c 0,45,46
 428 -194 428 -194 422.5 -193 c 128,-1,47
 417 -192 417 -192 412.5 -188 c 128,-1,48
 408 -184 408 -184 411 -178 c 1,49,-1
 411 -173 l 1,0,-1
307 28 m 0,50,51
 326 28 326 28 347 35.5 c 128,-1,52
 368 43 368 43 393 66.5 c 128,-1,53
 418 90 418 90 434 127 c 1,54,55
 448 162 448 162 465.5 231.5 c 128,-1,56
 483 301 483 301 483 335 c 0,57,58
 483 416 483 416 410 416 c 0,59,60
 378 416 378 416 343.5 395.5 c 128,-1,61
 309 375 309 375 285 333 c 1,62,63
 264 294 264 294 246 220.5 c 128,-1,64
 228 147 228 147 228 115 c 0,65,66
 228 69 228 69 251 48.5 c 128,-1,67
 274 28 274 28 307 28 c 0,50,51
EndSplineSet
EndChar

StartChar: epsilon
Encoding: 1013 1013 107
Width: 483
VWidth: 1000
Flags: W
HStem: -8 36<212.335 354.612> 213 47<189 397.848> 397 47<269.533 443.75>
VStem: 50 116<85.4244 212.2>
LayerCount: 2
Fore
SplineSet
359 213 m 2,0,-1
 177 213 l 1,1,2
 166 167 166 167 166 137 c 0,3,4
 166 108 166 108 176.5 86 c 128,-1,5
 187 64 187 64 200.5 53.5 c 128,-1,6
 214 43 214 43 232.5 36.5 c 128,-1,7
 251 30 251 30 262.5 29 c 128,-1,8
 274 28 274 28 285 28 c 0,9,10
 331 28 331 28 401 70 c 0,11,12
 411 77 411 77 417 77 c 0,13,14
 426 77 426 77 431 67 c 128,-1,15
 436 57 436 57 436 47 c 128,-1,16
 436 37 436 37 411 24.5 c 128,-1,17
 386 12 386 12 376 9 c 0,18,19
 329 -8 329 -8 282 -8 c 0,20,21
 184 -8 184 -8 117 38 c 128,-1,22
 50 84 50 84 50 179 c 0,23,24
 50 290 50 290 135 366 c 0,25,26
 166 393 166 393 201 410.5 c 128,-1,27
 236 428 236 428 273 434.5 c 128,-1,28
 310 441 310 441 331 442.5 c 128,-1,29
 352 444 352 444 382 444 c 2,30,-1
 424 444 l 1,31,32
 444 443 444 443 444 423 c 0,33,34
 444 397 444 397 403 397 c 2,35,-1
 361 397 l 2,36,37
 224 397 224 397 189 260 c 1,38,-1
 360 260 l 2,39,40
 373 260 373 260 379 259.5 c 128,-1,41
 385 259 385 259 391.5 253.5 c 128,-1,42
 398 248 398 248 398 238 c 0,43,44
 398 213 398 213 359 213 c 2,0,-1
EndSplineSet
EndChar

StartChar: lparenbigg
Encoding: 0 40 108
Width: 314
VWidth: 1149
Flags: W
VStem: 89 38<68.0805 432.142>
LayerCount: 2
Fore
SplineSet
283 -249 m 0,0,1
 181 -162 181 -162 135 -31 c 128,-1,2
 89 100 89 100 89 250 c 128,-1,3
 89 400 89 400 135 531 c 128,-1,4
 181 662 181 662 283 749 c 0,5,6
 284 749 284 749 286 750 c 2,7,-1
 296 750 l 2,8,9
 300 750 300 750 300 746 c 0,10,11
 300 743 300 743 299 742 c 0,12,13
 127 579 127 579 127 250 c 128,-1,14
 127 -79 127 -79 299 -242 c 0,15,16
 300 -243 300 -243 300 -245 c 0,17,18
 300 -250 300 -250 296 -250 c 2,19,-1
 286 -250 l 1,20,21
 285 -250 l 2,22,23
 284 -250 284 -250 283 -249 c 0,0,1
EndSplineSet
EndChar

StartChar: rparenbigg
Encoding: 1 41 109
Width: 314
VWidth: 1149
Flags: W
VStem: 188 38<68.0805 431.919>
LayerCount: 2
Fore
SplineSet
18 -250 m 2,0,1
 14 -250 14 -250 14 -245 c 0,2,3
 14 -244 14 -244 16 -242 c 0,4,5
 188 -79 188 -79 188 250 c 128,-1,6
 188 579 188 579 16 742 c 0,7,8
 14 744 14 744 14 746 c 0,9,10
 14 750 14 750 18 750 c 2,11,-1
 29 750 l 2,12,13
 30 750 30 750 30 749.5 c 128,-1,14
 30 749 30 749 31 749 c 0,15,16
 133 662 133 662 179.5 531 c 128,-1,17
 226 400 226 400 226 250 c 128,-1,18
 226 100 226 100 179.5 -31 c 128,-1,19
 133 -162 133 -162 31 -249 c 0,20,21
 30 -249 30 -249 30 -249.5 c 128,-1,22
 30 -250 30 -250 29 -250 c 2,23,-1
 18 -250 l 2,0,1
EndSplineSet
EndChar

StartChar: lbrackbigg
Encoding: 2 91 110
Width: 224
VWidth: 1149
Flags: W
HStem: -250 25<131 220> 725 25<131 220>
VStem: 106 114<-250 -225 725 750> 106 25<-225 725>
LayerCount: 2
Fore
SplineSet
106 -250 m 1,0,-1
 106 750 l 1,1,-1
 220 750 l 1,2,-1
 220 725 l 1,3,-1
 131 725 l 1,4,-1
 131 -225 l 1,5,-1
 220 -225 l 1,6,-1
 220 -250 l 1,7,-1
 106 -250 l 1,0,-1
EndSplineSet
EndChar

StartChar: rbrackbigg
Encoding: 3 93 111
Width: 224
VWidth: 1149
Flags: W
HStem: -250 25<5 94> 725 25<5 94>
VStem: 5 114<-250 -225 725 750> 94 25<-225 725>
LayerCount: 2
Fore
SplineSet
5 -250 m 1,0,-1
 5 -225 l 1,1,-1
 94 -225 l 1,2,-1
 94 725 l 1,3,-1
 5 725 l 1,4,-1
 5 750 l 1,5,-1
 119 750 l 1,6,-1
 119 -250 l 1,7,-1
 5 -250 l 1,0,-1
EndSplineSet
EndChar

StartChar: lbracebigg
Encoding: 4 123 112
Width: 319
VWidth: 1149
Flags: W
HStem: -250 18<246.514 249.016> 731 19<244.027 249.016>
VStem: 141 38<-178.788 183.73 316.953 678.788>
LayerCount: 2
Fore
SplineSet
141 -124 m 2,0,-1
 141 122 l 2,1,2
 141 200 141 200 58 241 c 0,3,4
 56 243 56 243 56 244 c 2,5,-1
 56 256 l 2,6,7
 56 259 56 259 58 259 c 0,8,9
 141 300 141 300 141 378 c 2,10,-1
 141 624 l 2,11,12
 141 667 141 667 172.5 699.5 c 128,-1,13
 204 732 204 732 249 750 c 1,14,-1
 250 750 l 1,15,-1
 261 750 l 2,16,17
 265 750 265 750 265 746 c 2,18,-1
 265 735 l 2,19,20
 265 734 265 734 262 731 c 0,21,22
 227 716 227 716 203 687 c 128,-1,23
 179 658 179 658 179 622 c 2,24,-1
 179 377 l 2,25,26
 179 336 179 336 151 302.5 c 128,-1,27
 123 269 123 269 81 250 c 1,28,29
 123 231 123 231 151 198 c 128,-1,30
 179 165 179 165 179 124 c 2,31,-1
 179 -122 l 2,32,33
 179 -158 179 -158 202.5 -187 c 128,-1,34
 226 -216 226 -216 262 -232 c 0,35,36
 265 -232 265 -232 265 -235 c 2,37,-1
 265 -246 l 2,38,39
 265 -250 265 -250 261 -250 c 2,40,-1
 250 -250 l 1,41,-1
 249 -250 l 1,42,43
 204 -232 204 -232 172.5 -199.5 c 128,-1,44
 141 -167 141 -167 141 -124 c 2,0,-1
EndSplineSet
EndChar

StartChar: rbracebigg
Encoding: 5 125 113
Width: 319
VWidth: 1149
Flags: W
HStem: -250 18<70.9844 75.1562> 731 19<70.9844 75.9729>
VStem: 141 38<-178.788 183.73 316.953 678.788>
LayerCount: 2
Fore
SplineSet
56 -246 m 2,0,-1
 56 -235 l 2,1,2
 56 -232 56 -232 59 -232 c 0,3,4
 94 -216 94 -216 117.5 -187 c 128,-1,5
 141 -158 141 -158 141 -122 c 2,6,-1
 141 124 l 2,7,8
 141 165 141 165 169 198 c 128,-1,9
 197 231 197 231 239 250 c 1,10,11
 197 269 197 269 169 302.5 c 128,-1,12
 141 336 141 336 141 377 c 2,13,-1
 141 622 l 2,14,15
 141 658 141 658 117.5 687 c 128,-1,16
 94 716 94 716 59 731 c 0,17,18
 56 734 56 734 56 735 c 2,19,-1
 56 746 l 2,20,21
 56 750 56 750 60 750 c 2,22,-1
 70 750 l 1,23,-1
 71 750 l 1,24,25
 116 732 116 732 147.5 699.5 c 128,-1,26
 179 667 179 667 179 624 c 2,27,-1
 179 378 l 2,28,29
 179 339 179 339 202.5 308 c 128,-1,30
 226 277 226 277 263 259 c 0,31,32
 265 259 265 259 265 256 c 2,33,-1
 265 244 l 2,34,35
 265 243 265 243 263 241 c 0,36,37
 226 223 226 223 202.5 192 c 128,-1,38
 179 161 179 161 179 122 c 2,39,-1
 179 -124 l 2,40,41
 179 -167 179 -167 147.5 -199.5 c 128,-1,42
 116 -232 116 -232 71 -250 c 1,43,-1
 70 -250 l 1,44,-1
 60 -250 l 2,45,46
 56 -250 56 -250 56 -246 c 2,0,-1
EndSplineSet
EndChar

StartChar: slashbigg
Encoding: 6 47 114
Width: 446
VWidth: 1149
Flags: W
VStem: 23 23<-249.951 -242> 401 22<743 749.951>
LayerCount: 2
Fore
SplineSet
23 -240 m 1,0,-1
 23 -237 l 1,1,-1
 24 -235 l 1,2,-1
 401 743 l 2,3,4
 404 748 404 748 410 750 c 2,5,-1
 413 750 l 2,6,7
 421 748 421 748 423 740 c 2,8,-1
 423 737 l 1,9,-1
 422 736 l 1,10,-1
 46 -242 l 2,11,12
 43 -248 43 -248 36 -250 c 2,13,-1
 33 -250 l 2,14,15
 25 -248 25 -248 23 -240 c 1,0,-1
EndSplineSet
EndChar

